Nobile-Bold.ufo
<glyph name="exclam" format="1">
  <advance width="635"/>
  <unicode hex="0021"/>
  <outline>
    <contour>
      <point x="331" y="0" type="curve" smooth="yes"/>
      <point x="427" y="0"/>
      <point x="503" y="76"/>
      <point x="503" y="172" type="curve" smooth="yes"/>
      <point x="503" y="269"/>
      <point x="428" y="344"/>
      <point x="331" y="344" type="curve" smooth="yes"/>
      <point x="233" y="344"/>
      <point x="161" y="266"/>
      <point x="161" y="172" type="curve" smooth="yes"/>
      <point x="161" y="76"/>
      <point x="235" y="0"/>
    </contour>
    <contour>
      <point x="246" y="519" type="line"/>
      <point x="404" y="519" type="line"/>
      <point x="475" y="1578" type="line"/>
      <point x="170" y="1578" type="line"/>
    </contour>
  </outline>
</glyph>
<glyph name="quotedbl" format="1">
  <advance width="897"/>
  <unicode hex="0022"/>
  <outline>
    <contour>
      <point x="166" y="932" type="line"/>
      <point x="326" y="932" type="line"/>
      <point x="380" y="1495" type="line" smooth="yes"/>
      <point x="381" y="1505"/>
      <point x="380" y="1568"/>
      <point x="380" y="1578" type="curve"/>
      <point x="100" y="1578" type="line"/>
      <point x="100" y="1568"/>
      <point x="100" y="1505"/>
      <point x="100" y="1495" type="curve" smooth="yes"/>
    </contour>
    <contour>
      <point x="585" y="932" type="line"/>
      <point x="745" y="932" type="line"/>
      <point x="814" y="1495" type="line" smooth="yes"/>
      <point x="815" y="1505"/>
      <point x="814" y="1568"/>
      <point x="814" y="1578" type="curve"/>
      <point x="539" y="1578" type="line"/>
      <point x="539" y="1568"/>
      <point x="538" y="1505"/>
      <point x="539" y="1495" type="curve" smooth="yes"/>
    </contour>
  </outline>
</glyph>
<glyph name="numbersign" format="1">
  <advance width="1395"/>
  <unicode hex="0023"/>
  <outline>
    <contour>
      <point x="174" y="0" type="line"/>
      <point x="362" y="0" type="line"/>
      <point x="672" y="1578" type="line"/>
      <point x="466" y="1578" type="line"/>
    </contour>
    <contour>
      <point x="103" y="514" type="line"/>
      <point x="1285" y="514" type="line"/>
      <point x="1285" y="643" type="line"/>
      <point x="103" y="643" type="line"/>
    </contour>
    <contour>
      <point x="133" y="914" type="line"/>
      <point x="1315" y="914" type="line"/>
      <point x="1315" y="1043" type="line"/>
      <point x="133" y="1043" type="line"/>
    </contour>
    <contour>
      <point x="744" y="0" type="line"/>
      <point x="932" y="0" type="line"/>
      <point x="1242" y="1578" type="line"/>
      <point x="1036" y="1578" type="line"/>
    </contour>
  </outline>
</glyph>
<glyph name="dollar" format="1">
  <advance width="1056"/>
  <unicode hex="0024"/>
  <outline>
    <contour>
      <point x="356" y="-185" type="line"/>
      <point x="454" y="-185" type="line"/>
      <point x="706" y="1630" type="line"/>
      <point x="608" y="1630" type="line"/>
    </contour>
    <component base="s" xOffset="-15" yOffset="100"/>
  </outline>
</glyph>
<glyph name="percent" format="1">
  <advance width="2124"/>
  <unicode hex="0025"/>
  <outline>
    <contour>
      <point x="487" y="921" type="curve" smooth="yes"/>
      <point x="385" y="921"/>
      <point x="320" y="1016"/>
      <point x="320" y="1167" type="curve" smooth="yes"/>
      <point x="320" y="1324"/>
      <point x="385" y="1422"/>
      <point x="487" y="1422" type="curve" smooth="yes"/>
      <point x="589" y="1422"/>
      <point x="653" y="1324"/>
      <point x="653" y="1167" type="curve" smooth="yes"/>
      <point x="653" y="1016"/>
      <point x="589" y="921"/>
    </contour>
    <contour>
      <point x="487" y="742" type="curve" smooth="yes"/>
      <point x="713" y="742"/>
      <point x="856" y="906"/>
      <point x="856" y="1167" type="curve" smooth="yes"/>
      <point x="856" y="1431"/>
      <point x="713" y="1596"/>
      <point x="487" y="1596" type="curve" smooth="yes"/>
      <point x="260" y="1596"/>
      <point x="117" y="1431"/>
      <point x="117" y="1167" type="curve" smooth="yes"/>
      <point x="117" y="906"/>
      <point x="260" y="742"/>
    </contour>
    <contour>
      <point x="725" y="-104" type="line"/>
      <point x="1629" y="1609" type="line"/>
      <point x="1441" y="1690" type="line"/>
      <point x="538" y="-25" type="line"/>
    </contour>
    <contour>
      <point x="1668" y="161" type="curve" smooth="yes"/>
      <point x="1566" y="161"/>
      <point x="1501" y="256"/>
      <point x="1501" y="407" type="curve" smooth="yes"/>
      <point x="1501" y="564"/>
      <point x="1566" y="662"/>
      <point x="1668" y="662" type="curve" smooth="yes"/>
      <point x="1770" y="662"/>
      <point x="1834" y="564"/>
      <point x="1834" y="407" type="curve" smooth="yes"/>
      <point x="1834" y="256"/>
      <point x="1770" y="161"/>
    </contour>
    <contour>
      <point x="1668" y="-18" type="curve" smooth="yes"/>
      <point x="1894" y="-18"/>
      <point x="2037" y="146"/>
      <point x="2037" y="407" type="curve" smooth="yes"/>
      <point x="2037" y="671"/>
      <point x="1894" y="836"/>
      <point x="1668" y="836" type="curve" smooth="yes"/>
      <point x="1441" y="836"/>
      <point x="1298" y="671"/>
      <point x="1298" y="407" type="curve" smooth="yes"/>
      <point x="1298" y="146"/>
      <point x="1441" y="-18"/>
    </contour>
  </outline>
</glyph>
<glyph name="ampersand" format="1">
  <advance width="1730"/>
  <unicode hex="0026"/>
  <outline>
    <contour>
      <point x="1599" y="-29" type="line"/>
      <point x="1724" y="137" type="line"/>
      <point x="1458" y="352" type="line"/>
      <point x="1513" y="469"/>
      <point x="1553" y="673"/>
      <point x="1553" y="869" type="curve"/>
      <point x="1338" y="874" type="line"/>
      <point x="1338" y="751"/>
      <point x="1323" y="589"/>
      <point x="1283" y="491" type="curve"/>
      <point x="855" y="848" type="line"/>
      <point x="1063" y="955"/>
      <point x="1196" y="1050"/>
      <point x="1196" y="1260" type="curve" smooth="yes"/>
      <point x="1196" y="1469"/>
      <point x="997" y="1596"/>
      <point x="735" y="1596" type="curve" smooth="yes"/>
      <point x="448" y="1596"/>
      <point x="272" y="1468"/>
      <point x="272" y="1248" type="curve" smooth="yes"/>
      <point x="272" y="1091"/>
      <point x="364" y="987"/>
      <point x="503" y="891" type="curve"/>
      <point x="320" y="801"/>
      <point x="142" y="667"/>
      <point x="142" y="413" type="curve" smooth="yes"/>
      <point x="142" y="85"/>
      <point x="414" y="-18"/>
      <point x="756" y="-18" type="curve" smooth="yes"/>
      <point x="1045" y="-18"/>
      <point x="1231" y="51"/>
      <point x="1338" y="192" type="curve"/>
    </contour>
    <contour>
      <point x="788" y="196" type="curve" smooth="yes"/>
      <point x="564" y="196"/>
      <point x="442" y="273"/>
      <point x="442" y="448" type="curve" smooth="yes"/>
      <point x="442" y="587"/>
      <point x="524" y="690"/>
      <point x="661" y="749" type="curve"/>
      <point x="1170" y="321" type="line"/>
      <point x="1079" y="221"/>
      <point x="951" y="196"/>
    </contour>
    <contour>
      <point x="698" y="986" type="curve"/>
      <point x="604" y="1041"/>
      <point x="531" y="1133"/>
      <point x="531" y="1234" type="curve" smooth="yes"/>
      <point x="531" y="1354"/>
      <point x="609" y="1405"/>
      <point x="741" y="1405" type="curve" smooth="yes"/>
      <point x="864" y="1405"/>
      <point x="954" y="1353"/>
      <point x="954" y="1232" type="curve" smooth="yes"/>
      <point x="954" y="1087"/>
      <point x="812" y="1030"/>
    </contour>
  </outline>
</glyph>
<glyph name="quotesingle" format="1">
  <advance width="727"/>
  <unicode hex="0027"/>
  <outline>
    <contour>
      <point x="272" y="932" type="line"/>
      <point x="432" y="932" type="line"/>
      <point x="501" y="1495" type="line" smooth="yes"/>
      <point x="502" y="1505"/>
      <point x="501" y="1568"/>
      <point x="501" y="1578" type="curve"/>
      <point x="206" y="1578" type="line"/>
      <point x="206" y="1568"/>
      <point x="205" y="1505"/>
      <point x="206" y="1495" type="curve" smooth="yes"/>
    </contour>
  </outline>
</glyph>
<glyph name="parenleft" format="1">
  <advance width="912"/>
  <unicode hex="0028"/>
  <outline>
    <contour>
      <point x="652" y="-256" type="curve"/>
      <point x="786" y="-106" type="line"/>
      <point x="598" y="81"/>
      <point x="506" y="395"/>
      <point x="506" y="719" type="curve" smooth="yes"/>
      <point x="506" y="1044"/>
      <point x="605" y="1378"/>
      <point x="800" y="1582" type="curve"/>
      <point x="649" y="1729" type="line"/>
      <point x="350" y="1501"/>
      <point x="201" y="1116"/>
      <point x="201" y="729" type="curve" smooth="yes"/>
      <point x="201" y="349"/>
      <point x="351" y="-34"/>
    </contour>
  </outline>
</glyph>
<glyph name="parenright" format="1">
  <advance width="911"/>
  <unicode hex="0029"/>
  <outline>
    <contour>
      <point x="288" y="-256" type="line"/>
      <point x="589" y="-34"/>
      <point x="739" y="349"/>
      <point x="739" y="729" type="curve" smooth="yes"/>
      <point x="739" y="1116"/>
      <point x="590" y="1501"/>
      <point x="291" y="1729" type="curve"/>
      <point x="139" y="1582" type="line"/>
      <point x="335" y="1378"/>
      <point x="434" y="1044"/>
      <point x="434" y="719" type="curve" smooth="yes"/>
      <point x="434" y="395"/>
      <point x="341" y="81"/>
      <point x="153" y="-106" type="curve"/>
    </contour>
  </outline>
</glyph>
<glyph name="asterisk" format="1">
  <advance width="969"/>
  <unicode hex="002A"/>
  <outline>
    <contour>
      <point x="353" y="795" type="curve"/>
      <point x="366" y="818"/>
      <point x="424" y="924"/>
      <point x="495" y="1048" type="curve"/>
      <point x="637" y="794" type="line"/>
      <point x="787" y="881" type="line"/>
      <point x="630" y="1140" type="line"/>
      <point x="912" y="1137" type="line"/>
      <point x="912" y="1283" type="line"/>
      <point x="627" y="1280" type="line"/>
      <point x="782" y="1543" type="line"/>
      <point x="741" y="1567"/>
      <point x="674" y="1602"/>
      <point x="633" y="1626" type="curve"/>
      <point x="612" y="1592"/>
      <point x="553" y="1476"/>
      <point x="493" y="1372" type="curve"/>
      <point x="355" y="1625" type="line"/>
      <point x="209" y="1546" type="line"/>
      <point x="362" y="1280" type="line"/>
      <point x="65" y="1283" type="line"/>
      <point x="65" y="1137" type="line"/>
      <point x="361" y="1140" type="line"/>
      <point x="204" y="881" type="line"/>
      <point x="245" y="857"/>
      <point x="312" y="820"/>
    </contour>
  </outline>
</glyph>
<glyph name="plus" format="1">
  <advance width="1078"/>
  <unicode hex="002B"/>
  <outline>
    <contour>
      <point x="413" y="118" type="line"/>
      <point x="660" y="118" type="line"/>
      <point x="660" y="469" type="line"/>
      <point x="995" y="469" type="line"/>
      <point x="995" y="691" type="line"/>
      <point x="660" y="691" type="line"/>
      <point x="660" y="1039" type="line"/>
      <point x="413" y="1039" type="line"/>
      <point x="413" y="691" type="line"/>
      <point x="79" y="691" type="line"/>
      <point x="79" y="469" type="line"/>
      <point x="413" y="469" type="line"/>
    </contour>
  </outline>
</glyph>
<glyph name="comma" format="1">
  <advance width="761"/>
  <unicode hex="002C"/>
  <outline>
    <contour>
      <point x="271" y="-302" type="line"/>
      <point x="433" y="-254"/>
      <point x="576" y="-166"/>
      <point x="576" y="50" type="curve" smooth="yes"/>
      <point x="576" y="381" type="line"/>
      <point x="221" y="381" type="line"/>
      <point x="221" y="0" type="line"/>
      <point x="361" y="0" type="line"/>
      <point x="361" y="-100"/>
      <point x="332" y="-157"/>
      <point x="217" y="-198" type="curve"/>
    </contour>
  </outline>
</glyph>
<glyph name="hyphen" format="1">
  <advance width="1100"/>
  <unicode hex="002D"/>
  <outline>
    <contour>
      <point x="542" y="672" type="move" name="_mid"/>
    </contour>
    <contour>
      <point x="165" y="556" type="line"/>
      <point x="925" y="556" type="line"/>
      <point x="925" y="778" type="line"/>
      <point x="165" y="778" type="line"/>
    </contour>
  </outline>
</glyph>
<glyph name="period" format="1">
  <advance width="637"/>
  <unicode hex="002E"/>
  <outline>
    <contour>
      <point x="321" y="-5" type="curve" smooth="yes"/>
      <point x="417" y="-5"/>
      <point x="492" y="71"/>
      <point x="492" y="167" type="curve" smooth="yes"/>
      <point x="492" y="263"/>
      <point x="416" y="339"/>
      <point x="321" y="339" type="curve" smooth="yes"/>
      <point x="224" y="339"/>
      <point x="150" y="263"/>
      <point x="150" y="167" type="curve" smooth="yes"/>
      <point x="150" y="73"/>
      <point x="222" y="-5"/>
    </contour>
  </outline>
</glyph>
<glyph name="slash" format="1">
  <advance width="962"/>
  <unicode hex="002F"/>
  <outline>
    <contour>
      <point x="111" y="-165" type="line"/>
      <point x="981" y="1654" type="line"/>
      <point x="817" y="1729" type="line"/>
      <point x="-50" y="-92" type="line"/>
    </contour>
  </outline>
</glyph>
<glyph name="zero" format="1">
  <advance width="1425"/>
  <unicode hex="0030"/>
  <outline>
    <contour>
      <point x="707" y="209" type="curve" smooth="yes"/>
      <point x="492" y="209"/>
      <point x="418" y="373"/>
      <point x="418" y="585" type="curve" smooth="yes"/>
      <point x="418" y="772"/>
      <point x="485" y="956"/>
      <point x="707" y="956" type="curve" smooth="yes"/>
      <point x="926" y="956"/>
      <point x="1002" y="787"/>
      <point x="1002" y="596" type="curve" smooth="yes"/>
      <point x="1002" y="390"/>
      <point x="936" y="209"/>
    </contour>
    <contour>
      <point x="706" y="-18" type="curve" smooth="yes"/>
      <point x="1082" y="-18"/>
      <point x="1291" y="227"/>
      <point x="1291" y="577" type="curve" smooth="yes"/>
      <point x="1291" y="934"/>
      <point x="1093" y="1183"/>
      <point x="707" y="1183" type="curve" smooth="yes"/>
      <point x="329" y="1183"/>
      <point x="128" y="942"/>
      <point x="128" y="583" type="curve" smooth="yes"/>
      <point x="128" y="235"/>
      <point x="330" y="-18"/>
    </contour>
  </outline>
</glyph>
<glyph name="one" format="1">
  <advance width="924"/>
  <unicode hex="0031"/>
  <outline>
    <contour>
      <point x="407" y="0" type="line"/>
      <point x="710" y="0" type="line"/>
      <point x="710" y="1165" type="line"/>
      <point x="419" y="1165" type="line"/>
      <point x="118" y="1018" type="line"/>
      <point x="201" y="822" type="line"/>
      <point x="407" y="918" type="line"/>
    </contour>
  </outline>
</glyph>
<glyph name="two" format="1">
  <advance width="1134"/>
  <unicode hex="0032"/>
  <outline>
    <contour>
      <point x="146" y="0" type="line"/>
      <point x="987" y="0" type="line"/>
      <point x="987" y="225" type="line"/>
      <point x="535" y="225" type="line"/>
      <point x="722" y="381" type="line" smooth="yes"/>
      <point x="909" y="543"/>
      <point x="994" y="663"/>
      <point x="994" y="828" type="curve" smooth="yes"/>
      <point x="994" y="1081"/>
      <point x="789" y="1183"/>
      <point x="564" y="1183" type="curve" smooth="yes"/>
      <point x="412" y="1183"/>
      <point x="256" y="1139"/>
      <point x="133" y="1067" type="curve"/>
      <point x="212" y="866" type="line"/>
      <point x="309" y="917"/>
      <point x="424" y="954"/>
      <point x="522" y="954" type="curve" smooth="yes"/>
      <point x="630" y="954"/>
      <point x="714" y="911"/>
      <point x="714" y="793" type="curve" smooth="yes"/>
      <point x="714" y="668"/>
      <point x="565" y="555"/>
      <point x="479" y="479" type="curve" smooth="yes"/>
      <point x="146" y="186" type="line"/>
    </contour>
  </outline>
</glyph>
<glyph name="three" format="1">
  <advance width="1216"/>
  <unicode hex="0033"/>
  <outline>
    <contour>
      <point x="587" y="-212" type="curve" smooth="yes"/>
      <point x="828" y="-212"/>
      <point x="1061" y="-100"/>
      <point x="1061" y="179" type="curve" smooth="yes"/>
      <point x="1061" y="313"/>
      <point x="983" y="484"/>
      <point x="770" y="523" type="curve"/>
      <point x="919" y="540"/>
      <point x="1015" y="685"/>
      <point x="1018" y="824" type="curve" smooth="yes"/>
      <point x="1022" y="1084"/>
      <point x="807" y="1183"/>
      <point x="574" y="1183" type="curve" smooth="yes"/>
      <point x="441" y="1182"/>
      <point x="288" y="1144"/>
      <point x="163" y="1083" type="curve"/>
      <point x="255" y="881" type="line"/>
      <point x="350" y="930"/>
      <point x="445" y="956"/>
      <point x="533" y="956" type="curve" smooth="yes"/>
      <point x="665" y="956"/>
      <point x="749" y="908"/>
      <point x="749" y="792" type="curve" smooth="yes"/>
      <point x="749" y="659"/>
      <point x="625" y="613"/>
      <point x="463" y="613" type="curve"/>
      <point x="463" y="414" type="line"/>
      <point x="644" y="409"/>
      <point x="770" y="345"/>
      <point x="770" y="200" type="curve" smooth="yes"/>
      <point x="770" y="65"/>
      <point x="672" y="11"/>
      <point x="542" y="11" type="curve" smooth="yes"/>
      <point x="448" y="11"/>
      <point x="336" y="41"/>
      <point x="243" y="90" type="curve"/>
      <point x="167" y="-119" type="line"/>
      <point x="298" y="-177"/>
      <point x="446" y="-212"/>
    </contour>
  </outline>
</glyph>
<glyph name="four" format="1">
  <advance width="1248"/>
  <unicode hex="0034"/>
  <outline>
    <contour>
      <point x="724" y="-229" type="line"/>
      <point x="979" y="-229" type="line"/>
      <point x="979" y="62" type="line"/>
      <point x="1161" y="62" type="line"/>
      <point x="1161" y="270" type="line"/>
      <point x="979" y="270" type="line"/>
      <point x="979" y="1156" type="line"/>
      <point x="752" y="1214" type="line"/>
      <point x="93" y="245" type="line"/>
      <point x="131" y="62" type="line"/>
      <point x="724" y="62" type="line"/>
    </contour>
    <contour>
      <point x="369" y="269" type="line"/>
      <point x="724" y="824" type="line"/>
      <point x="724" y="269" type="line"/>
    </contour>
  </outline>
</glyph>
<glyph name="five" format="1">
  <advance width="1223"/>
  <unicode hex="0035"/>
  <outline>
    <contour>
      <point x="570" y="-193" type="curve" smooth="yes"/>
      <point x="859" y="-193"/>
      <point x="1069" y="-16"/>
      <point x="1069" y="266" type="curve" smooth="yes"/>
      <point x="1069" y="545"/>
      <point x="890" y="726"/>
      <point x="608" y="726" type="curve" smooth="yes"/>
      <point x="532" y="726"/>
      <point x="451" y="693"/>
      <point x="437" y="674" type="curve"/>
      <point x="437" y="947" type="line"/>
      <point x="984" y="947" type="line"/>
      <point x="984" y="1165" type="line"/>
      <point x="195" y="1165" type="line"/>
      <point x="195" y="542" type="line"/>
      <point x="314" y="433" type="line"/>
      <point x="409" y="484"/>
      <point x="502" y="518"/>
      <point x="578" y="518" type="curve" smooth="yes"/>
      <point x="727" y="518"/>
      <point x="805" y="419"/>
      <point x="805" y="266" type="curve" smooth="yes"/>
      <point x="805" y="115"/>
      <point x="714" y="43"/>
      <point x="555" y="43" type="curve" smooth="yes"/>
      <point x="420" y="43"/>
      <point x="306" y="82"/>
      <point x="207" y="121" type="curve"/>
      <point x="162" y="-100" type="line"/>
      <point x="285" y="-153"/>
      <point x="434" y="-193"/>
    </contour>
  </outline>
</glyph>
<glyph name="six" format="1">
  <advance width="1293"/>
  <unicode hex="0036"/>
  <outline>
    <contour>
      <point x="679" y="-75" type="curve" smooth="yes"/>
      <point x="988" y="-75"/>
      <point x="1180" y="124"/>
      <point x="1180" y="412" type="curve" smooth="yes"/>
      <point x="1180" y="678"/>
      <point x="1010" y="881"/>
      <point x="721" y="881" type="curve" smooth="yes"/>
      <point x="617" y="881"/>
      <point x="508" y="848"/>
      <point x="446" y="788" type="curve"/>
      <point x="514" y="1001"/>
      <point x="751" y="1159"/>
      <point x="973" y="1198" type="curve"/>
      <point x="904" y="1429" type="line"/>
      <point x="486" y="1327"/>
      <point x="129" y="1022"/>
      <point x="141" y="488" type="curve" smooth="yes"/>
      <point x="147" y="174"/>
      <point x="329" y="-75"/>
    </contour>
    <contour>
      <point x="673" y="144" type="curve" smooth="yes"/>
      <point x="470" y="144"/>
      <point x="406" y="292"/>
      <point x="406" y="462" type="curve" smooth="yes"/>
      <point x="406" y="500"/>
      <point x="409" y="532"/>
      <point x="417" y="569" type="curve"/>
      <point x="480" y="626"/>
      <point x="577" y="671"/>
      <point x="692" y="671" type="curve" smooth="yes"/>
      <point x="844" y="671"/>
      <point x="921" y="559"/>
      <point x="921" y="415" type="curve" smooth="yes"/>
      <point x="921" y="258"/>
      <point x="831" y="144"/>
    </contour>
  </outline>
</glyph>
<glyph name="seven" format="1">
  <advance width="1141"/>
  <unicode hex="0037"/>
  <outline>
    <contour>
      <point x="492" y="-248" type="line"/>
      <point x="1076" y="1001" type="line"/>
      <point x="1001" y="1165" type="line"/>
      <point x="135" y="1165" type="line"/>
      <point x="135" y="936" type="line"/>
      <point x="730" y="936" type="line"/>
      <point x="231" y="-132" type="line"/>
    </contour>
  </outline>
</glyph>
<glyph name="eight" format="1">
  <advance width="1319"/>
  <unicode hex="0038"/>
  <outline>
    <contour>
      <point x="658" y="-149" type="curve" smooth="yes"/>
      <point x="937" y="-149"/>
      <point x="1158" y="-12"/>
      <point x="1158" y="260" type="curve" smooth="yes"/>
      <point x="1158" y="436"/>
      <point x="1035" y="571"/>
      <point x="876" y="602" type="curve"/>
      <point x="1029" y="639"/>
      <point x="1130" y="763"/>
      <point x="1130" y="929" type="curve" smooth="yes"/>
      <point x="1130" y="1166"/>
      <point x="940" y="1311"/>
      <point x="658" y="1311" type="curve" smooth="yes"/>
      <point x="373" y="1311"/>
      <point x="183" y="1167"/>
      <point x="183" y="929" type="curve" smooth="yes"/>
      <point x="183" y="764"/>
      <point x="284" y="639"/>
      <point x="435" y="603" type="curve"/>
      <point x="279" y="571"/>
      <point x="153" y="438"/>
      <point x="153" y="261" type="curve" smooth="yes"/>
      <point x="153" y="-12"/>
      <point x="375" y="-149"/>
    </contour>
    <contour>
      <point x="658" y="81" type="curve" smooth="yes"/>
      <point x="515" y="81"/>
      <point x="435" y="149"/>
      <point x="435" y="271" type="curve" smooth="yes"/>
      <point x="435" y="418"/>
      <point x="517" y="513"/>
      <point x="658" y="513" type="curve" smooth="yes"/>
      <point x="798" y="513"/>
      <point x="876" y="416"/>
      <point x="876" y="271" type="curve" smooth="yes"/>
      <point x="876" y="149"/>
      <point x="799" y="81"/>
    </contour>
    <contour>
      <point x="658" y="721" type="curve" smooth="yes"/>
      <point x="531" y="721"/>
      <point x="458" y="789"/>
      <point x="458" y="919" type="curve" smooth="yes"/>
      <point x="458" y="1022"/>
      <point x="522" y="1090"/>
      <point x="658" y="1090" type="curve" smooth="yes"/>
      <point x="789" y="1090"/>
      <point x="854" y="1023"/>
      <point x="854" y="919" type="curve" smooth="yes"/>
      <point x="854" y="790"/>
      <point x="785" y="721"/>
    </contour>
  </outline>
</glyph>
<glyph name="nine" format="1">
  <advance width="1292"/>
  <unicode hex="0039"/>
  <outline>
    <contour>
      <point x="412" y="-327" type="line"/>
      <point x="860" y="-215"/>
      <point x="1175" y="95"/>
      <point x="1175" y="599" type="curve" smooth="yes"/>
      <point x="1175" y="882"/>
      <point x="1053" y="1183"/>
      <point x="642" y="1183" type="curve" smooth="yes"/>
      <point x="333" y="1183"/>
      <point x="136" y="984"/>
      <point x="136" y="696" type="curve" smooth="yes"/>
      <point x="136" y="428"/>
      <point x="305" y="220"/>
      <point x="595" y="220" type="curve" smooth="yes"/>
      <point x="710" y="220"/>
      <point x="812" y="254"/>
      <point x="869" y="315" type="curve"/>
      <point x="803" y="105"/>
      <point x="585" y="-49"/>
      <point x="340" y="-98" type="curve"/>
    </contour>
    <contour>
      <point x="622" y="432" type="curve" smooth="yes"/>
      <point x="467" y="432"/>
      <point x="390" y="552"/>
      <point x="390" y="691" type="curve" smooth="yes"/>
      <point x="390" y="839"/>
      <point x="478" y="963"/>
      <point x="643" y="965" type="curve" smooth="yes"/>
      <point x="850" y="968"/>
      <point x="911" y="810"/>
      <point x="911" y="644" type="curve" smooth="yes"/>
      <point x="911" y="605"/>
      <point x="908" y="566"/>
      <point x="900" y="528" type="curve"/>
      <point x="837" y="470"/>
      <point x="704" y="432"/>
    </contour>
  </outline>
</glyph>
<glyph name="colon" format="1">
  <advance width="787"/>
  <unicode hex="003A"/>
  <outline>
    <contour>
      <point x="210" y="0" type="line"/>
      <point x="573" y="0" type="line"/>
      <point x="573" y="390" type="line"/>
      <point x="210" y="390" type="line"/>
    </contour>
    <contour>
      <point x="210" y="693" type="line"/>
      <point x="573" y="693" type="line"/>
      <point x="573" y="1080" type="line"/>
      <point x="210" y="1080" type="line"/>
    </contour>
  </outline>
</glyph>
<glyph name="semicolon" format="1">
  <advance width="778"/>
  <unicode hex="003B"/>
  <outline>
    <contour>
      <point x="277" y="-292" type="line"/>
      <point x="438" y="-244"/>
      <point x="594" y="-166"/>
      <point x="594" y="50" type="curve" smooth="yes"/>
      <point x="594" y="381" type="line"/>
      <point x="217" y="381" type="line"/>
      <point x="217" y="0" type="line"/>
      <point x="382" y="0" type="line"/>
      <point x="382" y="-100"/>
      <point x="333" y="-142"/>
      <point x="218" y="-183" type="curve"/>
    </contour>
    <contour>
      <point x="215" y="693" type="line"/>
      <point x="592" y="693" type="line"/>
      <point x="592" y="1080" type="line"/>
      <point x="215" y="1080" type="line"/>
    </contour>
  </outline>
</glyph>
<glyph name="less" format="1">
  <advance width="1499"/>
  <unicode hex="003C"/>
  <outline>
    <contour>
      <point x="1194" y="110" type="line"/>
      <point x="1318" y="302" type="line"/>
      <point x="609" y="753" type="line"/>
      <point x="1318" y="1204" type="line"/>
      <point x="1194" y="1396" type="line"/>
      <point x="157" y="753" type="line"/>
    </contour>
  </outline>
</glyph>
<glyph name="equal" format="1">
  <advance width="1138"/>
  <unicode hex="003D"/>
  <outline>
    <contour>
      <point x="95" y="296" type="line"/>
      <point x="1015" y="296" type="line"/>
      <point x="1015" y="501" type="line"/>
      <point x="95" y="501" type="line"/>
    </contour>
    <contour>
      <point x="95" y="659" type="line"/>
      <point x="1015" y="659" type="line"/>
      <point x="1015" y="863" type="line"/>
      <point x="95" y="863" type="line"/>
    </contour>
  </outline>
</glyph>
<glyph name="greater" format="1">
  <advance width="1499"/>
  <unicode hex="003E"/>
  <outline>
    <contour>
      <point x="324" y="110" type="line"/>
      <point x="1361" y="753" type="line"/>
      <point x="324" y="1396" type="line"/>
      <point x="201" y="1204" type="line"/>
      <point x="909" y="753" type="line"/>
      <point x="201" y="302" type="line"/>
    </contour>
  </outline>
</glyph>
<glyph name="question" format="1">
  <advance width="1114"/>
  <unicode hex="003F"/>
  <outline>
    <contour>
      <point x="237" y="458" type="line"/>
      <point x="483" y="458" type="line"/>
      <point x="483" y="669" type="line"/>
      <point x="798" y="755"/>
      <point x="1012" y="879"/>
      <point x="1012" y="1166" type="curve" smooth="yes"/>
      <point x="1012" y="1461"/>
      <point x="764" y="1576"/>
      <point x="491" y="1576" type="curve" smooth="yes"/>
      <point x="334" y="1576"/>
      <point x="168" y="1538"/>
      <point x="38" y="1474" type="curve"/>
      <point x="109" y="1257" type="line"/>
      <point x="198" y="1300"/>
      <point x="338" y="1336"/>
      <point x="459" y="1336" type="curve" smooth="yes"/>
      <point x="599" y="1336"/>
      <point x="715" y="1286"/>
      <point x="715" y="1150" type="curve" smooth="yes"/>
      <point x="715" y="952"/>
      <point x="443" y="869"/>
      <point x="237" y="814" type="curve"/>
    </contour>
    <contour>
      <point x="364" y="-50" type="curve" smooth="yes"/>
      <point x="472" y="-50"/>
      <point x="540" y="15"/>
      <point x="540" y="118" type="curve" smooth="yes"/>
      <point x="540" y="221"/>
      <point x="473" y="287"/>
      <point x="366" y="287" type="curve" smooth="yes"/>
      <point x="258" y="287"/>
      <point x="189" y="223"/>
      <point x="189" y="120" type="curve" smooth="yes"/>
      <point x="189" y="15"/>
      <point x="257" y="-50"/>
    </contour>
  </outline>
</glyph>
<glyph name="at" format="1">
  <advance width="1993"/>
  <unicode hex="0040"/>
  <outline>
    <contour>
      <point x="995" y="-143" type="curve" smooth="yes"/>
      <point x="1168" y="-143"/>
      <point x="1365" y="-108"/>
      <point x="1493" y="-54" type="curve"/>
      <point x="1443" y="96" type="line"/>
      <point x="1324" y="40"/>
      <point x="1150" y="6"/>
      <point x="995" y="6" type="curve" smooth="yes"/>
      <point x="555" y="6"/>
      <point x="300" y="263"/>
      <point x="295" y="685" type="curve" smooth="yes"/>
      <point x="288" y="1162"/>
      <point x="602" y="1464"/>
      <point x="1068" y="1464" type="curve" smooth="yes"/>
      <point x="1485" y="1464"/>
      <point x="1744" y="1229"/>
      <point x="1744" y="850" type="curve" smooth="yes"/>
      <point x="1744" y="562"/>
      <point x="1654" y="388"/>
      <point x="1520" y="388" type="curve" smooth="yes"/>
      <point x="1488" y="388"/>
      <point x="1468" y="414"/>
      <point x="1473" y="463" type="curve" smooth="yes"/>
      <point x="1526" y="1071" type="line" smooth="yes"/>
      <point x="1536" y="1187"/>
      <point x="1389" y="1257"/>
      <point x="1160" y="1257" type="curve" smooth="yes"/>
      <point x="757" y="1257"/>
      <point x="487" y="1004"/>
      <point x="503" y="606" type="curve" smooth="yes"/>
      <point x="513" y="384"/>
      <point x="644" y="240"/>
      <point x="868" y="240" type="curve" smooth="yes"/>
      <point x="1098" y="240"/>
      <point x="1286" y="409"/>
      <point x="1358" y="674" type="curve"/>
      <point x="1341" y="677" type="line"/>
      <point x="1339" y="621"/>
      <point x="1325" y="511"/>
      <point x="1325" y="433" type="curve" smooth="yes"/>
      <point x="1325" y="325"/>
      <point x="1393" y="255"/>
      <point x="1500" y="255" type="curve" smooth="yes"/>
      <point x="1754" y="255"/>
      <point x="1912" y="488"/>
      <point x="1912" y="850" type="curve" smooth="yes"/>
      <point x="1912" y="1316"/>
      <point x="1585" y="1612"/>
      <point x="1068" y="1612" type="curve" smooth="yes"/>
      <point x="481" y="1612"/>
      <point x="95" y="1240"/>
      <point x="111" y="662" type="curve" smooth="yes"/>
      <point x="126" y="166"/>
      <point x="454" y="-143"/>
    </contour>
    <contour>
      <point x="895" y="383" type="curve" smooth="yes"/>
      <point x="762" y="382"/>
      <point x="688" y="472"/>
      <point x="680" y="622" type="curve" smooth="yes"/>
      <point x="663" y="935"/>
      <point x="864" y="1128"/>
      <point x="1159" y="1130" type="curve" smooth="yes"/>
      <point x="1216" y="1130"/>
      <point x="1296" y="1116"/>
      <point x="1369" y="1092" type="curve"/>
      <point x="1322" y="655"/>
      <point x="1136" y="384"/>
    </contour>
  </outline>
</glyph>
<glyph name="A" format="1">
  <advance width="1482"/>
  <unicode hex="0041"/>
  <outline>
    <contour>
      <point x="742" y="1578" type="move" name="top"/>
    </contour>
    <contour>
      <point x="1277" y="0" type="move" name="ogonek"/>
    </contour>
    <contour>
      <point x="31" y="0" type="line"/>
      <point x="345" y="0" type="line"/>
      <point x="460" y="359" type="line"/>
      <point x="1017" y="359" type="line"/>
      <point x="1132" y="0" type="line"/>
      <point x="1446" y="0" type="line"/>
      <point x="927" y="1578" type="line"/>
      <point x="550" y="1578" type="line"/>
    </contour>
    <contour>
      <point x="503" y="515" type="line"/>
      <point x="743" y="1270" type="line"/>
      <point x="974" y="515" type="line"/>
    </contour>
  </outline>
</glyph>
<glyph name="B" format="1">
  <advance width="1487"/>
  <unicode hex="0042"/>
  <outline>
    <contour>
      <point x="704" y="1578" type="move" name="top"/>
    </contour>
    <contour>
      <point x="185" y="0" type="line"/>
      <point x="695" y="0" type="line"/>
      <point x="1030" y="0"/>
      <point x="1373" y="59"/>
      <point x="1373" y="453" type="curve" smooth="yes"/>
      <point x="1373" y="709"/>
      <point x="1211" y="802"/>
      <point x="994" y="839" type="curve"/>
      <point x="1168" y="865"/>
      <point x="1303" y="971"/>
      <point x="1308" y="1168" type="curve" smooth="yes"/>
      <point x="1320" y="1563"/>
      <point x="962" y="1578"/>
      <point x="655" y="1578" type="curve" smooth="yes"/>
      <point x="185" y="1578" type="line"/>
    </contour>
    <contour>
      <point x="504" y="219" type="line"/>
      <point x="504" y="726" type="line"/>
      <point x="677" y="726" type="line" smooth="yes"/>
      <point x="877" y="726"/>
      <point x="1064" y="709"/>
      <point x="1064" y="463" type="curve" smooth="yes"/>
      <point x="1064" y="210"/>
      <point x="851" y="219"/>
      <point x="663" y="219" type="curve" smooth="yes"/>
    </contour>
    <contour>
      <point x="504" y="925" type="line"/>
      <point x="504" y="1360" type="line"/>
      <point x="661" y="1360" type="line" smooth="yes"/>
      <point x="820" y="1360"/>
      <point x="1030" y="1366"/>
      <point x="1030" y="1153" type="curve" smooth="yes"/>
      <point x="1030" y="952"/>
      <point x="835" y="925"/>
      <point x="676" y="925" type="curve" smooth="yes"/>
    </contour>
  </outline>
</glyph>
<glyph name="C" format="1">
  <advance width="1353"/>
  <unicode hex="0043"/>
  <outline>
    <contour>
      <point x="849" y="1578" type="move" name="top"/>
    </contour>
    <contour>
      <point x="794" y="0" type="move" name="bot"/>
    </contour>
    <contour>
      <point x="841" y="-20" type="curve" smooth="yes"/>
      <point x="999" y="-20"/>
      <point x="1148" y="24"/>
      <point x="1283" y="96" type="curve"/>
      <point x="1196" y="303" type="line"/>
      <point x="1109" y="256"/>
      <point x="1003" y="222"/>
      <point x="898" y="222" type="curve" smooth="yes"/>
      <point x="597" y="222"/>
      <point x="444" y="448"/>
      <point x="444" y="782" type="curve" smooth="yes"/>
      <point x="444" y="1126"/>
      <point x="600" y="1361"/>
      <point x="902" y="1361" type="curve" smooth="yes"/>
      <point x="1007" y="1361"/>
      <point x="1112" y="1326"/>
      <point x="1191" y="1284" type="curve"/>
      <point x="1277" y="1490" type="line"/>
      <point x="1168" y="1551"/>
      <point x="1025" y="1599"/>
      <point x="863" y="1599" type="curve" smooth="yes"/>
      <point x="422" y="1599"/>
      <point x="122" y="1311"/>
      <point x="122" y="790" type="curve" smooth="yes"/>
      <point x="122" y="290"/>
      <point x="391" y="-20"/>
    </contour>
  </outline>
</glyph>
<glyph name="D" format="1">
  <advance width="1613"/>
  <unicode hex="0044"/>
  <outline>
    <contour>
      <point x="784" y="1578" type="move" name="top"/>
    </contour>
    <contour>
      <point x="360" y="829" type="move" name="mid"/>
    </contour>
    <contour>
      <point x="504" y="223" type="line"/>
      <point x="504" y="1356" type="line"/>
      <point x="695" y="1356" type="line" smooth="yes"/>
      <point x="1065" y="1356"/>
      <point x="1172" y="1134"/>
      <point x="1172" y="786" type="curve" smooth="yes"/>
      <point x="1172" y="436"/>
      <point x="1068" y="223"/>
      <point x="695" y="223" type="curve" smooth="yes"/>
    </contour>
    <contour>
      <point x="185" y="0" type="line"/>
      <point x="715" y="0" type="line" smooth="yes"/>
      <point x="1230" y="0"/>
      <point x="1494" y="276"/>
      <point x="1494" y="784" type="curve" smooth="yes"/>
      <point x="1494" y="1296"/>
      <point x="1238" y="1578"/>
      <point x="715" y="1578" type="curve" smooth="yes"/>
      <point x="185" y="1578" type="line"/>
    </contour>
  </outline>
</glyph>
<glyph name="E" format="1">
  <advance width="1304"/>
  <unicode hex="0045"/>
  <outline>
    <contour>
      <point x="729" y="1578" type="move" name="top"/>
    </contour>
    <contour>
      <point x="920" y="0" type="move" name="ogonek"/>
    </contour>
    <contour>
      <point x="761" y="0" type="move" name="bot"/>
    </contour>
    <contour>
      <point x="185" y="0" type="line"/>
      <point x="1184" y="0" type="line"/>
      <point x="1184" y="233" type="line"/>
      <point x="504" y="233" type="line"/>
      <point x="504" y="710" type="line"/>
      <point x="1105" y="710" type="line"/>
      <point x="1105" y="910" type="line"/>
      <point x="504" y="910" type="line"/>
      <point x="504" y="1345" type="line"/>
      <point x="1194" y="1345" type="line"/>
      <point x="1194" y="1578" type="line"/>
      <point x="185" y="1578" type="line"/>
    </contour>
  </outline>
</glyph>
<glyph name="F" format="1">
  <advance width="1249"/>
  <unicode hex="0046"/>
  <outline>
    <contour>
      <point x="733" y="1578" type="move" name="top"/>
    </contour>
    <contour>
      <point x="185" y="0" type="line"/>
      <point x="504" y="0" type="line"/>
      <point x="504" y="685" type="line"/>
      <point x="1109" y="685" type="line"/>
      <point x="1109" y="881" type="line"/>
      <point x="504" y="881" type="line"/>
      <point x="504" y="1345" type="line"/>
      <point x="1163" y="1345" type="line"/>
      <point x="1163" y="1578" type="line"/>
      <point x="185" y="1578" type="line"/>
    </contour>
  </outline>
</glyph>
<glyph name="G" format="1">
  <advance width="1581"/>
  <unicode hex="0047"/>
  <outline>
    <contour>
      <point x="824" y="0" type="move" name="bot"/>
    </contour>
    <contour>
      <point x="785" y="-20" type="curve" smooth="yes"/>
      <point x="972" y="-20"/>
      <point x="1146" y="56"/>
      <point x="1183" y="183" type="curve"/>
      <point x="1234" y="0" type="line"/>
      <point x="1415" y="0" type="line"/>
      <point x="1415" y="860" type="line"/>
      <point x="837" y="860" type="line"/>
      <point x="837" y="663" type="line"/>
      <point x="1144" y="663" type="line"/>
      <point x="1144" y="358" type="line" smooth="yes"/>
      <point x="1105" y="254"/>
      <point x="973" y="211"/>
      <point x="849" y="211" type="curve" smooth="yes"/>
      <point x="556" y="211"/>
      <point x="444" y="423"/>
      <point x="444" y="772" type="curve" smooth="yes"/>
      <point x="444" y="1130"/>
      <point x="561" y="1365"/>
      <point x="870" y="1367" type="curve" smooth="yes"/>
      <point x="1013" y="1368"/>
      <point x="1146" y="1323"/>
      <point x="1252" y="1258" type="curve"/>
      <point x="1342" y="1464" type="line"/>
      <point x="1197" y="1546"/>
      <point x="1035" y="1599"/>
      <point x="860" y="1599" type="curve" smooth="yes"/>
      <point x="409" y="1599"/>
      <point x="122" y="1314"/>
      <point x="122" y="775" type="curve" smooth="yes"/>
      <point x="122" y="304"/>
      <point x="362" y="-20"/>
    </contour>
  </outline>
</glyph>
<glyph name="H" format="1">
  <advance width="1644"/>
  <unicode hex="0048"/>
  <outline>
    <contour>
      <point x="834" y="1578" type="move" name="top"/>
    </contour>
    <contour>
      <point x="185" y="0" type="line"/>
      <point x="504" y="0" type="line"/>
      <point x="504" y="715" type="line"/>
      <point x="1139" y="715" type="line"/>
      <point x="1139" y="0" type="line"/>
      <point x="1459" y="0" type="line"/>
      <point x="1459" y="1578" type="line"/>
      <point x="1139" y="1578" type="line"/>
      <point x="1139" y="923" type="line"/>
      <point x="504" y="923" type="line"/>
      <point x="504" y="1578" type="line"/>
      <point x="185" y="1578" type="line"/>
    </contour>
  </outline>
</glyph>
<glyph name="I" format="1">
  <advance width="1016"/>
  <unicode hex="0049"/>
  <outline>
    <contour>
      <point x="512" y="1578" type="move" name="top"/>
    </contour>
    <contour>
      <point x="162" y="0" type="line"/>
      <point x="850" y="0" type="line"/>
      <point x="850" y="204" type="line"/>
      <point x="663" y="204" type="line"/>
      <point x="663" y="1373" type="line"/>
      <point x="850" y="1373" type="line"/>
      <point x="850" y="1578" type="line"/>
      <point x="162" y="1578" type="line"/>
      <point x="162" y="1373" type="line"/>
      <point x="348" y="1373" type="line"/>
      <point x="348" y="204" type="line"/>
      <point x="162" y="204" type="line"/>
    </contour>
  </outline>
</glyph>
<glyph name="J" format="1">
  <advance width="874"/>
  <unicode hex="004A"/>
  <outline>
    <contour>
      <point x="521" y="1578" type="move" name="top"/>
    </contour>
    <contour>
      <point x="93" y="-255" type="line"/>
      <point x="520" y="-230"/>
      <point x="675" y="-44"/>
      <point x="675" y="365" type="curve" smooth="yes"/>
      <point x="675" y="1578" type="line"/>
      <point x="354" y="1578" type="line"/>
      <point x="354" y="366" type="line" smooth="yes"/>
      <point x="354" y="95"/>
      <point x="298" y="9"/>
      <point x="40" y="-30" type="curve"/>
    </contour>
  </outline>
</glyph>
<glyph name="K" format="1">
  <advance width="1462"/>
  <unicode hex="004B"/>
  <outline>
    <contour>
      <point x="766" y="1578" type="move" name="top"/>
    </contour>
    <contour>
      <point x="767" y="0" type="move" name="bot"/>
    </contour>
    <contour>
      <point x="185" y="0" type="line"/>
      <point x="504" y="0" type="line"/>
      <point x="504" y="710" type="line"/>
      <point x="534" y="710" type="line"/>
      <point x="1085" y="0" type="line"/>
      <point x="1465" y="0" type="line"/>
      <point x="835" y="797" type="line"/>
      <point x="1426" y="1578" type="line"/>
      <point x="1074" y="1578" type="line"/>
      <point x="533" y="883" type="line"/>
      <point x="504" y="883" type="line"/>
      <point x="504" y="1578" type="line"/>
      <point x="185" y="1578" type="line"/>
    </contour>
  </outline>
</glyph>
<glyph name="L" format="1">
  <advance width="1183"/>
  <unicode hex="004C"/>
  <outline>
    <contour>
      <point x="379" y="1578" type="move" name="top"/>
    </contour>
    <contour>
      <point x="493" y="1165" type="move" name="caron.alt"/>
    </contour>
    <contour>
      <point x="688" y="0" type="move" name="bot"/>
    </contour>
    <contour>
      <point x="355" y="910" type="move" name="mid"/>
    </contour>
    <contour>
      <point x="185" y="0" type="line"/>
      <point x="1161" y="0" type="line"/>
      <point x="1161" y="233" type="line"/>
      <point x="504" y="233" type="line"/>
      <point x="504" y="1578" type="line"/>
      <point x="185" y="1578" type="line"/>
    </contour>
  </outline>
</glyph>
<glyph name="M" format="1">
  <advance width="2001"/>
  <unicode hex="004D"/>
  <outline>
    <contour>
      <point x="1007" y="1578" type="move" name="top"/>
    </contour>
    <contour>
      <point x="185" y="0" type="line"/>
      <point x="454" y="0" type="line"/>
      <point x="454" y="1143" type="line"/>
      <point x="863" y="54" type="line"/>
      <point x="1139" y="54" type="line"/>
      <point x="1548" y="1143" type="line"/>
      <point x="1548" y="0" type="line"/>
      <point x="1816" y="0" type="line"/>
      <point x="1816" y="1578" type="line"/>
      <point x="1443" y="1578" type="line"/>
      <point x="996" y="411" type="line"/>
      <point x="557" y="1578" type="line"/>
      <point x="185" y="1578" type="line"/>
    </contour>
  </outline>
</glyph>
<glyph name="N" format="1">
  <advance width="1679"/>
  <unicode hex="004E"/>
  <outline>
    <contour>
      <point x="861" y="1578" type="move" name="top"/>
    </contour>
    <contour>
      <point x="873" y="0" type="move" name="bot"/>
    </contour>
    <contour>
      <point x="185" y="0" type="line"/>
      <point x="469" y="0" type="line"/>
      <point x="469" y="1166" type="line"/>
      <point x="1147" y="0" type="line"/>
      <point x="1494" y="0" type="line"/>
      <point x="1494" y="1578" type="line"/>
      <point x="1211" y="1578" type="line"/>
      <point x="1211" y="423" type="line"/>
      <point x="542" y="1578" type="line"/>
      <point x="185" y="1578" type="line"/>
    </contour>
  </outline>
</glyph>
<glyph name="O" format="1">
  <advance width="1638"/>
  <unicode hex="004F"/>
  <outline>
    <contour>
      <point x="828" y="1578" type="move" name="top"/>
    </contour>
    <contour>
      <point x="885" y="0" type="move" name="ogonek"/>
    </contour>
    <contour>
      <point x="819" y="208" type="curve" smooth="yes"/>
      <point x="517" y="208"/>
      <point x="443" y="479"/>
      <point x="443" y="788" type="curve" smooth="yes"/>
      <point x="443" y="1095"/>
      <point x="517" y="1367"/>
      <point x="819" y="1367" type="curve" smooth="yes"/>
      <point x="1121" y="1367"/>
      <point x="1195" y="1097"/>
      <point x="1195" y="788" type="curve" smooth="yes"/>
      <point x="1195" y="483"/>
      <point x="1123" y="208"/>
    </contour>
    <contour>
      <point x="819" y="-20" type="curve" smooth="yes"/>
      <point x="1305" y="-20"/>
      <point x="1517" y="300"/>
      <point x="1517" y="788" type="curve" smooth="yes"/>
      <point x="1517" y="1284"/>
      <point x="1299" y="1599"/>
      <point x="819" y="1599" type="curve" smooth="yes"/>
      <point x="343" y="1599"/>
      <point x="122" y="1281"/>
      <point x="122" y="788" type="curve" smooth="yes"/>
      <point x="122" y="300"/>
      <point x="333" y="-20"/>
    </contour>
  </outline>
</glyph>
<glyph name="P" format="1">
  <advance width="1431"/>
  <unicode hex="0050"/>
  <outline>
    <contour>
      <point x="674" y="1578" type="move" name="top"/>
    </contour>
    <contour>
      <point x="185" y="0" type="line"/>
      <point x="504" y="0" type="line"/>
      <point x="504" y="638" type="line"/>
      <point x="512" y="638"/>
      <point x="539" y="638"/>
      <point x="546" y="638" type="curve" smooth="yes"/>
      <point x="1028" y="638"/>
      <point x="1368" y="703"/>
      <point x="1368" y="1143" type="curve" smooth="yes"/>
      <point x="1368" y="1507"/>
      <point x="1106" y="1578"/>
      <point x="638" y="1578" type="curve" smooth="yes"/>
      <point x="185" y="1578" type="line"/>
    </contour>
    <contour>
      <point x="504" y="852" type="line"/>
      <point x="504" y="1377" type="line"/>
      <point x="634" y="1377" type="line" smooth="yes"/>
      <point x="910" y="1377"/>
      <point x="1052" y="1347"/>
      <point x="1052" y="1111" type="curve" smooth="yes"/>
      <point x="1052" y="883"/>
      <point x="849" y="852"/>
      <point x="605" y="852" type="curve" smooth="yes"/>
    </contour>
  </outline>
</glyph>
<glyph name="Q" format="1">
  <advance width="1638"/>
  <unicode hex="0051"/>
  <outline>
    <contour>
      <point x="1091" y="-443" type="line"/>
      <point x="1259" y="-305" type="line"/>
      <point x="1026" y="6" type="line"/>
      <point x="1368" y="83"/>
      <point x="1517" y="381"/>
      <point x="1517" y="789" type="curve" smooth="yes"/>
      <point x="1517" y="1284"/>
      <point x="1299" y="1599"/>
      <point x="819" y="1599" type="curve" smooth="yes"/>
      <point x="343" y="1599"/>
      <point x="122" y="1281"/>
      <point x="122" y="789" type="curve" smooth="yes"/>
      <point x="122" y="325"/>
      <point x="314" y="9"/>
      <point x="758" y="-16" type="curve"/>
    </contour>
    <contour>
      <point x="819" y="210" type="curve" smooth="yes"/>
      <point x="517" y="210"/>
      <point x="443" y="480"/>
      <point x="443" y="789" type="curve" smooth="yes"/>
      <point x="443" y="1098"/>
      <point x="517" y="1367"/>
      <point x="819" y="1367" type="curve" smooth="yes"/>
      <point x="1121" y="1367"/>
      <point x="1195" y="1100"/>
      <point x="1195" y="789" type="curve" smooth="yes"/>
      <point x="1195" y="484"/>
      <point x="1123" y="210"/>
    </contour>
  </outline>
</glyph>
<glyph name="R" format="1">
  <advance width="1552"/>
  <unicode hex="0052"/>
  <outline>
    <contour>
      <point x="715" y="1578" type="move" name="top"/>
    </contour>
    <contour>
      <point x="782" y="0" type="move" name="bot"/>
    </contour>
    <contour>
      <point x="185" y="0" type="line"/>
      <point x="504" y="0" type="line"/>
      <point x="504" y="695" type="line"/>
      <point x="730" y="695" type="line" smooth="yes"/>
      <point x="974" y="695"/>
      <point x="1037" y="646"/>
      <point x="1063" y="417" type="curve" smooth="yes"/>
      <point x="1109" y="0" type="line"/>
      <point x="1428" y="0" type="line"/>
      <point x="1375" y="478" type="line" smooth="yes"/>
      <point x="1353" y="688"/>
      <point x="1269" y="794"/>
      <point x="1088" y="815" type="curve"/>
      <point x="1276" y="840"/>
      <point x="1386" y="959"/>
      <point x="1386" y="1162" type="curve" smooth="yes"/>
      <point x="1386" y="1476"/>
      <point x="1203" y="1578"/>
      <point x="715" y="1578" type="curve" smooth="yes"/>
      <point x="185" y="1578" type="line"/>
    </contour>
    <contour>
      <point x="504" y="899" type="line"/>
      <point x="504" y="1377" type="line"/>
      <point x="678" y="1377" type="line" smooth="yes"/>
      <point x="921" y="1377"/>
      <point x="1073" y="1351"/>
      <point x="1073" y="1128" type="curve" smooth="yes"/>
      <point x="1073" y="934"/>
      <point x="898" y="899"/>
      <point x="707" y="899" type="curve" smooth="yes"/>
    </contour>
  </outline>
</glyph>
<glyph name="S" format="1">
  <advance width="1309"/>
  <unicode hex="0053"/>
  <outline>
    <contour>
      <point x="666" y="1578" type="move" name="top"/>
    </contour>
    <contour>
      <point x="673" y="0" type="move" name="bot"/>
    </contour>
    <contour>
      <point x="659" y="-19" type="curve" smooth="yes"/>
      <point x="1045" y="-19"/>
      <point x="1215" y="176"/>
      <point x="1215" y="451" type="curve" smooth="yes"/>
      <point x="1215" y="696"/>
      <point x="1117" y="815"/>
      <point x="839" y="916" type="curve" smooth="yes"/>
      <point x="580" y="1009" type="line" smooth="yes"/>
      <point x="469" y="1050"/>
      <point x="413" y="1095"/>
      <point x="415" y="1189" type="curve" smooth="yes"/>
      <point x="419" y="1308"/>
      <point x="514" y="1353"/>
      <point x="658" y="1353" type="curve" smooth="yes"/>
      <point x="787" y="1353"/>
      <point x="943" y="1311"/>
      <point x="1055" y="1257" type="curve"/>
      <point x="1148" y="1469" type="line"/>
      <point x="998" y="1554"/>
      <point x="811" y="1599"/>
      <point x="637" y="1599" type="curve" smooth="yes"/>
      <point x="352" y="1599"/>
      <point x="117" y="1475"/>
      <point x="113" y="1177" type="curve" smooth="yes"/>
      <point x="110" y="944"/>
      <point x="241" y="829"/>
      <point x="468" y="748" type="curve" smooth="yes"/>
      <point x="730" y="654" type="line" smooth="yes"/>
      <point x="890" y="597"/>
      <point x="932" y="547"/>
      <point x="927" y="423" type="curve" smooth="yes"/>
      <point x="921" y="274"/>
      <point x="814" y="226"/>
      <point x="655" y="226" type="curve" smooth="yes"/>
      <point x="483" y="226"/>
      <point x="295" y="302"/>
      <point x="211" y="355" type="curve"/>
      <point x="117" y="124" type="line"/>
      <point x="273" y="35"/>
      <point x="490" y="-19"/>
    </contour>
  </outline>
</glyph>
<glyph name="U" format="1">
  <advance width="1635"/>
  <unicode hex="0055"/>
  <outline>
    <contour>
      <point x="828" y="1578" type="move" name="top"/>
    </contour>
    <contour>
      <point x="895" y="0" type="move" name="ogonek"/>
    </contour>
    <contour>
      <point x="814" y="-20" type="curve" smooth="yes"/>
      <point x="1322" y="-20"/>
      <point x="1471" y="228"/>
      <point x="1471" y="729" type="curve" smooth="yes"/>
      <point x="1471" y="1578" type="line"/>
      <point x="1150" y="1578" type="line"/>
      <point x="1150" y="716" type="line" smooth="yes"/>
      <point x="1150" y="381"/>
      <point x="1103" y="211"/>
      <point x="814" y="211" type="curve" smooth="yes"/>
      <point x="531" y="211"/>
      <point x="483" y="380"/>
      <point x="483" y="716" type="curve" smooth="yes"/>
      <point x="483" y="1578" type="line"/>
      <point x="164" y="1578" type="line"/>
      <point x="164" y="729" type="line" smooth="yes"/>
      <point x="164" y="227"/>
      <point x="313" y="-20"/>
    </contour>
  </outline>
</glyph>
<glyph name="V" format="1">
  <advance width="1507"/>
  <unicode hex="0056"/>
  <outline>
    <contour>
      <point x="586" y="0" type="line"/>
      <point x="903" y="0" type="line"/>
      <point x="1466" y="1578" type="line"/>
      <point x="1157" y="1578" type="line"/>
      <point x="750" y="370" type="line"/>
      <point x="351" y="1578" type="line"/>
      <point x="41" y="1578" type="line"/>
    </contour>
  </outline>
</glyph>
<glyph name="W" format="1">
  <advance width="2153"/>
  <unicode hex="0057"/>
  <outline>
    <contour>
      <point x="1087" y="1578" type="move" name="top"/>
    </contour>
    <contour>
      <point x="424" y="0" type="line"/>
      <point x="757" y="0" type="line"/>
      <point x="1079" y="1156" type="line"/>
      <point x="1383" y="0" type="line"/>
      <point x="1719" y="0" type="line"/>
      <point x="2075" y="1578" type="line"/>
      <point x="1778" y="1578" type="line"/>
      <point x="1529" y="380" type="line"/>
      <point x="1230" y="1508" type="line"/>
      <point x="929" y="1508" type="line"/>
      <point x="616" y="380" type="line"/>
      <point x="373" y="1578" type="line"/>
      <point x="79" y="1578" type="line"/>
    </contour>
  </outline>
</glyph>
<glyph name="X" format="1">
  <advance width="1411"/>
  <unicode hex="0058"/>
  <outline>
    <contour>
      <point x="33" y="0" type="line"/>
      <point x="360" y="0" type="line"/>
      <point x="699" y="554" type="line"/>
      <point x="1041" y="0" type="line"/>
      <point x="1375" y="0" type="line"/>
      <point x="877" y="796" type="line"/>
      <point x="1369" y="1578" type="line"/>
      <point x="1054" y="1578" type="line"/>
      <point x="711" y="1026" type="line"/>
      <point x="370" y="1578" type="line"/>
      <point x="39" y="1578" type="line"/>
      <point x="523" y="800" type="line"/>
    </contour>
  </outline>
</glyph>
<glyph name="Y" format="1">
  <advance width="1342"/>
  <unicode hex="0059"/>
  <outline>
    <contour>
      <point x="686" y="1578" type="move" name="top"/>
    </contour>
    <contour>
      <point x="509" y="0" type="line"/>
      <point x="822" y="0" type="line"/>
      <point x="822" y="605" type="line"/>
      <point x="1332" y="1578" type="line"/>
      <point x="1017" y="1578" type="line"/>
      <point x="671" y="912" type="line"/>
      <point x="330" y="1578" type="line"/>
      <point x="11" y="1578" type="line"/>
      <point x="509" y="605" type="line"/>
    </contour>
  </outline>
</glyph>
<glyph name="Z" format="1">
  <advance width="1211"/>
  <unicode hex="005A"/>
  <outline>
    <contour>
      <point x="632" y="1578" type="move" name="top"/>
    </contour>
    <contour>
      <point x="103" y="0" type="line"/>
      <point x="1139" y="0" type="line"/>
      <point x="1139" y="233" type="line"/>
      <point x="449" y="233" type="line"/>
      <point x="1137" y="1387" type="line"/>
      <point x="1137" y="1578" type="line"/>
      <point x="119" y="1578" type="line"/>
      <point x="119" y="1348" type="line"/>
      <point x="791" y="1348" type="line"/>
      <point x="103" y="212" type="line"/>
    </contour>
  </outline>
</glyph>
<glyph name="bracketleft" format="1">
  <advance width="1005"/>
  <unicode hex="005B"/>
  <outline>
    <contour>
      <point x="179" y="-159" type="line"/>
      <point x="905" y="-159" type="line"/>
      <point x="905" y="17" type="line"/>
      <point x="473" y="17" type="line"/>
      <point x="473" y="1578" type="line"/>
      <point x="905" y="1578" type="line"/>
      <point x="905" y="1755" type="line"/>
      <point x="179" y="1755" type="line"/>
    </contour>
  </outline>
</glyph>
<glyph name="backslash" format="1">
  <advance width="1175"/>
  <unicode hex="005C"/>
  <outline>
    <contour>
      <point x="747" y="-154" type="line"/>
      <point x="1022" y="-58" type="line"/>
      <point x="436" y="1699" type="line"/>
      <point x="161" y="1606" type="line"/>
    </contour>
  </outline>
</glyph>
<glyph name="asciicircum" format="1">
  <advance width="1249"/>
  <unicode hex="005E"/>
  <outline>
    <contour>
      <point x="71" y="600" type="line"/>
      <point x="323" y="600" type="line"/>
      <point x="624" y="1287" type="line"/>
      <point x="925" y="600" type="line"/>
      <point x="1178" y="600" type="line"/>
      <point x="744" y="1578" type="line"/>
      <point x="505" y="1578" type="line"/>
    </contour>
  </outline>
</glyph>
<glyph name="underscore" format="1">
  <advance width="1141"/>
  <unicode hex="005F"/>
  <outline>
    <contour>
      <point x="80" y="-102" type="line"/>
      <point x="1061" y="-102" type="line"/>
      <point x="1061" y="128" type="line"/>
      <point x="80" y="128" type="line"/>
    </contour>
  </outline>
</glyph>
<glyph name="grave" format="1">
  <advance width="921"/>
  <unicode hex="0060"/>
  <outline>
    <contour>
      <point x="555" y="1165" type="move" name="_top"/>
    </contour>
    <contour>
      <point x="569" y="1358" type="line"/>
      <point x="658" y="1469" type="line"/>
      <point x="195" y="1898" type="line"/>
      <point x="23" y="1690" type="line"/>
    </contour>
  </outline>
</glyph>
<glyph name="a" format="1">
  <advance width="1256"/>
  <unicode hex="0061"/>
  <outline>
    <contour>
      <point x="622" y="1165" type="move" name="top"/>
    </contour>
    <contour>
      <point x="987" y="0" type="move" name="ogonek"/>
    </contour>
    <contour>
      <point x="484" y="-18" type="curve" smooth="yes"/>
      <point x="658" y="-18"/>
      <point x="766" y="73"/>
      <point x="825" y="176" type="curve"/>
      <point x="873" y="0" type="line"/>
      <point x="1107" y="0" type="line"/>
      <point x="1107" y="683" type="line" smooth="yes"/>
      <point x="1107" y="1032"/>
      <point x="975" y="1183"/>
      <point x="624" y="1183" type="curve" smooth="yes"/>
      <point x="452" y="1183"/>
      <point x="289" y="1140"/>
      <point x="153" y="1089" type="curve"/>
      <point x="215" y="895" type="line"/>
      <point x="321" y="939"/>
      <point x="442" y="974"/>
      <point x="579" y="974" type="curve" smooth="yes"/>
      <point x="769" y="974"/>
      <point x="803" y="880"/>
      <point x="803" y="719" type="curve" smooth="yes"/>
      <point x="803" y="675" type="line"/>
      <point x="733" y="693"/>
      <point x="634" y="704"/>
      <point x="545" y="704" type="curve" smooth="yes"/>
      <point x="317" y="704"/>
      <point x="96" y="620"/>
      <point x="94" y="351" type="curve" smooth="yes"/>
      <point x="92" y="103"/>
      <point x="243" y="-18"/>
    </contour>
    <contour>
      <point x="541" y="174" type="curve" smooth="yes"/>
      <point x="424" y="177"/>
      <point x="363" y="242"/>
      <point x="360" y="358" type="curve" smooth="yes"/>
      <point x="355" y="509"/>
      <point x="477" y="542"/>
      <point x="611" y="542" type="curve" smooth="yes"/>
      <point x="695" y="542"/>
      <point x="765" y="531"/>
      <point x="803" y="523" type="curve"/>
      <point x="803" y="288" type="line"/>
      <point x="729" y="222"/>
      <point x="647" y="171"/>
    </contour>
  </outline>
</glyph>
<glyph name="b" format="1">
  <advance width="1374"/>
  <unicode hex="0062"/>
  <outline>
    <contour>
      <point x="787" y="1165" type="move" name="top"/>
    </contour>
    <contour>
      <point x="779" y="-18" type="curve" smooth="yes"/>
      <point x="1072" y="-18"/>
      <point x="1274" y="219"/>
      <point x="1274" y="584" type="curve" smooth="yes"/>
      <point x="1274" y="955"/>
      <point x="1102" y="1183"/>
      <point x="817" y="1183" type="curve" smooth="yes"/>
      <point x="680" y="1183"/>
      <point x="560" y="1138"/>
      <point x="466" y="1059" type="curve"/>
      <point x="466" y="1631" type="line"/>
      <point x="159" y="1578" type="line"/>
      <point x="159" y="0" type="line"/>
      <point x="375" y="0" type="line"/>
      <point x="418" y="139" type="line"/>
      <point x="502" y="54"/>
      <point x="620" y="-18"/>
    </contour>
    <contour>
      <point x="716" y="178" type="curve" smooth="yes"/>
      <point x="607" y="178"/>
      <point x="530" y="219"/>
      <point x="466" y="285" type="curve"/>
      <point x="466" y="880" type="line"/>
      <point x="547" y="949"/>
      <point x="634" y="983"/>
      <point x="728" y="983" type="curve" smooth="yes"/>
      <point x="882" y="983"/>
      <point x="972" y="867"/>
      <point x="972" y="585" type="curve" smooth="yes"/>
      <point x="972" y="335"/>
      <point x="882" y="178"/>
    </contour>
  </outline>
</glyph>
<glyph name="c" format="1">
  <advance width="1115"/>
  <unicode hex="0063"/>
  <outline>
    <contour>
      <point x="633" y="1165" type="move" name="top"/>
    </contour>
    <contour>
      <point x="651" y="0" type="move" name="bot"/>
    </contour>
    <contour>
      <point x="683" y="-18" type="curve" smooth="yes"/>
      <point x="813" y="-18"/>
      <point x="936" y="20"/>
      <point x="1047" y="99" type="curve"/>
      <point x="962" y="274" type="line"/>
      <point x="890" y="226"/>
      <point x="809" y="192"/>
      <point x="725" y="192" type="curve" smooth="yes"/>
      <point x="521" y="192"/>
      <point x="408" y="360"/>
      <point x="408" y="584" type="curve" smooth="yes"/>
      <point x="408" y="807"/>
      <point x="518" y="970"/>
      <point x="717" y="970" type="curve" smooth="yes"/>
      <point x="804" y="970"/>
      <point x="894" y="941"/>
      <point x="968" y="885" type="curve"/>
      <point x="1047" y="1071" type="line"/>
      <point x="934" y="1152"/>
      <point x="806" y="1183"/>
      <point x="674" y="1183" type="curve" smooth="yes"/>
      <point x="345" y="1183"/>
      <point x="100" y="951"/>
      <point x="100" y="586" type="curve" smooth="yes"/>
      <point x="100" y="220"/>
      <point x="349" y="-18"/>
    </contour>
  </outline>
</glyph>
<glyph name="d" format="1">
  <advance width="1359"/>
  <unicode hex="0064"/>
  <outline>
    <contour>
      <point x="578" y="1165" type="move" name="top"/>
    </contour>
    <contour>
      <point x="1105" y="1165" type="move" name="caron.alt"/>
    </contour>
    <contour>
      <point x="1030" y="1382" type="move" name="mid"/>
    </contour>
    <contour>
      <point x="596" y="-18" type="curve" smooth="yes"/>
      <point x="748" y="-18"/>
      <point x="863" y="48"/>
      <point x="946" y="128" type="curve"/>
      <point x="986" y="0" type="line"/>
      <point x="1202" y="0" type="line"/>
      <point x="1202" y="1631" type="line"/>
      <point x="896" y="1578" type="line"/>
      <point x="896" y="1070" type="line"/>
      <point x="803" y="1142"/>
      <point x="689" y="1183"/>
      <point x="557" y="1183" type="curve" smooth="yes"/>
      <point x="272" y="1183"/>
      <point x="100" y="954"/>
      <point x="100" y="584" type="curve" smooth="yes"/>
      <point x="100" y="219"/>
      <point x="302" y="-18"/>
    </contour>
    <contour>
      <point x="654" y="178" type="curve" smooth="yes"/>
      <point x="488" y="187"/>
      <point x="402" y="345"/>
      <point x="402" y="585" type="curve" smooth="yes"/>
      <point x="402" y="867"/>
      <point x="492" y="981"/>
      <point x="646" y="981" type="curve" smooth="yes"/>
      <point x="735" y="981"/>
      <point x="818" y="950"/>
      <point x="896" y="888" type="curve"/>
      <point x="897" y="275" type="line"/>
      <point x="833" y="215"/>
      <point x="757" y="172"/>
    </contour>
  </outline>
</glyph>
<glyph name="e" format="1">
  <advance width="1235"/>
  <unicode hex="0065"/>
  <outline>
    <contour>
      <point x="672" y="1165" type="move" name="top"/>
    </contour>
    <contour>
      <point x="754" y="0" type="move" name="ogonek"/>
    </contour>
    <contour>
      <point x="682" y="0" type="move" name="bot"/>
    </contour>
    <contour>
      <point x="686" y="-18" type="curve" smooth="yes"/>
      <point x="827" y="-18"/>
      <point x="992" y="19"/>
      <point x="1108" y="102" type="curve"/>
      <point x="1035" y="285" type="line"/>
      <point x="967" y="244"/>
      <point x="860" y="192"/>
      <point x="725" y="192" type="curve" smooth="yes"/>
      <point x="562" y="192"/>
      <point x="415" y="270"/>
      <point x="407" y="519" type="curve"/>
      <point x="1121" y="519" type="line"/>
      <point x="1124" y="537"/>
      <point x="1130" y="616"/>
      <point x="1130" y="634" type="curve" smooth="yes"/>
      <point x="1144" y="970"/>
      <point x="974" y="1183"/>
      <point x="668" y="1183" type="curve" smooth="yes"/>
      <point x="308" y="1183"/>
      <point x="100" y="929"/>
      <point x="100" y="575" type="curve" smooth="yes"/>
      <point x="100" y="222"/>
      <point x="303" y="-18"/>
    </contour>
    <contour>
      <point x="412" y="693" type="line"/>
      <point x="420" y="865"/>
      <point x="498" y="981"/>
      <point x="662" y="981" type="curve" smooth="yes"/>
      <point x="801" y="981"/>
      <point x="874" y="878"/>
      <point x="874" y="724" type="curve" smooth="yes"/>
      <point x="874" y="693" type="line"/>
    </contour>
  </outline>
</glyph>
<glyph name="f" format="1">
  <advance width="894"/>
  <unicode hex="0066"/>
  <outline>
    <contour>
      <point x="401" y="1578" type="move" name="top"/>
    </contour>
    <contour>
      <point x="249" y="0" type="line"/>
      <point x="552" y="0" type="line"/>
      <point x="552" y="993" type="line"/>
      <point x="882" y="993" type="line"/>
      <point x="882" y="1165" type="line"/>
      <point x="552" y="1165" type="line"/>
      <point x="552" y="1238" type="line" smooth="yes"/>
      <point x="552" y="1409"/>
      <point x="641" y="1437"/>
      <point x="720" y="1437" type="curve" smooth="yes"/>
      <point x="764" y="1438"/>
      <point x="826" y="1424"/>
      <point x="875" y="1407" type="curve"/>
      <point x="923" y="1595" type="line"/>
      <point x="851" y="1633"/>
      <point x="751" y="1660"/>
      <point x="641" y="1660" type="curve" smooth="yes"/>
      <point x="466" y="1663"/>
      <point x="249" y="1578"/>
      <point x="249" y="1219" type="curve" smooth="yes"/>
      <point x="249" y="1165" type="line"/>
      <point x="51" y="1165" type="line"/>
      <point x="51" y="993" type="line"/>
      <point x="249" y="993" type="line"/>
    </contour>
  </outline>
</glyph>
<glyph name="g" format="1">
  <advance width="1245"/>
  <unicode hex="0067"/>
  <outline>
    <contour>
      <point x="598" y="1165" type="move" name="top"/>
    </contour>
    <contour>
      <point x="573" y="-471" type="curve" smooth="yes"/>
      <point x="872" y="-467"/>
      <point x="1172" y="-403"/>
      <point x="1172" y="-121" type="curve" smooth="yes"/>
      <point x="1172" y="184"/>
      <point x="983" y="235"/>
      <point x="739" y="235" type="curve" smooth="yes"/>
      <point x="421" y="235" type="line"/>
      <point x="419" y="239"/>
      <point x="394" y="269"/>
      <point x="394" y="315" type="curve" smooth="yes"/>
      <point x="394" y="361"/>
      <point x="423" y="410"/>
      <point x="426" y="414" type="curve"/>
      <point x="436" y="413"/>
      <point x="501" y="390"/>
      <point x="602" y="390" type="curve" smooth="yes"/>
      <point x="889" y="390"/>
      <point x="1066" y="534"/>
      <point x="1066" y="796" type="curve"/>
      <point x="1065" y="874"/>
      <point x="1029" y="940"/>
      <point x="995" y="974" type="curve"/>
      <point x="1230" y="994" type="line"/>
      <point x="1224" y="1178" type="line"/>
      <point x="1091" y="1178"/>
      <point x="998" y="1168"/>
      <point x="878" y="1114" type="curve"/>
      <point x="801" y="1162"/>
      <point x="734" y="1183"/>
      <point x="594" y="1183" type="curve" smooth="yes"/>
      <point x="285" y="1183"/>
      <point x="116" y="1020"/>
      <point x="116" y="789" type="curve" smooth="yes"/>
      <point x="116" y="606"/>
      <point x="218" y="524"/>
      <point x="288" y="485" type="curve"/>
      <point x="232" y="436"/>
      <point x="151" y="349"/>
      <point x="151" y="241" type="curve" smooth="yes"/>
      <point x="151" y="154"/>
      <point x="202" y="92"/>
      <point x="284" y="70" type="curve"/>
      <point x="185" y="35"/>
      <point x="110" y="-47"/>
      <point x="110" y="-169" type="curve" smooth="yes"/>
      <point x="110" y="-449"/>
      <point x="371" y="-475"/>
    </contour>
    <contour>
      <point x="576" y="-273" type="curve" smooth="yes"/>
      <point x="427" y="-275"/>
      <point x="362" y="-232"/>
      <point x="362" y="-128" type="curve" smooth="yes"/>
      <point x="362" y="-62"/>
      <point x="390" y="4"/>
      <point x="430" y="36" type="curve"/>
      <point x="699" y="36" type="line" smooth="yes"/>
      <point x="839" y="36"/>
      <point x="910" y="32"/>
      <point x="910" y="-100" type="curve" smooth="yes"/>
      <point x="910" y="-269"/>
      <point x="745" y="-272"/>
    </contour>
    <contour>
      <point x="610" y="583" type="curve" smooth="yes"/>
      <point x="450" y="583"/>
      <point x="381" y="663"/>
      <point x="379" y="792" type="curve" smooth="yes"/>
      <point x="377" y="925"/>
      <point x="455" y="996"/>
      <point x="615" y="996" type="curve" smooth="yes"/>
      <point x="761" y="996"/>
      <point x="826" y="922"/>
      <point x="826" y="787" type="curve" smooth="yes"/>
      <point x="826" y="680"/>
      <point x="760" y="583"/>
    </contour>
  </outline>
</glyph>
<glyph name="h" format="1">
  <advance width="1357"/>
  <unicode hex="0068"/>
  <outline>
    <contour>
      <point x="816" y="1165" type="move" name="top"/>
    </contour>
    <contour>
      <point x="158" y="0" type="line"/>
      <point x="462" y="0" type="line"/>
      <point x="462" y="838" type="line"/>
      <point x="535" y="910"/>
      <point x="624" y="968"/>
      <point x="732" y="968" type="curve" smooth="yes"/>
      <point x="863" y="968"/>
      <point x="905" y="877"/>
      <point x="905" y="730" type="curve" smooth="yes"/>
      <point x="905" y="0" type="line"/>
      <point x="1209" y="0" type="line"/>
      <point x="1209" y="741" type="line" smooth="yes"/>
      <point x="1209" y="1062"/>
      <point x="1043" y="1183"/>
      <point x="823" y="1183" type="curve" smooth="yes"/>
      <point x="677" y="1183"/>
      <point x="556" y="1122"/>
      <point x="462" y="1046" type="curve"/>
      <point x="462" y="1632" type="line"/>
      <point x="158" y="1578" type="line"/>
    </contour>
  </outline>
</glyph>
<glyph name="i" format="1">
  <advance width="655"/>
  <unicode hex="0069"/>
  <outline>
    <contour>
      <point x="181" y="0" type="line"/>
      <point x="485" y="0" type="line"/>
      <point x="485" y="1165" type="line"/>
      <point x="181" y="1165" type="line"/>
    </contour>
    <contour>
      <point x="335" y="1351" type="curve" smooth="yes"/>
      <point x="433" y="1351"/>
      <point x="507" y="1427"/>
      <point x="507" y="1518" type="curve" smooth="yes"/>
      <point x="507" y="1613"/>
      <point x="432" y="1685"/>
      <point x="335" y="1685" type="curve" smooth="yes"/>
      <point x="240" y="1685"/>
      <point x="165" y="1613"/>
      <point x="165" y="1518" type="curve" smooth="yes"/>
      <point x="165" y="1429"/>
      <point x="237" y="1351"/>
    </contour>
  </outline>
</glyph>
<glyph name="j" format="1">
  <advance width="704"/>
  <unicode hex="006A"/>
  <outline>
    <contour>
      <point x="103" y="-482" type="line"/>
      <point x="381" y="-414"/>
      <point x="536" y="-307"/>
      <point x="536" y="21" type="curve" smooth="yes"/>
      <point x="536" y="1165" type="line"/>
      <point x="233" y="1165" type="line"/>
      <point x="233" y="104" type="line" smooth="yes"/>
      <point x="233" y="-140"/>
      <point x="224" y="-180"/>
      <point x="8" y="-268" type="curve"/>
    </contour>
    <contour>
      <point x="385" y="1341" type="curve" smooth="yes"/>
      <point x="482" y="1341"/>
      <point x="557" y="1416"/>
      <point x="557" y="1512" type="curve" smooth="yes"/>
      <point x="557" y="1608"/>
      <point x="481" y="1685"/>
      <point x="385" y="1685" type="curve" smooth="yes"/>
      <point x="289" y="1685"/>
      <point x="215" y="1608"/>
      <point x="215" y="1512" type="curve" smooth="yes"/>
      <point x="215" y="1418"/>
      <point x="287" y="1341"/>
    </contour>
  </outline>
</glyph>
<glyph name="k" format="1">
  <advance width="1290"/>
  <unicode hex="006B"/>
  <outline>
    <contour>
      <point x="763" y="1165" type="move" name="top"/>
    </contour>
    <contour>
      <point x="708" y="0" type="move" name="bot"/>
    </contour>
    <contour>
      <point x="162" y="0" type="line"/>
      <point x="466" y="0" type="line"/>
      <point x="466" y="444" type="line"/>
      <point x="561" y="532" type="line"/>
      <point x="949" y="0" type="line"/>
      <point x="1289" y="0" type="line"/>
      <point x="775" y="663" type="line"/>
      <point x="1253" y="1165" type="line"/>
      <point x="902" y="1165" type="line"/>
      <point x="466" y="698" type="line"/>
      <point x="466" y="1632" type="line"/>
      <point x="162" y="1578" type="line"/>
    </contour>
  </outline>
</glyph>
<glyph name="l" format="1">
  <advance width="641"/>
  <unicode hex="006C"/>
  <outline>
    <contour>
      <point x="316" y="1578" type="move" name="top"/>
    </contour>
    <contour>
      <point x="458" y="1168" type="move" name="caron.alt"/>
    </contour>
    <contour>
      <point x="298" y="837" type="move" name="mid"/>
    </contour>
    <contour>
      <point x="172" y="0" type="line"/>
      <point x="475" y="0" type="line"/>
      <point x="475" y="1632" type="line"/>
      <point x="172" y="1578" type="line"/>
    </contour>
  </outline>
</glyph>
<glyph name="m" format="1">
  <advance width="2058"/>
  <unicode hex="006D"/>
  <outline>
    <contour>
      <point x="1116" y="1165" type="move" name="top"/>
    </contour>
    <contour>
      <point x="158" y="0" type="line"/>
      <point x="462" y="0" type="line"/>
      <point x="462" y="838" type="line"/>
      <point x="547" y="928"/>
      <point x="638" y="974"/>
      <point x="721" y="974" type="curve" smooth="yes"/>
      <point x="844" y="973"/>
      <point x="883" y="896"/>
      <point x="883" y="753" type="curve" smooth="yes"/>
      <point x="883" y="0" type="line"/>
      <point x="1189" y="0" type="line"/>
      <point x="1189" y="754" type="line" smooth="yes"/>
      <point x="1189" y="778"/>
      <point x="1188" y="811"/>
      <point x="1183" y="845" type="curve"/>
      <point x="1269" y="936"/>
      <point x="1354" y="974"/>
      <point x="1444" y="974" type="curve" smooth="yes"/>
      <point x="1566" y="973"/>
      <point x="1604" y="896"/>
      <point x="1604" y="753" type="curve" smooth="yes"/>
      <point x="1604" y="0" type="line"/>
      <point x="1909" y="0" type="line"/>
      <point x="1909" y="751" type="line" smooth="yes"/>
      <point x="1909" y="1058"/>
      <point x="1736" y="1183"/>
      <point x="1540" y="1183" type="curve" smooth="yes"/>
      <point x="1399" y="1183"/>
      <point x="1255" y="1125"/>
      <point x="1139" y="998" type="curve"/>
      <point x="1077" y="1121"/>
      <point x="961" y="1183"/>
      <point x="818" y="1183" type="curve" smooth="yes"/>
      <point x="679" y="1183"/>
      <point x="549" y="1125"/>
      <point x="428" y="1004" type="curve"/>
      <point x="389" y="1165" type="line"/>
      <point x="158" y="1165" type="line"/>
    </contour>
  </outline>
</glyph>
<glyph name="n" format="1">
  <advance width="1357"/>
  <unicode hex="006E"/>
  <outline>
    <contour>
      <point x="735" y="1165" type="move" name="top"/>
    </contour>
    <contour>
      <point x="722" y="0" type="move" name="bot"/>
    </contour>
    <contour>
      <point x="159" y="0" type="line"/>
      <point x="463" y="0" type="line"/>
      <point x="463" y="843" type="line"/>
      <point x="537" y="915"/>
      <point x="626" y="968"/>
      <point x="736" y="968" type="curve" smooth="yes"/>
      <point x="867" y="968"/>
      <point x="906" y="877"/>
      <point x="906" y="728" type="curve" smooth="yes"/>
      <point x="906" y="0" type="line"/>
      <point x="1210" y="0" type="line"/>
      <point x="1210" y="739" type="line" smooth="yes"/>
      <point x="1210" y="1062"/>
      <point x="1044" y="1183"/>
      <point x="824" y="1183" type="curve" smooth="yes"/>
      <point x="659" y="1183"/>
      <point x="524" y="1110"/>
      <point x="425" y="1021" type="curve"/>
      <point x="390" y="1165" type="line"/>
      <point x="159" y="1165" type="line"/>
    </contour>
  </outline>
</glyph>
<glyph name="o" format="1">
  <advance width="1330"/>
  <unicode hex="006F"/>
  <outline>
    <contour>
      <point x="660" y="1165" type="move" name="top"/>
    </contour>
    <contour>
      <point x="732" y="0" type="move" name="ogonek"/>
    </contour>
    <contour>
      <point x="665" y="197" type="curve" smooth="yes"/>
      <point x="483" y="197"/>
      <point x="406" y="366"/>
      <point x="406" y="585" type="curve" smooth="yes"/>
      <point x="406" y="803"/>
      <point x="483" y="968"/>
      <point x="665" y="968" type="curve" smooth="yes"/>
      <point x="847" y="968"/>
      <point x="924" y="803"/>
      <point x="924" y="585" type="curve" smooth="yes"/>
      <point x="924" y="366"/>
      <point x="847" y="197"/>
    </contour>
    <contour>
      <point x="665" y="-18" type="curve" smooth="yes"/>
      <point x="1024" y="-18"/>
      <point x="1230" y="219"/>
      <point x="1230" y="582" type="curve" smooth="yes"/>
      <point x="1230" y="947"/>
      <point x="1021" y="1183"/>
      <point x="665" y="1183" type="curve" smooth="yes"/>
      <point x="309" y="1183"/>
      <point x="100" y="947"/>
      <point x="100" y="582" type="curve" smooth="yes"/>
      <point x="100" y="219"/>
      <point x="305" y="-18"/>
    </contour>
  </outline>
</glyph>
<glyph name="p" format="1">
  <advance width="1339"/>
  <unicode hex="0070"/>
  <outline>
    <contour>
      <point x="733" y="1165" type="move" name="top"/>
    </contour>
    <contour>
      <point x="153" y="-498" type="line"/>
      <point x="459" y="-455" type="line"/>
      <point x="459" y="78" type="line"/>
      <point x="532" y="23"/>
      <point x="626" y="-18"/>
      <point x="743" y="-18" type="curve" smooth="yes"/>
      <point x="1037" y="-18"/>
      <point x="1239" y="221"/>
      <point x="1239" y="584" type="curve" smooth="yes"/>
      <point x="1239" y="952"/>
      <point x="1067" y="1183"/>
      <point x="782" y="1183" type="curve" smooth="yes"/>
      <point x="634" y="1183"/>
      <point x="508" y="1132"/>
      <point x="410" y="1041" type="curve"/>
      <point x="369" y="1165" type="line"/>
      <point x="153" y="1165" type="line"/>
    </contour>
    <contour>
      <point x="674" y="178" type="curve" smooth="yes"/>
      <point x="584" y="178"/>
      <point x="516" y="211"/>
      <point x="459" y="262" type="curve"/>
      <point x="459" y="898" type="line"/>
      <point x="531" y="952"/>
      <point x="609" y="981"/>
      <point x="693" y="981" type="curve" smooth="yes"/>
      <point x="848" y="980"/>
      <point x="937" y="863"/>
      <point x="937" y="585" type="curve" smooth="yes"/>
      <point x="937" y="312"/>
      <point x="837" y="178"/>
    </contour>
  </outline>
</glyph>
<glyph name="q" format="1">
  <advance width="1339"/>
  <unicode hex="0071"/>
  <outline>
    <contour>
      <point x="1186" y="-455" type="line"/>
      <point x="1186" y="1165" type="line"/>
      <point x="970" y="1165" type="line"/>
      <point x="929" y="1041" type="line"/>
      <point x="831" y="1132"/>
      <point x="705" y="1183"/>
      <point x="557" y="1183" type="curve" smooth="yes"/>
      <point x="272" y="1183"/>
      <point x="100" y="952"/>
      <point x="100" y="584" type="curve" smooth="yes"/>
      <point x="100" y="221"/>
      <point x="302" y="-18"/>
      <point x="596" y="-18" type="curve" smooth="yes"/>
      <point x="713" y="-18"/>
      <point x="807" y="23"/>
      <point x="880" y="78" type="curve"/>
      <point x="880" y="-498" type="line"/>
    </contour>
    <contour>
      <point x="665" y="178" type="curve" smooth="yes"/>
      <point x="502" y="178"/>
      <point x="402" y="312"/>
      <point x="402" y="585" type="curve" smooth="yes"/>
      <point x="402" y="863"/>
      <point x="491" y="980"/>
      <point x="646" y="981" type="curve" smooth="yes"/>
      <point x="730" y="981"/>
      <point x="809" y="952"/>
      <point x="880" y="898" type="curve"/>
      <point x="880" y="262" type="line"/>
      <point x="823" y="211"/>
      <point x="754" y="178"/>
    </contour>
  </outline>
</glyph>
<glyph name="r" format="1">
  <advance width="892"/>
  <unicode hex="0072"/>
  <outline>
    <contour>
      <point x="497" y="1165" type="move" name="top"/>
    </contour>
    <contour>
      <point x="484" y="0" type="move" name="bot"/>
    </contour>
    <contour>
      <point x="163" y="0" type="line"/>
      <point x="467" y="0" type="line"/>
      <point x="466" y="806" type="line"/>
      <point x="569" y="867"/>
      <point x="703" y="921"/>
      <point x="846" y="927" type="curve"/>
      <point x="815" y="1176" type="line"/>
      <point x="693" y="1176"/>
      <point x="550" y="1102"/>
      <point x="441" y="981" type="curve"/>
      <point x="394" y="1165" type="line"/>
      <point x="163" y="1165" type="line"/>
    </contour>
  </outline>
</glyph>
<glyph name="s" format="1">
  <advance width="1085"/>
  <unicode hex="0073"/>
  <outline>
    <contour>
      <point x="537" y="1165" type="move" name="top"/>
    </contour>
    <contour>
      <point x="565" y="0" type="move" name="bot"/>
    </contour>
    <contour>
      <point x="561" y="-18" type="curve" smooth="yes"/>
      <point x="804" y="-18"/>
      <point x="990" y="83"/>
      <point x="995" y="332" type="curve" smooth="yes"/>
      <point x="999" y="498"/>
      <point x="929" y="590"/>
      <point x="698" y="674" type="curve" smooth="yes"/>
      <point x="496" y="745" type="line" smooth="yes"/>
      <point x="412" y="773"/>
      <point x="397" y="809"/>
      <point x="399" y="863" type="curve" smooth="yes"/>
      <point x="404" y="950"/>
      <point x="488" y="969"/>
      <point x="579" y="969" type="curve" smooth="yes"/>
      <point x="678" y="969"/>
      <point x="784" y="942"/>
      <point x="887" y="887" type="curve"/>
      <point x="964" y="1070" type="line"/>
      <point x="887" y="1123"/>
      <point x="743" y="1183"/>
      <point x="555" y="1183" type="curve" smooth="yes"/>
      <point x="284" y="1183"/>
      <point x="107" y="1053"/>
      <point x="107" y="852" type="curve" smooth="yes"/>
      <point x="107" y="689"/>
      <point x="188" y="593"/>
      <point x="370" y="528" type="curve" smooth="yes"/>
      <point x="601" y="447" type="line" smooth="yes"/>
      <point x="682" y="421"/>
      <point x="709" y="388"/>
      <point x="706" y="316" type="curve" smooth="yes"/>
      <point x="704" y="222"/>
      <point x="626" y="190"/>
      <point x="526" y="190" type="curve" smooth="yes"/>
      <point x="418" y="190"/>
      <point x="287" y="240"/>
      <point x="188" y="303" type="curve"/>
      <point x="117" y="106" type="line"/>
      <point x="214" y="43"/>
      <point x="368" y="-18"/>
    </contour>
  </outline>
</glyph>
<glyph name="t" format="1">
  <advance width="944"/>
  <unicode hex="0074"/>
  <outline>
    <contour>
      <point x="359" y="1578" type="move" name="top"/>
    </contour>
    <contour>
      <point x="442" y="1520" type="move" name="caron.alt"/>
    </contour>
    <contour>
      <point x="561" y="0" type="move" name="bot"/>
    </contour>
    <contour>
      <point x="411" y="683" type="move" name="mid"/>
    </contour>
    <contour>
      <point x="611" y="-11" type="curve" smooth="yes"/>
      <point x="707" y="-12"/>
      <point x="806" y="6"/>
      <point x="889" y="42" type="curve"/>
      <point x="849" y="239" type="line"/>
      <point x="794" y="223"/>
      <point x="741" y="212"/>
      <point x="690" y="212" type="curve" smooth="yes"/>
      <point x="580" y="212"/>
      <point x="534" y="269"/>
      <point x="534" y="359" type="curve" smooth="yes"/>
      <point x="534" y="993" type="line"/>
      <point x="857" y="993" type="line"/>
      <point x="857" y="1165" type="line"/>
      <point x="534" y="1165" type="line"/>
      <point x="534" y="1595" type="line"/>
      <point x="262" y="1528" type="line"/>
      <point x="240" y="1165" type="line"/>
      <point x="41" y="1165" type="line"/>
      <point x="41" y="993" type="line"/>
      <point x="231" y="993" type="line"/>
      <point x="231" y="371" type="line" smooth="yes"/>
      <point x="231" y="105"/>
      <point x="396" y="-8"/>
    </contour>
  </outline>
</glyph>
<glyph name="u" format="1">
  <advance width="1376"/>
  <unicode hex="0075"/>
  <outline>
    <contour>
      <point x="684" y="1165" type="move" name="top"/>
    </contour>
    <contour>
      <point x="1089" y="0" type="move" name="ogonek"/>
    </contour>
    <contour>
      <point x="562" y="-18" type="curve" smooth="yes"/>
      <point x="770" y="-18"/>
      <point x="880" y="75"/>
      <point x="951" y="146" type="curve"/>
      <point x="986" y="0" type="line"/>
      <point x="1218" y="0" type="line"/>
      <point x="1218" y="1165" type="line"/>
      <point x="912" y="1165" type="line"/>
      <point x="912" y="315" type="line"/>
      <point x="851" y="248"/>
      <point x="775" y="182"/>
      <point x="636" y="182" type="curve" smooth="yes"/>
      <point x="511" y="182"/>
      <point x="454" y="268"/>
      <point x="454" y="405" type="curve" smooth="yes"/>
      <point x="454" y="1165" type="line"/>
      <point x="148" y="1165" type="line"/>
      <point x="148" y="441" type="line" smooth="yes"/>
      <point x="148" y="109"/>
      <point x="310" y="-18"/>
    </contour>
  </outline>
</glyph>
<glyph name="v" format="1">
  <advance width="1212"/>
  <unicode hex="0076"/>
  <outline>
    <contour>
      <point x="428" y="0" type="line"/>
      <point x="785" y="0" type="line"/>
      <point x="1172" y="1165" type="line"/>
      <point x="855" y="1165" type="line"/>
      <point x="609" y="287" type="line"/>
      <point x="358" y="1165" type="line"/>
      <point x="39" y="1165" type="line"/>
    </contour>
  </outline>
</glyph>
<glyph name="w" format="1">
  <advance width="1699"/>
  <unicode hex="0077"/>
  <outline>
    <contour>
      <point x="857" y="1165" type="move" name="top"/>
    </contour>
    <contour>
      <point x="1056" y="0" type="line"/>
      <point x="1357" y="0" type="line"/>
      <point x="1643" y="1165" type="line"/>
      <point x="1368" y="1165" type="line"/>
      <point x="1188" y="299" type="line"/>
      <point x="978" y="1165" type="line"/>
      <point x="732" y="1165" type="line"/>
      <point x="513" y="305" type="line"/>
      <point x="333" y="1165" type="line"/>
      <point x="56" y="1165" type="line"/>
      <point x="341" y="0" type="line"/>
      <point x="639" y="0" type="line"/>
      <point x="852" y="792" type="line"/>
    </contour>
  </outline>
</glyph>
<glyph name="x" format="1">
  <advance width="1186"/>
  <unicode hex="0078"/>
  <outline>
    <contour>
      <point x="44" y="0" type="line"/>
      <point x="376" y="0" type="line"/>
      <point x="594" y="380" type="line"/>
      <point x="811" y="0" type="line"/>
      <point x="1140" y="0" type="line"/>
      <point x="752" y="584" type="line"/>
      <point x="1146" y="1165" type="line"/>
      <point x="812" y="1165" type="line"/>
      <point x="595" y="799" type="line"/>
      <point x="375" y="1165" type="line"/>
      <point x="36" y="1165" type="line"/>
      <point x="438" y="584" type="line"/>
    </contour>
  </outline>
</glyph>
<glyph name="y" format="1">
  <advance width="1235"/>
  <unicode hex="0079"/>
  <outline>
    <contour>
      <point x="638" y="1165" type="move" name="top"/>
    </contour>
    <contour>
      <point x="232" y="-505" type="line"/>
      <point x="558" y="-488"/>
      <point x="672" y="-331"/>
      <point x="773" y="-33" type="curve" smooth="yes"/>
      <point x="1186" y="1165" type="line"/>
      <point x="890" y="1165" type="line"/>
      <point x="648" y="371" type="line"/>
      <point x="357" y="1165" type="line"/>
      <point x="52" y="1165" type="line"/>
      <point x="508" y="38" type="line"/>
      <point x="451" y="-175"/>
      <point x="394" y="-276"/>
      <point x="151" y="-300" type="curve"/>
    </contour>
  </outline>
</glyph>
<glyph name="z" format="1">
  <advance width="1031"/>
  <unicode hex="007A"/>
  <outline>
    <contour>
      <point x="549" y="1165" type="move" name="top"/>
    </contour>
    <contour>
      <point x="102" y="0" type="line"/>
      <point x="940" y="0" type="line"/>
      <point x="940" y="231" type="line"/>
      <point x="438" y="231" type="line"/>
      <point x="938" y="972" type="line"/>
      <point x="938" y="1165" type="line"/>
      <point x="119" y="1165" type="line"/>
      <point x="119" y="935" type="line"/>
      <point x="609" y="935" type="line"/>
      <point x="102" y="200" type="line"/>
    </contour>
  </outline>
</glyph>
<glyph name="braceleft" format="1">
  <advance width="983"/>
  <unicode hex="007B"/>
  <outline>
    <contour>
      <point x="870" y="-219" type="curve"/>
      <point x="870" y="-20" type="line"/>
      <point x="684" y="-9"/>
      <point x="633" y="23"/>
      <point x="632" y="259" type="curve" smooth="yes"/>
      <point x="628" y="606"/>
      <point x="547" y="688"/>
      <point x="378" y="720" type="curve"/>
      <point x="547" y="751"/>
      <point x="628" y="834"/>
      <point x="632" y="1180" type="curve" smooth="yes"/>
      <point x="633" y="1416"/>
      <point x="686" y="1449"/>
      <point x="870" y="1460" type="curve"/>
      <point x="870" y="1659" type="line"/>
      <point x="452" y="1659"/>
      <point x="300" y="1579"/>
      <point x="300" y="1152" type="curve" smooth="yes"/>
      <point x="300" y="883"/>
      <point x="276" y="835"/>
      <point x="84" y="815" type="curve"/>
      <point x="84" y="625" type="line"/>
      <point x="275" y="606"/>
      <point x="300" y="557"/>
      <point x="300" y="288" type="curve" smooth="yes"/>
      <point x="300" y="-139"/>
      <point x="452" y="-219"/>
    </contour>
  </outline>
</glyph>
<glyph name="bar" format="1">
  <advance width="844"/>
  <unicode hex="007C"/>
  <outline>
    <contour>
      <point x="286" y="-137" type="line"/>
      <point x="558" y="-137" type="line"/>
      <point x="558" y="1675" type="line"/>
      <point x="286" y="1675" type="line"/>
    </contour>
  </outline>
</glyph>
<glyph name="braceright" format="1">
  <advance width="983"/>
  <unicode hex="007D"/>
  <outline>
    <contour>
      <point x="113" y="-219" type="line"/>
      <point x="531" y="-219"/>
      <point x="683" y="-139"/>
      <point x="683" y="288" type="curve" smooth="yes"/>
      <point x="683" y="557"/>
      <point x="708" y="606"/>
      <point x="899" y="625" type="curve"/>
      <point x="899" y="815" type="line"/>
      <point x="707" y="835"/>
      <point x="683" y="883"/>
      <point x="683" y="1152" type="curve" smooth="yes"/>
      <point x="683" y="1579"/>
      <point x="531" y="1659"/>
      <point x="113" y="1659" type="curve"/>
      <point x="113" y="1460" type="line"/>
      <point x="297" y="1449"/>
      <point x="350" y="1416"/>
      <point x="351" y="1180" type="curve" smooth="yes"/>
      <point x="354" y="834"/>
      <point x="436" y="751"/>
      <point x="605" y="720" type="curve"/>
      <point x="436" y="688"/>
      <point x="354" y="606"/>
      <point x="351" y="259" type="curve" smooth="yes"/>
      <point x="350" y="23"/>
      <point x="299" y="-9"/>
      <point x="113" y="-20" type="curve"/>
    </contour>
  </outline>
</glyph>
<glyph name="asciitilde" format="1">
  <advance width="1177"/>
  <unicode hex="007E"/>
  <outline>
    <contour>
      <point x="162" y="608" type="curve"/>
      <point x="270" y="608" type="line"/>
      <point x="270" y="697"/>
      <point x="300" y="727"/>
      <point x="351" y="727" type="curve" smooth="yes"/>
      <point x="457" y="727"/>
      <point x="653" y="598"/>
      <point x="851" y="598" type="curve" smooth="yes"/>
      <point x="993" y="598"/>
      <point x="1057" y="725"/>
      <point x="1057" y="913" type="curve"/>
      <point x="950" y="913" type="line"/>
      <point x="950" y="834"/>
      <point x="921" y="808"/>
      <point x="872" y="808" type="curve" smooth="yes"/>
      <point x="766" y="808"/>
      <point x="569" y="932"/>
      <point x="375" y="935" type="curve" smooth="yes"/>
      <point x="221" y="935"/>
      <point x="162" y="810"/>
    </contour>
  </outline>
</glyph>
<glyph name="cent" format="1">
  <advance width="1102"/>
  <unicode hex="00A2"/>
  <outline>
    <contour>
      <point x="603" y="-205" type="line"/>
      <point x="721" y="-205" type="line"/>
      <point x="721" y="1440" type="line"/>
      <point x="603" y="1440" type="line"/>
    </contour>
    <component base="c" yScale="0.9404" yOffset="68"/>
  </outline>
</glyph>
<glyph name="sterling" format="1">
  <advance width="1218"/>
  <unicode hex="00A3"/>
  <outline>
    <contour>
      <point x="174" y="0" type="line"/>
      <point x="1046" y="0" type="line"/>
      <point x="1046" y="229" type="line"/>
      <point x="452" y="229" type="line"/>
      <point x="519" y="282"/>
      <point x="568" y="355"/>
      <point x="581" y="432" type="curve" smooth="yes"/>
      <point x="595" y="474"/>
      <point x="598" y="523"/>
      <point x="587" y="581" type="curve"/>
      <point x="943" y="581" type="line"/>
      <point x="943" y="713" type="line"/>
      <point x="563" y="713" type="line"/>
      <point x="517" y="778"/>
      <point x="482" y="864"/>
      <point x="482" y="931" type="curve" smooth="yes"/>
      <point x="482" y="1043"/>
      <point x="574" y="1093"/>
      <point x="693" y="1095" type="curve" smooth="yes"/>
      <point x="791" y="1098"/>
      <point x="908" y="1071"/>
      <point x="1002" y="1018" type="curve"/>
      <point x="1081" y="1197" type="line"/>
      <point x="990" y="1255"/>
      <point x="860" y="1323"/>
      <point x="657" y="1323" type="curve" smooth="yes"/>
      <point x="375" y="1323"/>
      <point x="208" y="1190"/>
      <point x="208" y="965" type="curve" smooth="yes"/>
      <point x="208" y="851"/>
      <point x="268" y="763"/>
      <point x="314" y="709" type="curve"/>
      <point x="149" y="709" type="line"/>
      <point x="149" y="581" type="line"/>
      <point x="350" y="581" type="line"/>
      <point x="359" y="521"/>
      <point x="354" y="472"/>
      <point x="336" y="430" type="curve" smooth="yes"/>
      <point x="319" y="348"/>
      <point x="257" y="273"/>
      <point x="174" y="223" type="curve"/>
    </contour>
  </outline>
</glyph>
<glyph name="currency" format="1">
  <advance width="1351"/>
  <unicode hex="00A4"/>
  <outline>
    <contour>
      <point x="249" y="414" type="line"/>
      <point x="443" y="608" type="line"/>
      <point x="511" y="567"/>
      <point x="586" y="546"/>
      <point x="665" y="546" type="curve" smooth="yes"/>
      <point x="754" y="546"/>
      <point x="837" y="572"/>
      <point x="912" y="623" type="curve"/>
      <point x="1121" y="414" type="line"/>
      <point x="1249" y="543" type="line"/>
      <point x="1041" y="751" type="line"/>
      <point x="1093" y="826"/>
      <point x="1119" y="911"/>
      <point x="1119" y="1001" type="curve" smooth="yes"/>
      <point x="1119" y="1080"/>
      <point x="1099" y="1154"/>
      <point x="1056" y="1221" type="curve"/>
      <point x="1249" y="1414" type="line"/>
      <point x="1121" y="1543" type="line"/>
      <point x="930" y="1352" type="line"/>
      <point x="860" y="1398"/>
      <point x="782" y="1421"/>
      <point x="699" y="1421" type="curve" smooth="yes"/>
      <point x="609" y="1421"/>
      <point x="524" y="1395"/>
      <point x="448" y="1343" type="curve"/>
      <point x="249" y="1543" type="line"/>
      <point x="121" y="1414" type="line"/>
      <point x="321" y="1214" type="line"/>
      <point x="270" y="1139"/>
      <point x="244" y="1056"/>
      <point x="244" y="967" type="curve" smooth="yes"/>
      <point x="244" y="883"/>
      <point x="267" y="805"/>
      <point x="313" y="735" type="curve"/>
      <point x="121" y="543" type="line"/>
    </contour>
    <contour>
      <point x="678" y="711" type="curve" smooth="yes"/>
      <point x="514" y="711"/>
      <point x="418" y="839"/>
      <point x="418" y="973" type="curve" smooth="yes"/>
      <point x="418" y="1115"/>
      <point x="523" y="1254"/>
      <point x="691" y="1254" type="curve" smooth="yes"/>
      <point x="852" y="1254"/>
      <point x="945" y="1127"/>
      <point x="945" y="992" type="curve" smooth="yes"/>
      <point x="945" y="851"/>
      <point x="843" y="711"/>
    </contour>
  </outline>
</glyph>
<glyph name="yen" format="1">
  <advance width="1323"/>
  <unicode hex="00A5"/>
  <outline>
    <contour>
      <point x="1321" y="1578" type="line"/>
      <point x="1006" y="1578" type="line"/>
      <point x="659" y="881" type="line"/>
      <point x="313" y="1578" type="line"/>
      <point x="-4" y="1578" type="line"/>
      <point x="418" y="748" type="line"/>
      <point x="183" y="748" type="line"/>
      <point x="183" y="632" type="line"/>
      <point x="465" y="632" type="line"/>
      <point x="499" y="501" type="line"/>
      <point x="183" y="501" type="line"/>
      <point x="183" y="387" type="line"/>
      <point x="499" y="387" type="line"/>
      <point x="499" y="0" type="line"/>
      <point x="812" y="0" type="line"/>
      <point x="812" y="387" type="line"/>
      <point x="1122" y="387" type="line"/>
      <point x="1122" y="501" type="line"/>
      <point x="812" y="501" type="line"/>
      <point x="844" y="632" type="line"/>
      <point x="1122" y="632" type="line"/>
      <point x="1122" y="748" type="line"/>
      <point x="888" y="748" type="line"/>
    </contour>
  </outline>
</glyph>
<glyph name="brokenbar" format="1">
  <advance width="808"/>
  <unicode hex="00A6"/>
  <outline>
    <contour>
      <point x="265" y="-106" type="line"/>
      <point x="540" y="-106" type="line"/>
      <point x="540" y="624" type="line"/>
      <point x="265" y="624" type="line"/>
    </contour>
    <contour>
      <point x="265" y="912" type="line"/>
      <point x="540" y="912" type="line"/>
      <point x="540" y="1642" type="line"/>
      <point x="265" y="1642" type="line"/>
    </contour>
  </outline>
</glyph>
<glyph name="section" format="1">
  <advance width="1165"/>
  <unicode hex="00A7"/>
  <outline>
    <contour>
      <point x="567" y="-106" type="curve" smooth="yes"/>
      <point x="772" y="-106"/>
      <point x="1002" y="-24"/>
      <point x="1002" y="224" type="curve" smooth="yes"/>
      <point x="1002" y="345"/>
      <point x="944" y="452"/>
      <point x="798" y="511" type="curve"/>
      <point x="918" y="539"/>
      <point x="1000" y="629"/>
      <point x="1000" y="744" type="curve" smooth="yes"/>
      <point x="1000" y="905"/>
      <point x="910" y="992"/>
      <point x="677" y="1077" type="curve" smooth="yes"/>
      <point x="537" y="1128" type="line" smooth="yes"/>
      <point x="439" y="1163"/>
      <point x="390" y="1194"/>
      <point x="390" y="1250" type="curve" smooth="yes"/>
      <point x="390" y="1341"/>
      <point x="474" y="1371"/>
      <point x="586" y="1371" type="curve" smooth="yes"/>
      <point x="691" y="1371"/>
      <point x="807" y="1334"/>
      <point x="887" y="1284" type="curve"/>
      <point x="959" y="1465" type="line"/>
      <point x="855" y="1536"/>
      <point x="676" y="1583"/>
      <point x="550" y="1583" type="curve" smooth="yes"/>
      <point x="344" y="1583"/>
      <point x="139" y="1492"/>
      <point x="139" y="1277" type="curve" smooth="yes"/>
      <point x="139" y="1138"/>
      <point x="214" y="1056"/>
      <point x="347" y="1002" type="curve"/>
      <point x="209" y="970"/>
      <point x="139" y="865"/>
      <point x="139" y="769" type="curve" smooth="yes"/>
      <point x="139" y="592"/>
      <point x="219" y="516"/>
      <point x="452" y="440" type="curve" smooth="yes"/>
      <point x="589" y="394" type="line" smooth="yes"/>
      <point x="705" y="359"/>
      <point x="760" y="327"/>
      <point x="760" y="242" type="curve" smooth="yes"/>
      <point x="760" y="146"/>
      <point x="675" y="97"/>
      <point x="551" y="97" type="curve" smooth="yes"/>
      <point x="429" y="97"/>
      <point x="297" y="144"/>
      <point x="216" y="205" type="curve"/>
      <point x="141" y="25" type="line"/>
      <point x="244" y="-64"/>
      <point x="465" y="-106"/>
    </contour>
    <contour>
      <point x="565" y="635" type="curve" smooth="yes"/>
      <point x="450" y="635"/>
      <point x="366" y="656"/>
      <point x="366" y="750" type="curve" smooth="yes"/>
      <point x="366" y="847"/>
      <point x="448" y="867"/>
      <point x="565" y="867" type="curve" smooth="yes"/>
      <point x="683" y="867"/>
      <point x="767" y="848"/>
      <point x="767" y="749" type="curve" smooth="yes"/>
      <point x="767" y="657"/>
      <point x="679" y="635"/>
    </contour>
  </outline>
</glyph>
<glyph name="dieresis" format="1">
  <advance width="1223"/>
  <unicode hex="00A8"/>
  <outline>
    <contour>
      <point x="619" y="1165" type="move" name="_top"/>
    </contour>
    <contour>
      <point x="350" y="1309" type="curve" smooth="yes"/>
      <point x="434" y="1309"/>
      <point x="499" y="1375"/>
      <point x="499" y="1459" type="curve" smooth="yes"/>
      <point x="499" y="1543"/>
      <point x="433" y="1609"/>
      <point x="350" y="1609" type="curve" smooth="yes"/>
      <point x="266" y="1609"/>
      <point x="201" y="1543"/>
      <point x="201" y="1459" type="curve" smooth="yes"/>
      <point x="201" y="1377"/>
      <point x="264" y="1309"/>
    </contour>
    <contour>
      <point x="866" y="1309" type="curve" smooth="yes"/>
      <point x="950" y="1309"/>
      <point x="1014" y="1375"/>
      <point x="1014" y="1459" type="curve" smooth="yes"/>
      <point x="1014" y="1543"/>
      <point x="949" y="1609"/>
      <point x="866" y="1609" type="curve" smooth="yes"/>
      <point x="782" y="1609"/>
      <point x="717" y="1543"/>
      <point x="717" y="1459" type="curve" smooth="yes"/>
      <point x="717" y="1377"/>
      <point x="780" y="1309"/>
    </contour>
  </outline>
</glyph>
<glyph name="copyright" format="1">
  <advance width="1935"/>
  <unicode hex="00A9"/>
  <outline>
    <contour>
      <point x="969" y="301" type="curve" smooth="yes"/>
      <point x="1112" y="301"/>
      <point x="1271" y="358"/>
      <point x="1351" y="440" type="curve"/>
      <point x="1280" y="547" type="line"/>
      <point x="1205" y="468"/>
      <point x="1087" y="422"/>
      <point x="975" y="422" type="curve" smooth="yes"/>
      <point x="760" y="422"/>
      <point x="627" y="565"/>
      <point x="627" y="808" type="curve" smooth="yes"/>
      <point x="627" y="1046"/>
      <point x="755" y="1189"/>
      <point x="959" y="1194" type="curve" smooth="yes"/>
      <point x="1076" y="1198"/>
      <point x="1197" y="1154"/>
      <point x="1271" y="1076" type="curve"/>
      <point x="1354" y="1174" type="line"/>
      <point x="1275" y="1259"/>
      <point x="1109" y="1317"/>
      <point x="957" y="1314" type="curve" smooth="yes"/>
      <point x="652" y="1308"/>
      <point x="460" y="1107"/>
      <point x="460" y="808" type="curve" smooth="yes"/>
      <point x="460" y="502"/>
      <point x="656" y="301"/>
    </contour>
    <contour>
      <point x="968" y="118" type="curve" smooth="yes"/>
      <point x="546" y="118"/>
      <point x="283" y="374"/>
      <point x="283" y="796" type="curve" smooth="yes"/>
      <point x="283" y="1218"/>
      <point x="546" y="1474"/>
      <point x="968" y="1474" type="curve" smooth="yes"/>
      <point x="1389" y="1474"/>
      <point x="1652" y="1218"/>
      <point x="1652" y="796" type="curve" smooth="yes"/>
      <point x="1652" y="374"/>
      <point x="1389" y="118"/>
    </contour>
    <contour>
      <point x="968" y="-16" type="curve" smooth="yes"/>
      <point x="1489" y="-16"/>
      <point x="1821" y="304"/>
      <point x="1821" y="796" type="curve" smooth="yes"/>
      <point x="1821" y="1288"/>
      <point x="1489" y="1608"/>
      <point x="968" y="1608" type="curve" smooth="yes"/>
      <point x="446" y="1608"/>
      <point x="114" y="1288"/>
      <point x="114" y="796" type="curve" smooth="yes"/>
      <point x="114" y="304"/>
      <point x="446" y="-16"/>
    </contour>
  </outline>
</glyph>
<glyph name="guillemotleft" format="1">
  <advance width="1565"/>
  <unicode hex="00AB"/>
  <outline>
    <contour>
      <point x="780" y="61" type="line"/>
      <point x="780" y="328" type="line"/>
      <point x="432" y="589" type="line"/>
      <point x="780" y="849" type="line"/>
      <point x="780" y="1114" type="line"/>
      <point x="168" y="690" type="line"/>
      <point x="168" y="486" type="line"/>
    </contour>
    <contour>
      <point x="1405" y="61" type="line"/>
      <point x="1405" y="328" type="line"/>
      <point x="1058" y="589" type="line"/>
      <point x="1406" y="849" type="line"/>
      <point x="1406" y="1114" type="line"/>
      <point x="794" y="690" type="line"/>
      <point x="794" y="486" type="line"/>
    </contour>
  </outline>
</glyph>
<glyph name="logicalnot" format="1">
  <advance width="1345"/>
  <unicode hex="00AC"/>
  <outline>
    <contour>
      <point x="979" y="401" type="line"/>
      <point x="1177" y="401" type="line"/>
      <point x="1177" y="1111" type="line"/>
      <point x="144" y="1111" type="line"/>
      <point x="144" y="880" type="line"/>
      <point x="979" y="880" type="line"/>
    </contour>
  </outline>
</glyph>
<glyph name="uni00AD" format="1">
  <advance width="1098"/>
  <unicode hex="00AD"/>
  <outline>
    <contour>
      <point x="189" y="556" type="line"/>
      <point x="892" y="556" type="line"/>
      <point x="892" y="781" type="line"/>
      <point x="189" y="781" type="line"/>
    </contour>
  </outline>
</glyph>
<glyph name="registered" format="1">
  <advance width="1935"/>
  <unicode hex="00AE"/>
  <outline>
    <contour>
      <point x="656" y="377" type="line"/>
      <point x="832" y="377" type="line"/>
      <point x="832" y="755" type="line"/>
      <point x="925" y="755" type="line" smooth="yes"/>
      <point x="1065" y="755"/>
      <point x="1118" y="720"/>
      <point x="1129" y="594" type="curve" smooth="yes"/>
      <point x="1148" y="377" type="line"/>
      <point x="1320" y="377" type="line"/>
      <point x="1301" y="627" type="line" smooth="yes"/>
      <point x="1292" y="754"/>
      <point x="1220" y="812"/>
      <point x="1103" y="822" type="curve"/>
      <point x="1225" y="834"/>
      <point x="1315" y="887"/>
      <point x="1315" y="1018" type="curve" smooth="yes"/>
      <point x="1315" y="1192"/>
      <point x="1222" y="1248"/>
      <point x="916" y="1248" type="curve" smooth="yes"/>
      <point x="656" y="1248" type="line"/>
    </contour>
    <contour>
      <point x="832" y="868" type="line"/>
      <point x="832" y="1137" type="line"/>
      <point x="924" y="1137" type="line" smooth="yes"/>
      <point x="1058" y="1137"/>
      <point x="1142" y="1123"/>
      <point x="1142" y="999" type="curve" smooth="yes"/>
      <point x="1142" y="887"/>
      <point x="1059" y="868"/>
      <point x="953" y="868" type="curve" smooth="yes"/>
    </contour>
    <contour>
      <point x="968" y="118" type="curve" smooth="yes"/>
      <point x="546" y="118"/>
      <point x="283" y="374"/>
      <point x="283" y="796" type="curve" smooth="yes"/>
      <point x="283" y="1218"/>
      <point x="546" y="1474"/>
      <point x="968" y="1474" type="curve" smooth="yes"/>
      <point x="1389" y="1474"/>
      <point x="1652" y="1218"/>
      <point x="1652" y="796" type="curve" smooth="yes"/>
      <point x="1652" y="374"/>
      <point x="1389" y="118"/>
    </contour>
    <contour>
      <point x="968" y="-16" type="curve" smooth="yes"/>
      <point x="1489" y="-16"/>
      <point x="1821" y="304"/>
      <point x="1821" y="796" type="curve" smooth="yes"/>
      <point x="1821" y="1288"/>
      <point x="1489" y="1608"/>
      <point x="968" y="1608" type="curve" smooth="yes"/>
      <point x="446" y="1608"/>
      <point x="114" y="1288"/>
      <point x="114" y="796" type="curve" smooth="yes"/>
      <point x="114" y="304"/>
      <point x="446" y="-16"/>
    </contour>
  </outline>
</glyph>
<glyph name="macron" format="1">
  <advance width="791"/>
  <unicode hex="00AF"/>
  <outline>
    <contour>
      <point x="402" y="1165" type="move" name="_top"/>
    </contour>
    <contour>
      <point x="404" y="1408" type="move" name="_mid"/>
    </contour>
    <contour>
      <point x="52" y="1333" type="line"/>
      <point x="739" y="1333" type="line"/>
      <point x="739" y="1484" type="line"/>
      <point x="52" y="1484" type="line"/>
    </contour>
  </outline>
</glyph>
<glyph name="degree" format="1">
  <advance width="887"/>
  <unicode hex="00B0"/>
  <outline>
    <contour>
      <point x="431" y="817" type="curve" smooth="yes"/>
      <point x="337" y="817"/>
      <point x="260" y="891"/>
      <point x="260" y="985" type="curve" smooth="yes"/>
      <point x="260" y="1080"/>
      <point x="337" y="1155"/>
      <point x="431" y="1155" type="curve" smooth="yes"/>
      <point x="524" y="1155"/>
      <point x="600" y="1082"/>
      <point x="600" y="985" type="curve" smooth="yes"/>
      <point x="600" y="891"/>
      <point x="525" y="817"/>
    </contour>
    <contour>
      <point x="424" y="675" type="curve" smooth="yes"/>
      <point x="601" y="675"/>
      <point x="760" y="799"/>
      <point x="760" y="983" type="curve" smooth="yes"/>
      <point x="760" y="1164"/>
      <point x="611" y="1298"/>
      <point x="432" y="1298" type="curve" smooth="yes"/>
      <point x="258" y="1298"/>
      <point x="100" y="1168"/>
      <point x="100" y="989" type="curve" smooth="yes"/>
      <point x="100" y="813"/>
      <point x="248" y="675"/>
    </contour>
  </outline>
</glyph>
<glyph name="plusminus" format="1">
  <advance width="1147"/>
  <unicode hex="00B1"/>
  <outline>
    <contour>
      <point x="451" y="349" type="line"/>
      <point x="698" y="349" type="line"/>
      <point x="698" y="700" type="line"/>
      <point x="1028" y="700" type="line"/>
      <point x="1028" y="917" type="line"/>
      <point x="698" y="917" type="line"/>
      <point x="698" y="1265" type="line"/>
      <point x="451" y="1265" type="line"/>
      <point x="451" y="917" type="line"/>
      <point x="122" y="917" type="line"/>
      <point x="122" y="700" type="line"/>
      <point x="451" y="700" type="line"/>
    </contour>
    <contour>
      <point x="170" y="-26" type="line"/>
      <point x="980" y="-26" type="line"/>
      <point x="980" y="188" type="line"/>
      <point x="170" y="188" type="line"/>
    </contour>
  </outline>
</glyph>
<glyph name="uni00B2" format="1">
  <advance width="1197"/>
  <unicode hex="00B2"/>
  <outline>
    <contour>
      <point x="232" y="659" type="line"/>
      <point x="965" y="659" type="line"/>
      <point x="965" y="835" type="line"/>
      <point x="533" y="835" type="line"/>
      <point x="714" y="998" type="line" smooth="yes"/>
      <point x="866" y="1141"/>
      <point x="978" y="1249"/>
      <point x="978" y="1417" type="curve" smooth="yes"/>
      <point x="978" y="1650"/>
      <point x="797" y="1747"/>
      <point x="597" y="1747" type="curve" smooth="yes"/>
      <point x="467" y="1747"/>
      <point x="329" y="1706"/>
      <point x="228" y="1634" type="curve"/>
      <point x="304" y="1474" type="line"/>
      <point x="392" y="1522"/>
      <point x="493" y="1553"/>
      <point x="577" y="1553" type="curve" smooth="yes"/>
      <point x="676" y="1553"/>
      <point x="753" y="1511"/>
      <point x="753" y="1400" type="curve" smooth="yes"/>
      <point x="753" y="1288"/>
      <point x="665" y="1217"/>
      <point x="571" y="1131" type="curve" smooth="yes"/>
      <point x="232" y="817" type="line"/>
    </contour>
  </outline>
</glyph>
<glyph name="uni00B3" format="1">
  <advance width="1216"/>
  <unicode hex="00B3"/>
  <outline>
    <contour>
      <point x="592" y="560" type="curve" smooth="yes"/>
      <point x="798" y="560"/>
      <point x="997" y="655"/>
      <point x="997" y="892" type="curve" smooth="yes"/>
      <point x="997" y="1010"/>
      <point x="928" y="1154"/>
      <point x="747" y="1187" type="curve"/>
      <point x="875" y="1201"/>
      <point x="958" y="1326"/>
      <point x="960" y="1444" type="curve" smooth="yes"/>
      <point x="963" y="1667"/>
      <point x="779" y="1750"/>
      <point x="581" y="1750" type="curve" smooth="yes"/>
      <point x="468" y="1750"/>
      <point x="338" y="1717"/>
      <point x="232" y="1666" type="curve"/>
      <point x="304" y="1501" type="line"/>
      <point x="388" y="1543"/>
      <point x="475" y="1564"/>
      <point x="551" y="1564" type="curve" smooth="yes"/>
      <point x="664" y="1564"/>
      <point x="737" y="1524"/>
      <point x="737" y="1417" type="curve" smooth="yes"/>
      <point x="737" y="1297"/>
      <point x="630" y="1258"/>
      <point x="489" y="1258" type="curve"/>
      <point x="489" y="1100" type="line"/>
      <point x="647" y="1095"/>
      <point x="756" y="1041"/>
      <point x="756" y="910" type="curve" smooth="yes"/>
      <point x="756" y="788"/>
      <point x="674" y="741"/>
      <point x="562" y="741" type="curve" smooth="yes"/>
      <point x="480" y="741"/>
      <point x="377" y="768"/>
      <point x="293" y="809" type="curve"/>
      <point x="234" y="639" type="line"/>
      <point x="346" y="589"/>
      <point x="472" y="560"/>
    </contour>
  </outline>
</glyph>
<glyph name="acute" format="1">
  <advance width="1091"/>
  <unicode hex="00B4"/>
  <outline>
    <contour>
      <point x="368" y="1165" type="move" name="_top"/>
    </contour>
    <contour>
      <point x="353" y="1358" type="line"/>
      <point x="899" y="1690" type="line"/>
      <point x="728" y="1898" type="line"/>
      <point x="265" y="1469" type="line"/>
    </contour>
  </outline>
</glyph>
<glyph name="paragraph" format="1">
  <advance width="1368"/>
  <unicode hex="00B6"/>
  <outline>
    <contour>
      <point x="589" y="-155" type="line"/>
      <point x="821" y="-155" type="line"/>
      <point x="821" y="1381" type="line"/>
      <point x="995" y="1381" type="line"/>
      <point x="995" y="-155" type="line"/>
      <point x="1226" y="-155" type="line"/>
      <point x="1226" y="1577" type="line"/>
      <point x="633" y="1577" type="line" smooth="yes"/>
      <point x="402" y="1577"/>
      <point x="111" y="1531"/>
      <point x="111" y="1181" type="curve" smooth="yes"/>
      <point x="111" y="854"/>
      <point x="341" y="765"/>
      <point x="589" y="765" type="curve"/>
    </contour>
  </outline>
</glyph>
<glyph name="periodcentered" format="1">
  <advance width="747"/>
  <unicode hex="00B7"/>
  <outline>
    <contour>
      <point x="1" y="776" type="move" name="_mid"/>
    </contour>
    <contour>
      <point x="490" y="605" type="curve" smooth="yes"/>
      <point x="586" y="605"/>
      <point x="661" y="680"/>
      <point x="661" y="776" type="curve" smooth="yes"/>
      <point x="661" y="873"/>
      <point x="585" y="949"/>
      <point x="490" y="949" type="curve" smooth="yes"/>
      <point x="393" y="949"/>
      <point x="319" y="873"/>
      <point x="319" y="776" type="curve" smooth="yes"/>
      <point x="319" y="683"/>
      <point x="391" y="605"/>
    </contour>
  </outline>
</glyph>
<glyph name="cedilla" format="1">
  <advance width="726"/>
  <unicode hex="00B8"/>
  <outline>
    <contour>
      <point x="211" y="0" type="move" name="_bot"/>
    </contour>
    <contour>
      <point x="239" y="-445" type="curve" smooth="yes"/>
      <point x="366" y="-445"/>
      <point x="452" y="-372"/>
      <point x="452" y="-251" type="curve" smooth="yes"/>
      <point x="449" y="-132"/>
      <point x="339" y="-80"/>
      <point x="244" y="-74" type="curve"/>
      <point x="258" y="0" type="line"/>
      <point x="143" y="0" type="line"/>
      <point x="130" y="-129" type="line"/>
      <point x="268" y="-134"/>
      <point x="299" y="-179"/>
      <point x="299" y="-244" type="curve" smooth="yes"/>
      <point x="299" y="-308"/>
      <point x="254" y="-333"/>
      <point x="198" y="-333" type="curve" smooth="yes"/>
      <point x="152" y="-333"/>
      <point x="98" y="-316"/>
      <point x="58" y="-292" type="curve"/>
      <point x="28" y="-380" type="line"/>
      <point x="90" y="-422"/>
      <point x="167" y="-445"/>
    </contour>
  </outline>
</glyph>
<glyph name="uni00B9" format="1">
  <advance width="975"/>
  <unicode hex="00B9"/>
  <outline>
    <contour>
      <point x="446" y="663" type="line"/>
      <point x="694" y="663" type="line"/>
      <point x="694" y="1689" type="line"/>
      <point x="475" y="1702" type="line"/>
      <point x="215" y="1594" type="line"/>
      <point x="280" y="1426" type="line"/>
      <point x="446" y="1500" type="line"/>
    </contour>
  </outline>
</glyph>
<glyph name="guillemotright" format="1">
  <advance width="1565"/>
  <unicode hex="00BB"/>
  <outline>
    <contour>
      <point x="219" y="61" type="line"/>
      <point x="831" y="486" type="line"/>
      <point x="831" y="690" type="line"/>
      <point x="219" y="1114" type="line"/>
      <point x="219" y="849" type="line"/>
      <point x="567" y="589" type="line"/>
      <point x="219" y="328" type="line"/>
    </contour>
    <contour>
      <point x="845" y="61" type="line"/>
      <point x="1456" y="486" type="line"/>
      <point x="1456" y="690" type="line"/>
      <point x="844" y="1114" type="line"/>
      <point x="844" y="849" type="line"/>
      <point x="1192" y="589" type="line"/>
      <point x="845" y="328" type="line"/>
    </contour>
  </outline>
</glyph>
<glyph name="onequarter" format="1">
  <advance width="2085"/>
  <unicode hex="00BC"/>
  <outline>
    <contour>
      <point x="1854" y="-18" type="line"/>
      <point x="1854" y="224" type="line"/>
      <point x="1996" y="224" type="line"/>
      <point x="1996" y="393" type="line"/>
      <point x="1854" y="393" type="line"/>
      <point x="1854" y="1076" type="line"/>
      <point x="1666" y="1123" type="line"/>
      <point x="1145" y="371" type="line"/>
      <point x="1175" y="224" type="line"/>
      <point x="1648" y="224" type="line"/>
      <point x="1648" y="0" type="line"/>
    </contour>
    <contour>
      <point x="336" y="660" type="line"/>
      <point x="565" y="660" type="line"/>
      <point x="565" y="1585" type="line"/>
      <point x="400" y="1622" type="line"/>
      <point x="98" y="1489" type="line"/>
      <point x="161" y="1341" type="line"/>
      <point x="336" y="1421" type="line"/>
    </contour>
    <contour>
      <point x="584" y="-63" type="line"/>
      <point x="1602" y="1596" type="line"/>
      <point x="1438" y="1687" type="line"/>
      <point x="419" y="26" type="line"/>
    </contour>
    <contour>
      <point x="1365" y="392" type="line"/>
      <point x="1648" y="815" type="line"/>
      <point x="1648" y="392" type="line"/>
    </contour>
  </outline>
</glyph>
<glyph name="onehalf" format="1">
  <advance width="2162"/>
  <unicode hex="00BD"/>
  <outline>
    <contour>
      <point x="1344" y="0" type="line"/>
      <point x="2018" y="0" type="line"/>
      <point x="2018" y="178" type="line"/>
      <point x="1659" y="178" type="line"/>
      <point x="1682" y="198"/>
      <point x="1737" y="238"/>
      <point x="1769" y="263" type="curve" smooth="yes"/>
      <point x="1924" y="382"/>
      <point x="2031" y="501"/>
      <point x="2031" y="653" type="curve" smooth="yes"/>
      <point x="2031" y="868"/>
      <point x="1865" y="955"/>
      <point x="1676" y="955" type="curve" smooth="yes"/>
      <point x="1554" y="955"/>
      <point x="1422" y="917"/>
      <point x="1323" y="853" type="curve"/>
      <point x="1374" y="680" type="line"/>
      <point x="1462" y="728"/>
      <point x="1565" y="760"/>
      <point x="1647" y="760" type="curve" smooth="yes"/>
      <point x="1734" y="760"/>
      <point x="1799" y="725"/>
      <point x="1799" y="635" type="curve" smooth="yes"/>
      <point x="1799" y="545"/>
      <point x="1742" y="475"/>
      <point x="1636" y="391" type="curve" smooth="yes"/>
      <point x="1600" y="361"/>
      <point x="1401" y="213"/>
      <point x="1344" y="163" type="curve"/>
    </contour>
    <contour>
      <point x="337" y="660" type="line"/>
      <point x="565" y="660" type="line"/>
      <point x="565" y="1585" type="line"/>
      <point x="400" y="1622" type="line"/>
      <point x="99" y="1489" type="line"/>
      <point x="161" y="1341" type="line"/>
      <point x="337" y="1421" type="line"/>
    </contour>
    <contour>
      <point x="584" y="-63" type="line"/>
      <point x="1602" y="1596" type="line"/>
      <point x="1438" y="1687" type="line"/>
      <point x="419" y="26" type="line"/>
    </contour>
  </outline>
</glyph>
<glyph name="threequarters" format="1">
  <advance width="2274"/>
  <unicode hex="00BE"/>
  <outline>
    <contour>
      <point x="460" y="543" type="curve" smooth="yes"/>
      <point x="650" y="543"/>
      <point x="829" y="632"/>
      <point x="829" y="851" type="curve" smooth="yes"/>
      <point x="829" y="947"/>
      <point x="779" y="1085"/>
      <point x="605" y="1115" type="curve"/>
      <point x="727" y="1138"/>
      <point x="792" y="1246"/>
      <point x="794" y="1348" type="curve" smooth="yes"/>
      <point x="798" y="1553"/>
      <point x="628" y="1631"/>
      <point x="446" y="1631" type="curve" smooth="yes"/>
      <point x="340" y="1631"/>
      <point x="217" y="1599"/>
      <point x="120" y="1551" type="curve"/>
      <point x="195" y="1384" type="line"/>
      <point x="270" y="1424"/>
      <point x="345" y="1444"/>
      <point x="412" y="1444" type="curve" smooth="yes"/>
      <point x="513" y="1444"/>
      <point x="571" y="1408"/>
      <point x="571" y="1323" type="curve" smooth="yes"/>
      <point x="571" y="1223"/>
      <point x="478" y="1187"/>
      <point x="352" y="1188" type="curve"/>
      <point x="352" y="1030" type="line"/>
      <point x="493" y="1027"/>
      <point x="592" y="976"/>
      <point x="592" y="866" type="curve" smooth="yes"/>
      <point x="592" y="767"/>
      <point x="518" y="726"/>
      <point x="421" y="726" type="curve" smooth="yes"/>
      <point x="347" y="726"/>
      <point x="259" y="750"/>
      <point x="187" y="789" type="curve"/>
      <point x="124" y="617" type="line"/>
      <point x="227" y="571"/>
      <point x="349" y="543"/>
    </contour>
    <contour>
      <point x="2028" y="-18" type="line"/>
      <point x="2028" y="224" type="line"/>
      <point x="2170" y="224" type="line"/>
      <point x="2170" y="393" type="line"/>
      <point x="2028" y="393" type="line"/>
      <point x="2028" y="1100" type="line"/>
      <point x="1848" y="1147" type="line"/>
      <point x="1315" y="371" type="line"/>
      <point x="1345" y="224" type="line"/>
      <point x="1828" y="224" type="line"/>
      <point x="1828" y="0" type="line"/>
    </contour>
    <contour>
      <point x="765" y="-63" type="line"/>
      <point x="1783" y="1596" type="line"/>
      <point x="1619" y="1687" type="line"/>
      <point x="600" y="26" type="line"/>
    </contour>
    <contour>
      <point x="1525" y="392" type="line"/>
      <point x="1828" y="842" type="line"/>
      <point x="1828" y="392" type="line"/>
    </contour>
  </outline>
</glyph>
<glyph name="AE" format="1">
  <advance width="1993"/>
  <unicode hex="00C6"/>
  <outline>
    <contour>
      <point x="1308" y="1578" type="move" name="top"/>
    </contour>
    <contour>
      <point x="-12" y="0" type="line"/>
      <point x="340" y="0" type="line"/>
      <point x="502" y="346" type="line"/>
      <point x="972" y="346" type="line"/>
      <point x="972" y="0" type="line"/>
      <point x="1920" y="0" type="line"/>
      <point x="1920" y="233" type="line"/>
      <point x="1278" y="233" type="line"/>
      <point x="1278" y="718" type="line"/>
      <point x="1828" y="718" type="line"/>
      <point x="1828" y="919" type="line"/>
      <point x="1278" y="919" type="line"/>
      <point x="1278" y="1346" type="line"/>
      <point x="1911" y="1346" type="line"/>
      <point x="1911" y="1578" type="line"/>
      <point x="754" y="1578" type="line"/>
    </contour>
    <contour>
      <point x="581" y="543" type="line"/>
      <point x="971" y="1375" type="line"/>
      <point x="971" y="543" type="line"/>
    </contour>
  </outline>
</glyph>
<glyph name="multiply" format="1">
  <advance width="1276"/>
  <unicode hex="00D7"/>
  <outline>
    <contour>
      <point x="355" y="103" type="line"/>
      <point x="653" y="388" type="line"/>
      <point x="950" y="103" type="line"/>
      <point x="1110" y="274" type="line"/>
      <point x="823" y="551" type="line"/>
      <point x="1110" y="827" type="line"/>
      <point x="950" y="999" type="line"/>
      <point x="653" y="713" type="line"/>
      <point x="355" y="999" type="line"/>
      <point x="195" y="827" type="line"/>
      <point x="483" y="551" type="line"/>
      <point x="195" y="274" type="line"/>
    </contour>
  </outline>
</glyph>
<glyph name="Thorn" format="1">
  <advance width="1477"/>
  <unicode hex="00DE"/>
  <outline>
    <contour>
      <point x="182" y="0" type="line"/>
      <point x="502" y="0" type="line"/>
      <point x="502" y="354" type="line"/>
      <point x="544" y="354" type="line" smooth="yes"/>
      <point x="1026" y="354"/>
      <point x="1366" y="419"/>
      <point x="1366" y="859" type="curve" smooth="yes"/>
      <point x="1366" y="1223"/>
      <point x="1103" y="1294"/>
      <point x="635" y="1294" type="curve" smooth="yes"/>
      <point x="502" y="1294" type="line"/>
      <point x="502" y="1578" type="line"/>
      <point x="182" y="1578" type="line"/>
    </contour>
    <contour>
      <point x="502" y="567" type="line"/>
      <point x="502" y="1093" type="line"/>
      <point x="632" y="1093" type="line" smooth="yes"/>
      <point x="907" y="1093"/>
      <point x="1049" y="1062"/>
      <point x="1049" y="827" type="curve" smooth="yes"/>
      <point x="1049" y="598"/>
      <point x="847" y="567"/>
      <point x="603" y="567" type="curve" smooth="yes"/>
    </contour>
  </outline>
</glyph>
<glyph name="germandbls" format="1">
  <advance width="1534"/>
  <unicode hex="00DF"/>
  <outline>
    <contour>
      <point x="613" y="-178" type="line"/>
      <point x="1034" y="-178"/>
      <point x="1458" y="-29"/>
      <point x="1458" y="366" type="curve" smooth="yes"/>
      <point x="1458" y="639"/>
      <point x="1296" y="802"/>
      <point x="982" y="826" type="curve"/>
      <point x="1207" y="853"/>
      <point x="1293" y="1001"/>
      <point x="1293" y="1162" type="curve" smooth="yes"/>
      <point x="1293" y="1367"/>
      <point x="1171" y="1577"/>
      <point x="737" y="1579" type="curve" smooth="yes"/>
      <point x="320" y="1579"/>
      <point x="155" y="1372"/>
      <point x="155" y="998" type="curve" smooth="yes"/>
      <point x="155" y="-2" type="line"/>
      <point x="477" y="5" type="line"/>
      <point x="477" y="990" type="line" smooth="yes"/>
      <point x="477" y="1239"/>
      <point x="517" y="1362"/>
      <point x="737" y="1362" type="curve" smooth="yes"/>
      <point x="940" y="1362"/>
      <point x="1011" y="1293"/>
      <point x="1011" y="1153" type="curve" smooth="yes"/>
      <point x="1011" y="960"/>
      <point x="880" y="905"/>
      <point x="677" y="906" type="curve" smooth="yes"/>
      <point x="673" y="906"/>
      <point x="628" y="906"/>
      <point x="624" y="907" type="curve"/>
      <point x="624" y="802"/>
      <point x="624" y="713"/>
      <point x="624" y="713" type="curve"/>
      <point x="920" y="713"/>
      <point x="1143" y="631"/>
      <point x="1143" y="383" type="curve" smooth="yes"/>
      <point x="1143" y="168"/>
      <point x="990" y="90"/>
      <point x="612" y="68" type="curve"/>
    </contour>
  </outline>
</glyph>
<glyph name="ae" format="1">
  <advance width="1833"/>
  <unicode hex="00E6"/>
  <outline>
    <contour>
      <point x="939" y="1165" type="move" name="top"/>
    </contour>
    <contour>
      <point x="458" y="-20" type="curve" smooth="yes"/>
      <point x="640" y="-20"/>
      <point x="815" y="56"/>
      <point x="904" y="202" type="curve"/>
      <point x="974" y="47"/>
      <point x="1133" y="-20"/>
      <point x="1305" y="-20" type="curve" smooth="yes"/>
      <point x="1468" y="-20"/>
      <point x="1621" y="21"/>
      <point x="1736" y="98" type="curve"/>
      <point x="1661" y="291" type="line"/>
      <point x="1562" y="226"/>
      <point x="1459" y="196"/>
      <point x="1350" y="196" type="curve" smooth="yes"/>
      <point x="1132" y="196"/>
      <point x="1057" y="335"/>
      <point x="1053" y="521" type="curve"/>
      <point x="1758" y="521" type="line"/>
      <point x="1763" y="555"/>
      <point x="1767" y="607"/>
      <point x="1767" y="679" type="curve" smooth="yes"/>
      <point x="1767" y="980"/>
      <point x="1608" y="1185"/>
      <point x="1308" y="1185" type="curve" smooth="yes"/>
      <point x="1138" y="1185"/>
      <point x="973" y="1098"/>
      <point x="918" y="967" type="curve"/>
      <point x="878" y="1140"/>
      <point x="724" y="1185"/>
      <point x="567" y="1185" type="curve" smooth="yes"/>
      <point x="415" y="1185"/>
      <point x="227" y="1130"/>
      <point x="129" y="1072" type="curve"/>
      <point x="198" y="882" type="line"/>
      <point x="269" y="924"/>
      <point x="423" y="975"/>
      <point x="554" y="975" type="curve" smooth="yes"/>
      <point x="766" y="975"/>
      <point x="768" y="839"/>
      <point x="768" y="704" type="curve" smooth="yes"/>
      <point x="768" y="672" type="line"/>
      <point x="714" y="692"/>
      <point x="604" y="708"/>
      <point x="516" y="708" type="curve" smooth="yes"/>
      <point x="308" y="708"/>
      <point x="64" y="629"/>
      <point x="61" y="357" type="curve" smooth="yes"/>
      <point x="59" y="103"/>
      <point x="206" y="-20"/>
    </contour>
    <contour>
      <point x="532" y="190" type="curve" smooth="yes"/>
      <point x="417" y="190"/>
      <point x="350" y="253"/>
      <point x="350" y="377" type="curve" smooth="yes"/>
      <point x="350" y="519"/>
      <point x="446" y="559"/>
      <point x="618" y="559" type="curve" smooth="yes"/>
      <point x="664" y="559"/>
      <point x="716" y="554"/>
      <point x="768" y="547" type="curve"/>
      <point x="768" y="299" type="line"/>
      <point x="698" y="236"/>
      <point x="620" y="190"/>
    </contour>
    <contour>
      <point x="1055" y="691" type="line"/>
      <point x="1055" y="867"/>
      <point x="1138" y="986"/>
      <point x="1303" y="986" type="curve" smooth="yes"/>
      <point x="1443" y="986"/>
      <point x="1510" y="883"/>
      <point x="1510" y="691" type="curve"/>
    </contour>
  </outline>
</glyph>
<glyph name="eth" format="1">
  <advance width="1288"/>
  <unicode hex="00F0"/>
  <outline>
    <contour>
      <point x="635" y="-19" type="curve" smooth="yes"/>
      <point x="1012" y="-19"/>
      <point x="1189" y="242"/>
      <point x="1189" y="649" type="curve" smooth="yes"/>
      <point x="1189" y="1007"/>
      <point x="1057" y="1271"/>
      <point x="884" y="1469" type="curve"/>
      <point x="1102" y="1589" type="line"/>
      <point x="1022" y="1702" type="line"/>
      <point x="781" y="1566" type="line"/>
      <point x="713" y="1632"/>
      <point x="616" y="1711"/>
      <point x="526" y="1765" type="curve"/>
      <point x="400" y="1614" type="line"/>
      <point x="458" y="1580"/>
      <point x="550" y="1503"/>
      <point x="607" y="1450" type="curve"/>
      <point x="443" y="1359" type="line"/>
      <point x="516" y="1261" type="line"/>
      <point x="701" y="1356" type="line"/>
      <point x="782" y="1273"/>
      <point x="858" y="1160"/>
      <point x="879" y="1031" type="curve"/>
      <point x="807" y="1105"/>
      <point x="689" y="1156"/>
      <point x="554" y="1156" type="curve" smooth="yes"/>
      <point x="288" y="1156"/>
      <point x="103" y="923"/>
      <point x="103" y="594" type="curve" smooth="yes"/>
      <point x="103" y="181"/>
      <point x="321" y="-19"/>
    </contour>
    <contour>
      <point x="629" y="178" type="curve" smooth="yes"/>
      <point x="449" y="178"/>
      <point x="403" y="354"/>
      <point x="403" y="562" type="curve" smooth="yes"/>
      <point x="403" y="794"/>
      <point x="453" y="958"/>
      <point x="641" y="958" type="curve" smooth="yes"/>
      <point x="806" y="958"/>
      <point x="885" y="817"/>
      <point x="885" y="600" type="curve" smooth="yes"/>
      <point x="885" y="367"/>
      <point x="839" y="178"/>
    </contour>
  </outline>
</glyph>
<glyph name="divide" format="1">
  <advance width="1196"/>
  <unicode hex="00F7"/>
  <outline>
    <contour>
      <point x="602" y="151" type="curve" smooth="yes"/>
      <point x="703" y="151"/>
      <point x="769" y="220"/>
      <point x="769" y="318" type="curve" smooth="yes"/>
      <point x="769" y="416"/>
      <point x="703" y="485"/>
      <point x="602" y="485" type="curve" smooth="yes"/>
      <point x="502" y="485"/>
      <point x="435" y="416"/>
      <point x="435" y="318" type="curve" smooth="yes"/>
      <point x="435" y="219"/>
      <point x="502" y="151"/>
    </contour>
    <contour>
      <point x="116" y="632" type="line"/>
      <point x="1088" y="632" type="line"/>
      <point x="1088" y="837" type="line"/>
      <point x="116" y="837" type="line"/>
    </contour>
    <contour>
      <point x="602" y="977" type="curve" smooth="yes"/>
      <point x="703" y="977"/>
      <point x="767" y="1046"/>
      <point x="767" y="1144" type="curve" smooth="yes"/>
      <point x="767" y="1242"/>
      <point x="703" y="1311"/>
      <point x="602" y="1311" type="curve" smooth="yes"/>
      <point x="502" y="1311"/>
      <point x="433" y="1242"/>
      <point x="433" y="1144" type="curve" smooth="yes"/>
      <point x="433" y="1045"/>
      <point x="501" y="977"/>
    </contour>
  </outline>
</glyph>
<glyph name="oslash" format="1">
  <advance width="1316"/>
  <unicode hex="00F8"/>
  <outline>
    <contour>
      <point x="458" y="-183" type="line"/>
      <point x="515" y="-11" type="line"/>
      <point x="559" y="-20"/>
      <point x="606" y="-24"/>
      <point x="654" y="-24" type="curve" smooth="yes"/>
      <point x="1020" y="-24"/>
      <point x="1212" y="212"/>
      <point x="1212" y="582" type="curve" smooth="yes"/>
      <point x="1212" y="852"/>
      <point x="1109" y="1057"/>
      <point x="901" y="1148" type="curve"/>
      <point x="962" y="1330" type="line"/>
      <point x="865" y="1364" type="line"/>
      <point x="803" y="1179" type="line"/>
      <point x="756" y="1189"/>
      <point x="705" y="1194"/>
      <point x="653" y="1194" type="curve" smooth="yes"/>
      <point x="291" y="1194"/>
      <point x="95" y="955"/>
      <point x="95" y="582" type="curve" smooth="yes"/>
      <point x="95" y="312"/>
      <point x="199" y="106"/>
      <point x="413" y="19" type="curve"/>
      <point x="357" y="-149" type="line"/>
    </contour>
    <contour>
      <point x="490" y="251" type="line"/>
      <point x="414" y="332"/>
      <point x="399" y="469"/>
      <point x="399" y="584" type="curve" smooth="yes"/>
      <point x="399" y="834"/>
      <point x="470" y="985"/>
      <point x="654" y="985" type="curve" smooth="yes"/>
      <point x="682" y="985"/>
      <point x="709" y="982"/>
      <point x="734" y="974" type="curve"/>
    </contour>
    <contour>
      <point x="654" y="183" type="curve" smooth="yes"/>
      <point x="629" y="183"/>
      <point x="604" y="186"/>
      <point x="582" y="192" type="curve"/>
      <point x="823" y="911" type="line"/>
      <point x="888" y="842"/>
      <point x="910" y="722"/>
      <point x="910" y="584" type="curve" smooth="yes"/>
      <point x="910" y="333"/>
      <point x="838" y="183"/>
    </contour>
  </outline>
</glyph>
<glyph name="thorn" format="1">
  <advance width="1339"/>
  <unicode hex="00FE"/>
  <outline>
    <contour>
      <point x="146" y="-462" type="line"/>
      <point x="451" y="-431" type="line"/>
      <point x="451" y="84" type="line"/>
      <point x="530" y="11"/>
      <point x="643" y="-19"/>
      <point x="755" y="-19" type="curve" smooth="yes"/>
      <point x="1045" y="-19"/>
      <point x="1236" y="227"/>
      <point x="1236" y="586" type="curve" smooth="yes"/>
      <point x="1236" y="931"/>
      <point x="1078" y="1185"/>
      <point x="781" y="1185" type="curve" smooth="yes"/>
      <point x="657" y="1185"/>
      <point x="539" y="1135"/>
      <point x="449" y="1053" type="curve"/>
      <point x="448" y="1572" type="line"/>
      <point x="146" y="1572" type="line"/>
    </contour>
    <contour>
      <point x="693" y="181" type="curve" smooth="yes"/>
      <point x="613" y="181"/>
      <point x="519" y="209"/>
      <point x="454" y="261" type="curve"/>
      <point x="462" y="881" type="line"/>
      <point x="533" y="942"/>
      <point x="621" y="983"/>
      <point x="708" y="983" type="curve" smooth="yes"/>
      <point x="883" y="983"/>
      <point x="935" y="794"/>
      <point x="935" y="565" type="curve" smooth="yes"/>
      <point x="935" y="334"/>
      <point x="845" y="181"/>
    </contour>
  </outline>
</glyph>
<glyph name="Hbar" format="1">
  <advance width="1632"/>
  <unicode hex="0126"/>
  <outline>
    <contour>
      <point x="35" y="1222" type="line"/>
      <point x="1594" y="1222" type="line"/>
      <point x="1594" y="1373" type="line"/>
      <point x="35" y="1373" type="line"/>
    </contour>
    <component base="H"/>
  </outline>
</glyph>
<glyph name="hbar" format="1">
  <advance width="1349"/>
  <unicode hex="0127"/>
  <outline>
    <contour>
      <point x="154" y="0" type="line"/>
      <point x="459" y="0" type="line"/>
      <point x="459" y="885" type="line"/>
      <point x="483" y="910"/>
      <point x="583" y="986"/>
      <point x="718" y="986" type="curve" smooth="yes"/>
      <point x="836" y="986"/>
      <point x="901" y="889"/>
      <point x="901" y="742" type="curve" smooth="yes"/>
      <point x="901" y="0" type="line"/>
      <point x="1207" y="0" type="line"/>
      <point x="1207" y="724" type="line" smooth="yes"/>
      <point x="1207" y="1056"/>
      <point x="1025" y="1194"/>
      <point x="801" y="1194" type="curve" smooth="yes"/>
      <point x="659" y="1194"/>
      <point x="533" y="1131"/>
      <point x="459" y="1044" type="curve"/>
      <point x="459" y="1314" type="line"/>
      <point x="783" y="1314" type="line"/>
      <point x="783" y="1464" type="line"/>
      <point x="459" y="1464" type="line"/>
      <point x="459" y="1632" type="line"/>
      <point x="154" y="1578" type="line"/>
      <point x="154" y="1464" type="line"/>
      <point x="20" y="1464" type="line"/>
      <point x="20" y="1314" type="line"/>
      <point x="154" y="1314" type="line"/>
    </contour>
  </outline>
</glyph>
<glyph name="dotlessi" format="1">
  <advance width="718"/>
  <unicode hex="0131"/>
  <outline>
    <contour>
      <point x="369" y="1165" type="move" name="top"/>
    </contour>
    <contour>
      <point x="371" y="0" type="move" name="ogonek"/>
    </contour>
    <contour>
      <point x="204" y="0" type="line"/>
      <point x="507" y="0" type="line"/>
      <point x="507" y="1165" type="line"/>
      <point x="204" y="1165" type="line"/>
    </contour>
  </outline>
</glyph>
<glyph name="kgreenlandic" format="1">
  <advance width="1308"/>
  <unicode hex="0138"/>
  <outline>
    <contour>
      <point x="149" y="0" type="line"/>
      <point x="455" y="0" type="line"/>
      <point x="455" y="413" type="line"/>
      <point x="554" y="502" type="line"/>
      <point x="929" y="0" type="line"/>
      <point x="1282" y="0" type="line"/>
      <point x="750" y="646" type="line"/>
      <point x="1273" y="1165" type="line"/>
      <point x="919" y="1165" type="line"/>
      <point x="455" y="677" type="line"/>
      <point x="455" y="1165" type="line"/>
      <point x="149" y="1165" type="line"/>
    </contour>
  </outline>
</glyph>
<glyph name="Lslash" format="1">
  <advance width="1208"/>
  <unicode hex="0141"/>
  <outline>
    <contour>
      <point x="2" y="441" type="line"/>
      <point x="754" y="946" type="line"/>
      <point x="754" y="1148" type="line"/>
      <point x="2" y="644" type="line"/>
    </contour>
    <component base="L"/>
  </outline>
</glyph>
<glyph name="lslash" format="1">
  <advance width="646"/>
  <unicode hex="0142"/>
  <outline>
    <contour>
      <point x="-15" y="515" type="line"/>
      <point x="658" y="917" type="line"/>
      <point x="658" y="1104" type="line"/>
      <point x="-15" y="692" type="line"/>
    </contour>
    <component base="l"/>
  </outline>
</glyph>
<glyph name="Eng" format="1">
  <advance width="1684"/>
  <unicode hex="014A"/>
  <outline>
    <contour>
      <point x="1067" y="-534" type="line"/>
      <point x="1345" y="-467"/>
      <point x="1500" y="-359"/>
      <point x="1500" y="-31" type="curve" smooth="yes"/>
      <point x="1500" y="265" type="line"/>
      <point x="1204" y="265" type="line"/>
      <point x="1204" y="52" type="line" smooth="yes"/>
      <point x="1204" y="-193"/>
      <point x="1195" y="-233"/>
      <point x="972" y="-321" type="curve"/>
    </contour>
    <component base="N"/>
  </outline>
</glyph>
<glyph name="eng" format="1">
  <advance width="1343"/>
  <unicode hex="014B"/>
  <outline>
    <contour>
      <point x="769" y="-534" type="line"/>
      <point x="1047" y="-467"/>
      <point x="1202" y="-359"/>
      <point x="1202" y="-31" type="curve" smooth="yes"/>
      <point x="1202" y="265" type="line"/>
      <point x="899" y="265" type="line"/>
      <point x="899" y="52" type="line" smooth="yes"/>
      <point x="899" y="-193"/>
      <point x="890" y="-233"/>
      <point x="674" y="-321" type="curve"/>
    </contour>
    <component base="n"/>
  </outline>
</glyph>
<glyph name="OE" format="1">
  <advance width="2258"/>
  <unicode hex="0152"/>
  <outline>
    <contour>
      <point x="778" y="-32" type="curve" smooth="yes"/>
      <point x="947" y="-32"/>
      <point x="1097" y="38"/>
      <point x="1179" y="125" type="curve"/>
      <point x="1179" y="0" type="line"/>
      <point x="2210" y="0" type="line"/>
      <point x="2210" y="233" type="line"/>
      <point x="1498" y="233" type="line"/>
      <point x="1498" y="723" type="line"/>
      <point x="2122" y="723" type="line"/>
      <point x="2122" y="919" type="line"/>
      <point x="1498" y="919" type="line"/>
      <point x="1498" y="1345" type="line"/>
      <point x="2199" y="1345" type="line"/>
      <point x="2199" y="1578" type="line"/>
      <point x="1179" y="1578" type="line"/>
      <point x="1179" y="1483" type="line"/>
      <point x="1102" y="1552"/>
      <point x="964" y="1604"/>
      <point x="802" y="1604" type="curve" smooth="yes"/>
      <point x="323" y="1604"/>
      <point x="111" y="1277"/>
      <point x="111" y="788" type="curve" smooth="yes"/>
      <point x="111" y="311"/>
      <point x="321" y="-32"/>
    </contour>
    <contour>
      <point x="809" y="203" type="curve" smooth="yes"/>
      <point x="503" y="203"/>
      <point x="433" y="477"/>
      <point x="433" y="788" type="curve" smooth="yes"/>
      <point x="433" y="1095"/>
      <point x="502" y="1372"/>
      <point x="806" y="1372" type="curve" smooth="yes"/>
      <point x="1110" y="1372"/>
      <point x="1179" y="1097"/>
      <point x="1179" y="788" type="curve" smooth="yes"/>
      <point x="1179" y="488"/>
      <point x="1112" y="203"/>
    </contour>
  </outline>
</glyph>
<glyph name="oe" format="1">
  <advance width="1963"/>
  <unicode hex="0153"/>
  <outline>
    <contour>
      <point x="624" y="-24" type="curve" smooth="yes"/>
      <point x="802" y="-24"/>
      <point x="936" y="39"/>
      <point x="1024" y="149" type="curve"/>
      <point x="1124" y="39"/>
      <point x="1274" y="-24"/>
      <point x="1464" y="-24" type="curve" smooth="yes"/>
      <point x="1595" y="-24"/>
      <point x="1734" y="13"/>
      <point x="1850" y="78" type="curve"/>
      <point x="1786" y="287" type="line"/>
      <point x="1702" y="222"/>
      <point x="1600" y="186"/>
      <point x="1487" y="186" type="curve" smooth="yes"/>
      <point x="1293" y="186"/>
      <point x="1197" y="325"/>
      <point x="1192" y="519" type="curve"/>
      <point x="1902" y="519" type="line"/>
      <point x="1904" y="529"/>
      <point x="1905" y="658"/>
      <point x="1905" y="669" type="curve" smooth="yes"/>
      <point x="1905" y="973"/>
      <point x="1747" y="1194"/>
      <point x="1436" y="1194" type="curve" smooth="yes"/>
      <point x="1255" y="1194"/>
      <point x="1119" y="1125"/>
      <point x="1027" y="1013" type="curve"/>
      <point x="938" y="1128"/>
      <point x="803" y="1194"/>
      <point x="624" y="1194" type="curve" smooth="yes"/>
      <point x="262" y="1194"/>
      <point x="66" y="955"/>
      <point x="66" y="582" type="curve" smooth="yes"/>
      <point x="66" y="213"/>
      <point x="259" y="-24"/>
    </contour>
    <contour>
      <point x="624" y="183" type="curve" smooth="yes"/>
      <point x="408" y="183"/>
      <point x="369" y="403"/>
      <point x="369" y="584" type="curve" smooth="yes"/>
      <point x="369" y="834"/>
      <point x="441" y="985"/>
      <point x="624" y="985" type="curve" smooth="yes"/>
      <point x="808" y="985"/>
      <point x="880" y="834"/>
      <point x="880" y="584" type="curve" smooth="yes"/>
      <point x="880" y="333"/>
      <point x="808" y="183"/>
    </contour>
    <contour>
      <point x="1185" y="678" type="curve"/>
      <point x="1190" y="851"/>
      <point x="1266" y="987"/>
      <point x="1432" y="987" type="curve" smooth="yes"/>
      <point x="1591" y="987"/>
      <point x="1658" y="877"/>
      <point x="1661" y="680" type="curve"/>
      <point x="1661" y="677"/>
      <point x="1376" y="678"/>
    </contour>
  </outline>
</glyph>
<glyph name="florin" format="1">
  <advance width="1283"/>
  <unicode hex="0192"/>
  <outline>
    <contour>
      <point x="406" y="0" type="line"/>
      <point x="709" y="0" type="line"/>
      <point x="828" y="1012" type="line"/>
      <point x="1128" y="1012" type="line"/>
      <point x="1143" y="1157" type="line"/>
      <point x="844" y="1157" type="line"/>
      <point x="870" y="1366"/>
      <point x="937" y="1413"/>
      <point x="1022" y="1413" type="curve" smooth="yes"/>
      <point x="1072" y="1413"/>
      <point x="1123" y="1410"/>
      <point x="1179" y="1394" type="curve"/>
      <point x="1205" y="1615" type="line"/>
      <point x="1119" y="1635"/>
      <point x="1042" y="1644"/>
      <point x="967" y="1644" type="curve" smooth="yes"/>
      <point x="736" y="1644"/>
      <point x="577" y="1507"/>
      <point x="538" y="1157" type="curve"/>
      <point x="347" y="1157" type="line"/>
      <point x="331" y="1012" type="line"/>
      <point x="523" y="1012" type="line"/>
    </contour>
  </outline>
</glyph>
<glyph name="uni0237" format="1">
  <advance width="850"/>
  <unicode hex="0237"/>
  <outline>
    <contour>
      <point x="476" y="1165" type="move" name="top"/>
    </contour>
    <contour>
      <point x="210" y="-439" type="line"/>
      <point x="488" y="-371"/>
      <point x="623" y="-196"/>
      <point x="623" y="74" type="curve" smooth="yes"/>
      <point x="623" y="1165" type="line"/>
      <point x="317" y="1165" type="line"/>
      <point x="317" y="135" type="line" smooth="yes"/>
      <point x="317" y="-57"/>
      <point x="306" y="-139"/>
      <point x="117" y="-237" type="curve"/>
    </contour>
  </outline>
</glyph>
<glyph name="circumflex" format="1">
  <advance width="1121"/>
  <unicode hex="02C6"/>
  <outline>
    <contour>
      <point x="561" y="1098" type="move" name="_top"/>
    </contour>
    <contour>
      <point x="161" y="1251" type="line"/>
      <point x="430" y="1251" type="line"/>
      <point x="556" y="1500" type="line"/>
      <point x="686" y="1251" type="line"/>
      <point x="957" y="1251" type="line"/>
      <point x="694" y="1678" type="line"/>
      <point x="419" y="1678" type="line"/>
    </contour>
  </outline>
</glyph>
<glyph name="caron" format="1">
  <advance width="1159"/>
  <unicode hex="02C7"/>
  <outline>
    <contour>
      <point x="578" y="1165" type="move" name="_top"/>
    </contour>
    <contour>
      <point x="438" y="1331" type="line"/>
      <point x="709" y="1331" type="line"/>
      <point x="987" y="1785" type="line"/>
      <point x="717" y="1785" type="line"/>
      <point x="573" y="1515" type="line"/>
      <point x="433" y="1785" type="line"/>
      <point x="164" y="1785" type="line"/>
    </contour>
  </outline>
</glyph>
<glyph name="breve" format="1">
  <advance width="791"/>
  <unicode hex="02D8"/>
  <outline>
    <contour>
      <point x="397" y="1165" type="move" name="_top"/>
    </contour>
    <contour>
      <point x="392" y="1308" type="curve" smooth="yes"/>
      <point x="595" y="1308"/>
      <point x="706" y="1408"/>
      <point x="713" y="1602" type="curve"/>
      <point x="543" y="1602" type="line"/>
      <point x="542" y="1522"/>
      <point x="490" y="1480"/>
      <point x="393" y="1480" type="curve" smooth="yes"/>
      <point x="299" y="1480"/>
      <point x="247" y="1522"/>
      <point x="245" y="1602" type="curve"/>
      <point x="76" y="1602" type="line"/>
      <point x="83" y="1408"/>
      <point x="192" y="1308"/>
    </contour>
  </outline>
</glyph>
<glyph name="dotaccent" format="1">
  <advance width="637"/>
  <unicode hex="02D9"/>
  <outline>
    <contour>
      <point x="317" y="1165" type="move" name="_top"/>
    </contour>
    <contour>
      <point x="315" y="1334" type="curve" smooth="yes"/>
      <point x="412" y="1334"/>
      <point x="486" y="1405"/>
      <point x="486" y="1506" type="curve" smooth="yes"/>
      <point x="486" y="1606"/>
      <point x="411" y="1678"/>
      <point x="315" y="1678" type="curve" smooth="yes"/>
      <point x="216" y="1678"/>
      <point x="144" y="1606"/>
      <point x="144" y="1506" type="curve" smooth="yes"/>
      <point x="144" y="1408"/>
      <point x="214" y="1334"/>
    </contour>
  </outline>
</glyph>
<glyph name="ring" format="1">
  <advance width="965"/>
  <unicode hex="02DA"/>
  <outline>
    <contour>
      <point x="494" y="1165" type="move" name="_top"/>
    </contour>
    <contour>
      <point x="481" y="1670" type="move" name="top"/>
    </contour>
    <contour>
      <point x="496" y="1425" type="curve" smooth="yes"/>
      <point x="415" y="1425"/>
      <point x="364" y="1477"/>
      <point x="364" y="1560" type="curve" smooth="yes"/>
      <point x="364" y="1643"/>
      <point x="415" y="1695"/>
      <point x="496" y="1695" type="curve" smooth="yes"/>
      <point x="579" y="1695"/>
      <point x="631" y="1643"/>
      <point x="631" y="1560" type="curve" smooth="yes"/>
      <point x="631" y="1477"/>
      <point x="579" y="1425"/>
    </contour>
    <contour>
      <point x="496" y="1308" type="curve" smooth="yes"/>
      <point x="661" y="1308"/>
      <point x="764" y="1405"/>
      <point x="764" y="1560" type="curve" smooth="yes"/>
      <point x="764" y="1715"/>
      <point x="661" y="1813"/>
      <point x="496" y="1813" type="curve" smooth="yes"/>
      <point x="334" y="1813"/>
      <point x="232" y="1715"/>
      <point x="232" y="1560" type="curve" smooth="yes"/>
      <point x="232" y="1405"/>
      <point x="334" y="1308"/>
    </contour>
  </outline>
</glyph>
<glyph name="ogonek" format="1">
  <advance width="723"/>
  <unicode hex="02DB"/>
  <outline>
    <contour>
      <point x="417" y="0" type="move" name="_ogonek"/>
    </contour>
    <contour>
      <point x="439" y="-503" type="curve" smooth="yes"/>
      <point x="467" y="-503"/>
      <point x="503" y="-499"/>
      <point x="538" y="-490" type="curve"/>
      <point x="538" y="-340" type="line"/>
      <point x="517" y="-345"/>
      <point x="497" y="-347"/>
      <point x="480" y="-347" type="curve" smooth="yes"/>
      <point x="394" y="-347"/>
      <point x="347" y="-298"/>
      <point x="347" y="-229" type="curve" smooth="yes"/>
      <point x="347" y="-176"/>
      <point x="375" y="-91"/>
      <point x="484" y="0" type="curve"/>
      <point x="349" y="0" type="line"/>
      <point x="233" y="-80"/>
      <point x="179" y="-184"/>
      <point x="179" y="-277" type="curve" smooth="yes"/>
      <point x="179" y="-400"/>
      <point x="275" y="-503"/>
    </contour>
  </outline>
</glyph>
<glyph name="tilde" format="1">
  <advance width="1187"/>
  <unicode hex="02DC"/>
  <outline>
    <contour>
      <point x="581" y="1165" type="move" name="_top"/>
    </contour>
    <contour>
      <point x="196" y="1330" type="curve"/>
      <point x="279" y="1330" type="line"/>
      <point x="279" y="1561"/>
      <point x="592" y="1324"/>
      <point x="764" y="1324" type="curve" smooth="yes"/>
      <point x="890" y="1324"/>
      <point x="952" y="1400"/>
      <point x="952" y="1597" type="curve"/>
      <point x="869" y="1597" type="line"/>
      <point x="869" y="1386"/>
      <point x="550" y="1615"/>
      <point x="394" y="1615" type="curve" smooth="yes"/>
      <point x="264" y="1615"/>
      <point x="196" y="1543"/>
    </contour>
  </outline>
</glyph>
<glyph name="hungarumlaut" format="1">
  <advance width="1099"/>
  <unicode hex="02DD"/>
  <outline>
    <contour>
      <point x="449" y="1165" type="move" name="_top"/>
    </contour>
    <contour>
      <point x="220" y="1301" type="line"/>
      <point x="675" y="1757" type="line"/>
      <point x="474" y="1923" type="line"/>
      <point x="104" y="1396" type="line"/>
    </contour>
    <contour>
      <point x="643" y="1307" type="line"/>
      <point x="1151" y="1701" type="line"/>
      <point x="973" y="1890" type="line"/>
      <point x="539" y="1415" type="line"/>
    </contour>
  </outline>
</glyph>
<glyph name="uni0307" format="1">
  <advance width="637"/>
  <unicode hex="0307"/>
  <outline>
    <contour>
      <point x="307" y="1165" type="move" name="_top"/>
    </contour>
    <contour>
      <point x="308" y="1311" type="curve" smooth="yes"/>
      <point x="413" y="1311"/>
      <point x="479" y="1377"/>
      <point x="479" y="1483" type="curve" smooth="yes"/>
      <point x="479" y="1589"/>
      <point x="413" y="1654"/>
      <point x="308" y="1654" type="curve" smooth="yes"/>
      <point x="203" y="1654"/>
      <point x="137" y="1589"/>
      <point x="137" y="1483" type="curve" smooth="yes"/>
      <point x="137" y="1377"/>
      <point x="203" y="1311"/>
    </contour>
  </outline>
</glyph>
<glyph name="uni030F" format="1">
  <advance width="1165"/>
  <unicode hex="030F"/>
  <outline>
    <contour>
      <point x="780" y="1165" type="move" name="_top"/>
    </contour>
    <contour>
      <point x="586" y="1307" type="line"/>
      <point x="690" y="1415" type="line"/>
      <point x="256" y="1890" type="line"/>
      <point x="78" y="1701" type="line"/>
    </contour>
    <contour>
      <point x="1009" y="1301" type="line"/>
      <point x="1125" y="1396" type="line"/>
      <point x="755" y="1923" type="line"/>
      <point x="555" y="1757" type="line"/>
    </contour>
  </outline>
</glyph>
<glyph name="uni0311" format="1">
  <advance width="762"/>
  <unicode hex="0311"/>
  <outline>
    <contour>
      <point x="397" y="1165" type="move" name="_top"/>
    </contour>
    <contour>
      <point x="76" y="1308" type="curve"/>
      <point x="245" y="1308" type="line"/>
      <point x="247" y="1387"/>
      <point x="299" y="1430"/>
      <point x="393" y="1430" type="curve" smooth="yes"/>
      <point x="490" y="1430"/>
      <point x="542" y="1387"/>
      <point x="543" y="1308" type="curve"/>
      <point x="713" y="1308" type="line"/>
      <point x="706" y="1501"/>
      <point x="595" y="1602"/>
      <point x="392" y="1602" type="curve" smooth="yes"/>
      <point x="192" y="1602"/>
      <point x="83" y="1501"/>
    </contour>
  </outline>
</glyph>
<glyph name="uni0326" format="1">
  <advance width="761"/>
  <unicode hex="0326"/>
  <outline>
    <contour>
      <point x="427" y="0" type="move" name="_bot"/>
    </contour>
    <contour>
      <point x="279" y="-709" type="line"/>
      <point x="441" y="-662"/>
      <point x="563" y="-583"/>
      <point x="563" y="-367" type="curve" smooth="yes"/>
      <point x="563" y="-112" type="line"/>
      <point x="258" y="-112" type="line"/>
      <point x="258" y="-417" type="line"/>
      <point x="393" y="-417" type="line"/>
      <point x="394" y="-518"/>
      <point x="342" y="-574"/>
      <point x="227" y="-615" type="curve"/>
    </contour>
  </outline>
</glyph>
<glyph name="uni0394" format="1">
  <advance width="1388"/>
  <unicode hex="0394"/>
  <outline>
    <contour>
      <point x="19" y="0" type="line"/>
      <point x="1365" y="0" type="line"/>
      <point x="867" y="1489" type="line"/>
      <point x="514" y="1489" type="line"/>
    </contour>
    <contour>
      <point x="396" y="256" type="line"/>
      <point x="680" y="1216" type="line"/>
      <point x="936" y="256" type="line"/>
    </contour>
  </outline>
</glyph>
<glyph name="Sigma" format="1">
  <advance width="1453"/>
  <unicode hex="03A3"/>
  <outline>
    <contour>
      <point x="158" y="0" type="line"/>
      <point x="1348" y="0" type="line"/>
      <point x="1348" y="234" type="line"/>
      <point x="514" y="234" type="line"/>
      <point x="1145" y="702" type="line"/>
      <point x="1145" y="904" type="line"/>
      <point x="529" y="1360" type="line"/>
      <point x="1305" y="1360" type="line"/>
      <point x="1305" y="1578" type="line"/>
      <point x="163" y="1578" type="line"/>
      <point x="163" y="1286" type="line"/>
      <point x="824" y="777" type="line"/>
      <point x="158" y="242" type="line"/>
    </contour>
  </outline>
</glyph>
<glyph name="uni03A9" format="1">
  <advance width="1770"/>
  <unicode hex="03A9"/>
  <outline>
    <contour>
      <point x="152" y="0" type="line"/>
      <point x="800" y="0" type="line"/>
      <point x="799" y="143" type="line"/>
      <point x="587" y="266"/>
      <point x="421" y="521"/>
      <point x="421" y="822" type="curve" smooth="yes"/>
      <point x="421" y="1139"/>
      <point x="636" y="1299"/>
      <point x="933" y="1299" type="curve" smooth="yes"/>
      <point x="1259" y="1299"/>
      <point x="1432" y="1104"/>
      <point x="1432" y="817" type="curve" smooth="yes"/>
      <point x="1432" y="513"/>
      <point x="1258" y="268"/>
      <point x="1050" y="143" type="curve"/>
      <point x="1051" y="0" type="line"/>
      <point x="1693" y="0" type="line"/>
      <point x="1711" y="168" type="line"/>
      <point x="1357" y="168" type="line"/>
      <point x="1544" y="324"/>
      <point x="1705" y="544"/>
      <point x="1705" y="836" type="curve" smooth="yes"/>
      <point x="1705" y="1214"/>
      <point x="1437" y="1521"/>
      <point x="938" y="1521" type="curve" smooth="yes"/>
      <point x="457" y="1521"/>
      <point x="149" y="1246"/>
      <point x="149" y="840" type="curve" smooth="yes"/>
      <point x="149" y="554"/>
      <point x="281" y="329"/>
      <point x="487" y="168" type="curve"/>
      <point x="131" y="168" type="line"/>
    </contour>
  </outline>
</glyph>
<glyph name="uni03BC" format="1">
  <advance width="1355"/>
  <unicode hex="03BC"/>
  <outline>
    <contour>
      <point x="456" y="-324" type="line"/>
      <point x="456" y="67" type="line"/>
      <point x="499" y="19"/>
      <point x="555" y="-12"/>
      <point x="624" y="-12" type="curve" smooth="yes"/>
      <point x="749" y="-12"/>
      <point x="868" y="53"/>
      <point x="930" y="168" type="curve"/>
      <point x="993" y="8" type="line"/>
      <point x="1213" y="8" type="line"/>
      <point x="1213" y="1165" type="line"/>
      <point x="901" y="1165" type="line"/>
      <point x="901" y="290" type="line"/>
      <point x="850" y="231"/>
      <point x="745" y="192"/>
      <point x="660" y="192" type="curve" smooth="yes"/>
      <point x="525" y="192"/>
      <point x="456" y="282"/>
      <point x="456" y="418" type="curve" smooth="yes"/>
      <point x="456" y="1165" type="line"/>
      <point x="155" y="1165" type="line"/>
      <point x="155" y="-307" type="line"/>
    </contour>
  </outline>
</glyph>
<glyph name="pi" format="1">
  <advance width="1756"/>
  <unicode hex="03C0"/>
  <outline>
    <contour>
      <point x="1276" y="-15" type="curve" smooth="yes"/>
      <point x="1377" y="-15"/>
      <point x="1457" y="13"/>
      <point x="1515" y="68" type="curve"/>
      <point x="1515" y="227" type="line"/>
      <point x="1475" y="210"/>
      <point x="1423" y="193"/>
      <point x="1383" y="193" type="curve" smooth="yes"/>
      <point x="1281" y="193"/>
      <point x="1235" y="290"/>
      <point x="1235" y="493" type="curve" smooth="yes"/>
      <point x="1235" y="622"/>
      <point x="1250" y="751"/>
      <point x="1279" y="961" type="curve"/>
      <point x="1544" y="961" type="line"/>
      <point x="1544" y="1165" type="line"/>
      <point x="547" y="1165" type="line" smooth="yes"/>
      <point x="243" y="1165"/>
      <point x="143" y="1033"/>
      <point x="143" y="774" type="curve"/>
      <point x="298" y="774" type="line"/>
      <point x="313" y="911"/>
      <point x="368" y="959"/>
      <point x="467" y="961" type="curve" smooth="yes"/>
      <point x="471" y="961"/>
      <point x="561" y="961"/>
      <point x="565" y="961" type="curve"/>
      <point x="450" y="444" type="line" smooth="yes"/>
      <point x="389" y="174"/>
      <point x="274" y="155"/>
      <point x="146" y="163" type="curve"/>
      <point x="146" y="7" type="line"/>
      <point x="580" y="-41"/>
      <point x="662" y="133"/>
      <point x="696" y="381" type="curve" smooth="yes"/>
      <point x="776" y="961" type="line"/>
      <point x="1058" y="961" type="line"/>
      <point x="1020" y="694"/>
      <point x="980" y="502"/>
      <point x="980" y="331" type="curve" smooth="yes"/>
      <point x="980" y="123"/>
      <point x="1043" y="-15"/>
    </contour>
  </outline>
</glyph>
<glyph name="endash" format="1">
  <advance width="1003"/>
  <unicode hex="2013"/>
  <outline>
    <contour>
      <point x="178" y="569" type="line"/>
      <point x="812" y="569" type="line"/>
      <point x="812" y="798" type="line"/>
      <point x="178" y="798" type="line"/>
    </contour>
  </outline>
</glyph>
<glyph name="emdash" format="1">
  <advance width="1803"/>
  <unicode hex="2014"/>
  <outline>
    <contour>
      <point x="145" y="569" type="line"/>
      <point x="1649" y="569" type="line"/>
      <point x="1649" y="798" type="line"/>
      <point x="145" y="798" type="line"/>
    </contour>
  </outline>
</glyph>
<glyph name="quoteleft" format="1">
  <advance width="724"/>
  <unicode hex="2018"/>
  <outline>
    <contour>
      <point x="165" y="905" type="line"/>
      <point x="544" y="905" type="line"/>
      <point x="544" y="1286" type="line"/>
      <point x="380" y="1286" type="line"/>
      <point x="379" y="1386"/>
      <point x="428" y="1428"/>
      <point x="543" y="1470" type="curve"/>
      <point x="485" y="1578" type="line"/>
      <point x="323" y="1531"/>
      <point x="165" y="1451"/>
      <point x="165" y="1236" type="curve" smooth="yes"/>
    </contour>
  </outline>
</glyph>
<glyph name="quoteright" format="1">
  <advance width="606"/>
  <unicode hex="2019"/>
  <outline>
    <contour>
      <point x="174" y="905" type="line"/>
      <point x="341" y="954"/>
      <point x="494" y="1035"/>
      <point x="494" y="1248" type="curve" smooth="yes"/>
      <point x="494" y="1578" type="line"/>
      <point x="115" y="1578" type="line"/>
      <point x="115" y="1197" type="line"/>
      <point x="279" y="1197" type="line"/>
      <point x="280" y="1097"/>
      <point x="231" y="1055"/>
      <point x="116" y="1014" type="curve"/>
    </contour>
  </outline>
</glyph>
<glyph name="quotesinglbase" format="1">
  <advance width="725"/>
  <unicode hex="201A"/>
  <outline>
    <contour>
      <point x="240" y="-292" type="line"/>
      <point x="402" y="-244"/>
      <point x="559" y="-166"/>
      <point x="559" y="50" type="curve" smooth="yes"/>
      <point x="559" y="381" type="line"/>
      <point x="180" y="381" type="line"/>
      <point x="180" y="0" type="line"/>
      <point x="345" y="0" type="line"/>
      <point x="345" y="-100"/>
      <point x="296" y="-142"/>
      <point x="181" y="-183" type="curve"/>
    </contour>
  </outline>
</glyph>
<glyph name="quotedblleft" format="1">
  <advance width="1137"/>
  <unicode hex="201C"/>
  <outline>
    <contour>
      <point x="124" y="914" type="line"/>
      <point x="504" y="914" type="line"/>
      <point x="504" y="1295" type="line"/>
      <point x="339" y="1295" type="line"/>
      <point x="339" y="1394"/>
      <point x="387" y="1436"/>
      <point x="503" y="1478" type="curve"/>
      <point x="444" y="1587" type="line"/>
      <point x="282" y="1539"/>
      <point x="124" y="1460"/>
      <point x="124" y="1244" type="curve" smooth="yes"/>
    </contour>
    <contour>
      <point x="605" y="914" type="line"/>
      <point x="985" y="914" type="line"/>
      <point x="985" y="1295" type="line"/>
      <point x="819" y="1295" type="line"/>
      <point x="819" y="1394"/>
      <point x="868" y="1436"/>
      <point x="984" y="1478" type="curve"/>
      <point x="924" y="1587" type="line"/>
      <point x="763" y="1539"/>
      <point x="605" y="1460"/>
      <point x="605" y="1244" type="curve" smooth="yes"/>
    </contour>
  </outline>
</glyph>
<glyph name="quotedblright" format="1">
  <advance width="1039"/>
  <unicode hex="201D"/>
  <outline>
    <contour>
      <point x="163" y="905" type="line"/>
      <point x="329" y="954"/>
      <point x="483" y="1035"/>
      <point x="483" y="1248" type="curve" smooth="yes"/>
      <point x="483" y="1578" type="line"/>
      <point x="103" y="1578" type="line"/>
      <point x="103" y="1197" type="line"/>
      <point x="268" y="1197" type="line"/>
      <point x="268" y="1097"/>
      <point x="219" y="1055"/>
      <point x="104" y="1014" type="curve"/>
    </contour>
    <contour>
      <point x="643" y="905" type="line"/>
      <point x="810" y="954"/>
      <point x="963" y="1035"/>
      <point x="963" y="1248" type="curve" smooth="yes"/>
      <point x="963" y="1578" type="line"/>
      <point x="584" y="1578" type="line"/>
      <point x="584" y="1197" type="line"/>
      <point x="748" y="1197" type="line"/>
      <point x="749" y="1097"/>
      <point x="700" y="1055"/>
      <point x="585" y="1014" type="curve"/>
    </contour>
  </outline>
</glyph>
<glyph name="quotedblbase" format="1">
  <advance width="1113"/>
  <unicode hex="201E"/>
  <outline>
    <contour>
      <point x="204" y="-297" type="line"/>
      <point x="366" y="-249"/>
      <point x="524" y="-171"/>
      <point x="524" y="45" type="curve" smooth="yes"/>
      <point x="524" y="376" type="line"/>
      <point x="144" y="376" type="line"/>
      <point x="144" y="-5" type="line"/>
      <point x="309" y="-5" type="line"/>
      <point x="309" y="-105"/>
      <point x="261" y="-147"/>
      <point x="145" y="-189" type="curve"/>
    </contour>
    <contour>
      <point x="685" y="-297" type="line"/>
      <point x="847" y="-249"/>
      <point x="1004" y="-171"/>
      <point x="1004" y="45" type="curve" smooth="yes"/>
      <point x="1004" y="376" type="line"/>
      <point x="625" y="376" type="line"/>
      <point x="625" y="-5" type="line"/>
      <point x="790" y="-5" type="line"/>
      <point x="790" y="-105"/>
      <point x="741" y="-147"/>
      <point x="626" y="-189" type="curve"/>
    </contour>
  </outline>
</glyph>
<glyph name="dagger" format="1">
  <advance width="1213"/>
  <unicode hex="2020"/>
  <outline>
    <contour>
      <point x="451" y="-193" type="line"/>
      <point x="765" y="-193" type="line"/>
      <point x="765" y="941" type="line"/>
      <point x="1094" y="941" type="line"/>
      <point x="1094" y="1153" type="line"/>
      <point x="764" y="1153" type="line"/>
      <point x="764" y="1578" type="line"/>
      <point x="451" y="1578" type="line"/>
      <point x="451" y="1153" type="line"/>
      <point x="119" y="1153" type="line"/>
      <point x="119" y="941" type="line"/>
      <point x="451" y="941" type="line"/>
    </contour>
  </outline>
</glyph>
<glyph name="daggerdbl" format="1">
  <advance width="1213"/>
  <unicode hex="2021"/>
  <outline>
    <contour>
      <point x="451" y="-193" type="line"/>
      <point x="765" y="-193" type="line"/>
      <point x="765" y="256" type="line"/>
      <point x="1094" y="256" type="line"/>
      <point x="1094" y="466" type="line"/>
      <point x="765" y="466" type="line"/>
      <point x="765" y="941" type="line"/>
      <point x="1094" y="941" type="line"/>
      <point x="1094" y="1153" type="line"/>
      <point x="764" y="1153" type="line"/>
      <point x="764" y="1578" type="line"/>
      <point x="451" y="1578" type="line"/>
      <point x="451" y="1153" type="line"/>
      <point x="119" y="1153" type="line"/>
      <point x="119" y="941" type="line"/>
      <point x="451" y="941" type="line"/>
      <point x="451" y="466" type="line"/>
      <point x="119" y="466" type="line"/>
      <point x="119" y="256" type="line"/>
      <point x="451" y="256" type="line"/>
    </contour>
  </outline>
</glyph>
<glyph name="bullet" format="1">
  <advance width="1158"/>
  <unicode hex="2022"/>
  <outline>
    <contour>
      <point x="578" y="328" type="curve" smooth="yes"/>
      <point x="788" y="328"/>
      <point x="956" y="494"/>
      <point x="956" y="683" type="curve" smooth="yes"/>
      <point x="956" y="891"/>
      <point x="768" y="1039"/>
      <point x="573" y="1039" type="curve" smooth="yes"/>
      <point x="371" y="1039"/>
      <point x="196" y="879"/>
      <point x="196" y="683" type="curve" smooth="yes"/>
      <point x="196" y="474"/>
      <point x="383" y="328"/>
    </contour>
  </outline>
</glyph>
<glyph name="perthousand" format="1">
  <advance width="2993"/>
  <unicode hex="2030"/>
  <outline>
    <contour>
      <point x="2536" y="161" type="curve" smooth="yes"/>
      <point x="2434" y="161"/>
      <point x="2370" y="256"/>
      <point x="2370" y="407" type="curve" smooth="yes"/>
      <point x="2370" y="564"/>
      <point x="2434" y="662"/>
      <point x="2536" y="662" type="curve" smooth="yes"/>
      <point x="2638" y="662"/>
      <point x="2702" y="564"/>
      <point x="2702" y="407" type="curve" smooth="yes"/>
      <point x="2702" y="256"/>
      <point x="2638" y="161"/>
    </contour>
    <contour>
      <point x="2536" y="-18" type="curve" smooth="yes"/>
      <point x="2763" y="-18"/>
      <point x="2906" y="146"/>
      <point x="2906" y="407" type="curve" smooth="yes"/>
      <point x="2906" y="671"/>
      <point x="2763" y="836"/>
      <point x="2536" y="836" type="curve" smooth="yes"/>
      <point x="2309" y="836"/>
      <point x="2166" y="671"/>
      <point x="2166" y="407" type="curve" smooth="yes"/>
      <point x="2166" y="146"/>
      <point x="2309" y="-18"/>
    </contour>
    <component base="percent"/>
  </outline>
</glyph>
<glyph name="guilsinglleft" format="1">
  <advance width="1041"/>
  <unicode hex="2039"/>
  <outline>
    <contour>
      <point x="890" y="61" type="line"/>
      <point x="890" y="328" type="line"/>
      <point x="462" y="589" type="line"/>
      <point x="891" y="849" type="line"/>
      <point x="891" y="1114" type="line"/>
      <point x="198" y="690" type="line"/>
      <point x="198" y="486" type="line"/>
    </contour>
  </outline>
</glyph>
<glyph name="guilsinglright" format="1">
  <advance width="1041"/>
  <unicode hex="203A"/>
  <outline>
    <contour>
      <point x="219" y="61" type="line"/>
      <point x="912" y="486" type="line"/>
      <point x="912" y="690" type="line"/>
      <point x="219" y="1114" type="line"/>
      <point x="219" y="849" type="line"/>
      <point x="648" y="589" type="line"/>
      <point x="219" y="328" type="line"/>
    </contour>
  </outline>
</glyph>
<glyph name="uni203E" format="1">
  <advance width="967"/>
  <unicode hex="203E"/>
  <outline>
    <contour>
      <point x="141" y="122" type="line"/>
      <point x="823" y="122" type="line"/>
      <point x="823" y="239" type="line"/>
      <point x="141" y="239" type="line"/>
    </contour>
  </outline>
</glyph>
<glyph name="fraction" format="1">
  <advance width="1090"/>
  <unicode hex="2044"/>
  <outline>
    <contour>
      <point x="233" y="-18" type="line"/>
      <point x="1090" y="1596" type="line"/>
      <point x="854" y="1596" type="line"/>
      <point x="0" y="-18" type="line"/>
    </contour>
  </outline>
</glyph>
<glyph name="uni2074" format="1">
  <advance width="1092"/>
  <unicode hex="2074"/>
  <outline>
    <contour>
      <point x="637" y="523" type="line"/>
      <point x="842" y="531" type="line"/>
      <point x="842" y="768" type="line"/>
      <point x="984" y="768" type="line"/>
      <point x="984" y="937" type="line"/>
      <point x="842" y="937" type="line"/>
      <point x="842" y="1639" type="line"/>
      <point x="647" y="1685" type="line"/>
      <point x="110" y="915" type="line"/>
      <point x="140" y="768" type="line"/>
      <point x="637" y="768" type="line"/>
    </contour>
    <contour>
      <point x="339" y="935" type="line"/>
      <point x="637" y="1378" type="line"/>
      <point x="637" y="935" type="line"/>
    </contour>
  </outline>
</glyph>
<glyph name="Euro" format="1">
  <advance width="1365"/>
  <unicode hex="20AC"/>
  <outline>
    <contour>
      <point x="-33" y="571" type="line"/>
      <point x="859" y="571" type="line"/>
      <point x="859" y="719" type="line"/>
      <point x="329" y="719" type="line"/>
      <point x="329" y="915" type="line"/>
      <point x="859" y="915" type="line"/>
      <point x="859" y="1063" type="line"/>
      <point x="-33" y="1063" type="line"/>
      <point x="-33" y="915" type="line"/>
      <point x="237" y="915" type="line"/>
      <point x="237" y="719" type="line"/>
      <point x="-33" y="719" type="line"/>
    </contour>
    <component base="C"/>
  </outline>
</glyph>
<glyph name="afii61289" format="1">
  <advance width="1000"/>
  <unicode hex="2113"/>
  <outline>
    <contour>
      <point x="654" y="-16" type="curve"/>
      <point x="764" y="-16"/>
      <point x="866" y="7"/>
      <point x="939" y="44" type="curve"/>
      <point x="893" y="235" type="line"/>
      <point x="833" y="214"/>
      <point x="774" y="199"/>
      <point x="718" y="199" type="curve"/>
      <point x="643" y="199"/>
      <point x="569" y="225"/>
      <point x="569" y="340" type="curve"/>
      <point x="569" y="976" type="line"/>
      <point x="766" y="1159" type="line"/>
      <point x="863" y="1249"/>
      <point x="909" y="1334"/>
      <point x="909" y="1422" type="curve"/>
      <point x="909" y="1575"/>
      <point x="776" y="1687"/>
      <point x="604" y="1687" type="curve"/>
      <point x="416" y="1687"/>
      <point x="287" y="1565"/>
      <point x="287" y="1353" type="curve"/>
      <point x="287" y="957" type="line"/>
      <point x="89" y="774" type="line"/>
      <point x="89" y="587" type="line"/>
      <point x="286" y="771" type="line"/>
      <point x="286" y="357" type="line"/>
      <point x="286" y="57"/>
      <point x="474" y="-16"/>
    </contour>
    <contour>
      <point x="569" y="1174" type="line"/>
      <point x="569" y="1350" type="line"/>
      <point x="569" y="1436"/>
      <point x="613" y="1469"/>
      <point x="656" y="1469" type="curve"/>
      <point x="703" y="1469"/>
      <point x="732" y="1437"/>
      <point x="732" y="1390" type="curve"/>
      <point x="732" y="1354"/>
      <point x="711" y="1312"/>
      <point x="675" y="1277" type="curve"/>
    </contour>
  </outline>
</glyph>
<glyph name="trademark" format="1">
  <advance width="1985"/>
  <unicode hex="2122"/>
  <outline>
    <contour>
      <point x="871" y="577" type="line"/>
      <point x="1058" y="577" type="line"/>
      <point x="1058" y="1258" type="line"/>
      <point x="1277" y="673" type="line"/>
      <point x="1458" y="673" type="line"/>
      <point x="1682" y="1258" type="line"/>
      <point x="1682" y="577" type="line"/>
      <point x="1869" y="577" type="line"/>
      <point x="1869" y="1499" type="line"/>
      <point x="1620" y="1499" type="line"/>
      <point x="1367" y="882" type="line"/>
      <point x="1124" y="1499" type="line"/>
      <point x="871" y="1499" type="line"/>
    </contour>
    <contour>
      <point x="290" y="577" type="line"/>
      <point x="497" y="577" type="line"/>
      <point x="497" y="1353" type="line"/>
      <point x="740" y="1353" type="line"/>
      <point x="740" y="1499" type="line"/>
      <point x="46" y="1499" type="line"/>
      <point x="46" y="1353" type="line"/>
      <point x="290" y="1353" type="line"/>
    </contour>
  </outline>
</glyph>
<glyph name="Omega" format="1">
  <advance width="1858"/>
  <unicode hex="2126"/>
  <outline>
    <contour>
      <point x="168" y="0" type="line"/>
      <point x="840" y="0" type="line"/>
      <point x="839" y="149" type="line"/>
      <point x="614" y="281"/>
      <point x="440" y="551"/>
      <point x="440" y="869" type="curve" smooth="yes"/>
      <point x="440" y="1212"/>
      <point x="670" y="1392"/>
      <point x="989" y="1392" type="curve" smooth="yes"/>
      <point x="1339" y="1392"/>
      <point x="1525" y="1173"/>
      <point x="1525" y="864" type="curve" smooth="yes"/>
      <point x="1525" y="543"/>
      <point x="1341" y="283"/>
      <point x="1121" y="148" type="curve"/>
      <point x="1122" y="0" type="line"/>
      <point x="1788" y="0" type="line"/>
      <point x="1806" y="174" type="line"/>
      <point x="1428" y="174" type="line"/>
      <point x="1625" y="337"/>
      <point x="1799" y="572"/>
      <point x="1799" y="885" type="curve" smooth="yes"/>
      <point x="1799" y="1290"/>
      <point x="1515" y="1616"/>
      <point x="995" y="1616" type="curve" smooth="yes"/>
      <point x="495" y="1616"/>
      <point x="166" y="1324"/>
      <point x="166" y="889" type="curve" smooth="yes"/>
      <point x="166" y="583"/>
      <point x="309" y="342"/>
      <point x="528" y="174" type="curve"/>
      <point x="146" y="174" type="line"/>
    </contour>
  </outline>
</glyph>
<glyph name="estimated" format="1">
  <advance width="1211"/>
  <unicode hex="212E"/>
  <outline>
    <contour>
      <point x="653" y="134" type="curve" smooth="yes"/>
      <point x="787" y="134"/>
      <point x="956" y="177"/>
      <point x="1050" y="254" type="curve"/>
      <point x="1001" y="361" type="line"/>
      <point x="953" y="325"/>
      <point x="833" y="252"/>
      <point x="686" y="252" type="curve" smooth="yes"/>
      <point x="578" y="252"/>
      <point x="473" y="287"/>
      <point x="403" y="366" type="curve"/>
      <point x="403" y="725" type="line"/>
      <point x="1080" y="725" type="line"/>
      <point x="1086" y="759"/>
      <point x="1090" y="794"/>
      <point x="1090" y="828" type="curve" smooth="yes"/>
      <point x="1090" y="1123"/>
      <point x="947" y="1338"/>
      <point x="644" y="1338" type="curve" smooth="yes"/>
      <point x="290" y="1338"/>
      <point x="124" y="1055"/>
      <point x="124" y="730" type="curve" smooth="yes"/>
      <point x="124" y="403"/>
      <point x="298" y="134"/>
    </contour>
    <contour>
      <point x="403" y="830" type="line"/>
      <point x="403" y="1125" type="line"/>
      <point x="456" y="1183"/>
      <point x="538" y="1218"/>
      <point x="645" y="1218" type="curve" smooth="yes"/>
      <point x="740" y="1218"/>
      <point x="810" y="1185"/>
      <point x="857" y="1130" type="curve"/>
      <point x="857" y="830" type="line"/>
    </contour>
  </outline>
</glyph>
<glyph name="emptyset" format="1">
  <advance width="1756"/>
  <unicode hex="2205"/>
  <outline>
    <contour>
      <point x="375" y="-93" type="line"/>
      <point x="539" y="90" type="line"/>
      <point x="638" y="22"/>
      <point x="758" y="-18"/>
      <point x="887" y="-18" type="curve" smooth="yes"/>
      <point x="1224" y="-18"/>
      <point x="1497" y="255"/>
      <point x="1497" y="592" type="curve" smooth="yes"/>
      <point x="1497" y="746"/>
      <point x="1440" y="886"/>
      <point x="1347" y="993" type="curve"/>
      <point x="1509" y="1174" type="line"/>
      <point x="1415" y="1257" type="line"/>
      <point x="1255" y="1078" type="line"/>
      <point x="1153" y="1156"/>
      <point x="1025" y="1202"/>
      <point x="887" y="1202" type="curve" smooth="yes"/>
      <point x="550" y="1202"/>
      <point x="277" y="929"/>
      <point x="277" y="592" type="curve" smooth="yes"/>
      <point x="277" y="430"/>
      <point x="340" y="282"/>
      <point x="444" y="173" type="curve"/>
      <point x="280" y="-10" type="line"/>
    </contour>
    <contour>
      <point x="567" y="310" type="line"/>
      <point x="503" y="386"/>
      <point x="467" y="485"/>
      <point x="467" y="592" type="curve" smooth="yes"/>
      <point x="467" y="823"/>
      <point x="639" y="1020"/>
      <point x="887" y="1020" type="curve" smooth="yes"/>
      <point x="982" y="1020"/>
      <point x="1066" y="992"/>
      <point x="1134" y="943" type="curve"/>
    </contour>
    <contour>
      <point x="887" y="164" type="curve" smooth="yes"/>
      <point x="801" y="164"/>
      <point x="725" y="186"/>
      <point x="662" y="227" type="curve"/>
      <point x="1223" y="854" type="line"/>
      <point x="1277" y="781"/>
      <point x="1307" y="690"/>
      <point x="1307" y="592" type="curve" smooth="yes"/>
      <point x="1307" y="361"/>
      <point x="1135" y="164"/>
    </contour>
  </outline>
</glyph>
<glyph name="Delta" format="1">
  <advance width="1465"/>
  <unicode hex="2206"/>
  <outline>
    <contour>
      <point x="23" y="0" type="line"/>
      <point x="1438" y="0" type="line"/>
      <point x="909" y="1578" type="line"/>
      <point x="547" y="1578" type="line"/>
    </contour>
    <contour>
      <point x="405" y="258" type="line"/>
      <point x="719" y="1312" type="line"/>
      <point x="1006" y="258" type="line"/>
    </contour>
  </outline>
</glyph>
<glyph name="product" format="1">
  <advance width="1750"/>
  <unicode hex="220F"/>
  <outline>
    <contour>
      <point x="280" y="-137" type="line"/>
      <point x="600" y="-137" type="line"/>
      <point x="600" y="1345" type="line"/>
      <point x="1150" y="1345" type="line"/>
      <point x="1150" y="-137" type="line"/>
      <point x="1470" y="-137" type="line"/>
      <point x="1470" y="1345" type="line"/>
      <point x="1720" y="1345" type="line"/>
      <point x="1720" y="1578" type="line"/>
      <point x="30" y="1578" type="line"/>
      <point x="30" y="1345" type="line"/>
      <point x="280" y="1345" type="line"/>
    </contour>
  </outline>
</glyph>
<glyph name="minus" format="1">
  <advance width="890"/>
  <unicode hex="2212"/>
  <outline>
    <contour>
      <point x="103" y="489" type="line"/>
      <point x="785" y="489" type="line"/>
      <point x="785" y="701" type="line"/>
      <point x="103" y="701" type="line"/>
    </contour>
  </outline>
</glyph>
<glyph name="infinity" format="1">
  <advance width="1771"/>
  <unicode hex="221E"/>
  <outline>
    <contour>
      <point x="463" y="253" type="curve" smooth="yes"/>
      <point x="632" y="253"/>
      <point x="769" y="356"/>
      <point x="888" y="473" type="curve"/>
      <point x="1007" y="356"/>
      <point x="1141" y="253"/>
      <point x="1311" y="253" type="curve" smooth="yes"/>
      <point x="1497" y="253"/>
      <point x="1655" y="337"/>
      <point x="1652" y="630" type="curve"/>
      <point x="1655" y="921"/>
      <point x="1497" y="1005"/>
      <point x="1311" y="1005" type="curve" smooth="yes"/>
      <point x="1141" y="1005"/>
      <point x="1007" y="902"/>
      <point x="888" y="785" type="curve"/>
      <point x="769" y="902"/>
      <point x="632" y="1005"/>
      <point x="463" y="1005" type="curve" smooth="yes"/>
      <point x="277" y="1005"/>
      <point x="119" y="914"/>
      <point x="122" y="630" type="curve"/>
      <point x="119" y="344"/>
      <point x="277" y="253"/>
    </contour>
    <contour>
      <point x="464" y="459" type="curve" smooth="yes"/>
      <point x="372" y="459"/>
      <point x="314" y="509"/>
      <point x="318" y="628" type="curve"/>
      <point x="314" y="749"/>
      <point x="372" y="799"/>
      <point x="464" y="799" type="curve" smooth="yes"/>
      <point x="559" y="799"/>
      <point x="657" y="723"/>
      <point x="749" y="629" type="curve"/>
      <point x="657" y="535"/>
      <point x="559" y="459"/>
    </contour>
    <contour>
      <point x="1310" y="459" type="curve" smooth="yes"/>
      <point x="1218" y="459"/>
      <point x="1121" y="535"/>
      <point x="1029" y="629" type="curve"/>
      <point x="1121" y="723"/>
      <point x="1218" y="799"/>
      <point x="1310" y="799" type="curve" smooth="yes"/>
      <point x="1398" y="799"/>
      <point x="1457" y="754"/>
      <point x="1455" y="629" type="curve"/>
      <point x="1457" y="504"/>
      <point x="1398" y="459"/>
    </contour>
  </outline>
</glyph>
<glyph name="integral" format="1">
  <advance width="1292"/>
  <unicode hex="222B"/>
  <outline>
    <contour>
      <point x="326" y="-410" type="curve" smooth="yes"/>
      <point x="556" y="-410"/>
      <point x="699" y="-253"/>
      <point x="740" y="108" type="curve" smooth="yes"/>
      <point x="856" y="1151" type="line" smooth="yes"/>
      <point x="881" y="1362"/>
      <point x="949" y="1413"/>
      <point x="1035" y="1413" type="curve" smooth="yes"/>
      <point x="1084" y="1413"/>
      <point x="1135" y="1410"/>
      <point x="1191" y="1394" type="curve"/>
      <point x="1218" y="1615" type="line"/>
      <point x="1131" y="1635"/>
      <point x="1054" y="1644"/>
      <point x="979" y="1644" type="curve" smooth="yes"/>
      <point x="748" y="1644"/>
      <point x="589" y="1504"/>
      <point x="550" y="1151" type="curve" smooth="yes"/>
      <point x="436" y="118" type="line" smooth="yes"/>
      <point x="409" y="-123"/>
      <point x="347" y="-183"/>
      <point x="270" y="-183" type="curve" smooth="yes"/>
      <point x="221" y="-183"/>
      <point x="171" y="-176"/>
      <point x="114" y="-156" type="curve"/>
      <point x="87" y="-375" type="line"/>
      <point x="177" y="-400"/>
      <point x="253" y="-410"/>
    </contour>
  </outline>
</glyph>
<glyph name="notequal" format="1">
  <advance width="1195"/>
  <unicode hex="2260"/>
  <outline>
    <contour>
      <point x="430" y="-155" type="line"/>
      <point x="581" y="296" type="line"/>
      <point x="1063" y="296" type="line"/>
      <point x="1063" y="501" type="line"/>
      <point x="649" y="501" type="line"/>
      <point x="702" y="659" type="line"/>
      <point x="1063" y="659" type="line"/>
      <point x="1063" y="863" type="line"/>
      <point x="771" y="863" type="line"/>
      <point x="905" y="1262" type="line"/>
      <point x="762" y="1311" type="line"/>
      <point x="613" y="863" type="line"/>
      <point x="142" y="863" type="line"/>
      <point x="142" y="659" type="line"/>
      <point x="546" y="659" type="line"/>
      <point x="493" y="501" type="line"/>
      <point x="142" y="501" type="line"/>
      <point x="142" y="296" type="line"/>
      <point x="425" y="296" type="line"/>
      <point x="292" y="-107" type="line"/>
    </contour>
  </outline>
</glyph>
<glyph name="lessequal" format="1">
  <advance width="1499"/>
  <unicode hex="2264"/>
  <outline>
    <contour>
      <point x="1194" y="367" type="line"/>
      <point x="1302" y="563" type="line"/>
      <point x="624" y="910" type="line"/>
      <point x="1302" y="1256" type="line"/>
      <point x="1194" y="1453" type="line"/>
      <point x="157" y="910" type="line"/>
    </contour>
    <contour>
      <point x="237" y="0" type="line"/>
      <point x="1267" y="0" type="line"/>
      <point x="1267" y="189" type="line"/>
      <point x="237" y="189" type="line"/>
    </contour>
  </outline>
</glyph>
<glyph name="greaterequal" format="1">
  <advance width="1499"/>
  <unicode hex="2265"/>
  <outline>
    <contour>
      <point x="288" y="367" type="line"/>
      <point x="1325" y="910" type="line"/>
      <point x="288" y="1453" type="line"/>
      <point x="180" y="1256" type="line"/>
      <point x="859" y="910" type="line"/>
      <point x="180" y="563" type="line"/>
    </contour>
    <contour>
      <point x="216" y="0" type="line"/>
      <point x="1245" y="0" type="line"/>
      <point x="1245" y="189" type="line"/>
      <point x="216" y="189" type="line"/>
    </contour>
  </outline>
</glyph>
<glyph name="lozenge" format="1">
  <advance width="1437"/>
  <unicode hex="25CA"/>
  <outline>
    <contour>
      <point x="718" y="190" type="line"/>
      <point x="364" y="583" type="line"/>
      <point x="719" y="978" type="line"/>
      <point x="1073" y="585" type="line"/>
    </contour>
    <contour>
      <point x="718" y="-62" type="line"/>
      <point x="1325" y="585" type="line"/>
      <point x="719" y="1230" type="line"/>
      <point x="112" y="583" type="line"/>
    </contour>
  </outline>
</glyph>
<glyph name="uniFB00" format="1">
  <advance width="1649"/>
  <unicode hex="FB00"/>
  <outline>
    <contour>
      <point x="227" y="0" type="line"/>
      <point x="529" y="0" type="line"/>
      <point x="529" y="927" type="line"/>
      <point x="983" y="927" type="line"/>
      <point x="983" y="0" type="line"/>
      <point x="1285" y="0" type="line"/>
      <point x="1285" y="927" type="line"/>
      <point x="1593" y="927" type="line"/>
      <point x="1593" y="1096" type="line"/>
      <point x="1285" y="1096" type="line"/>
      <point x="1285" y="1165" type="line" smooth="yes"/>
      <point x="1285" y="1316"/>
      <point x="1365" y="1344"/>
      <point x="1440" y="1344" type="curve" smooth="yes"/>
      <point x="1483" y="1345"/>
      <point x="1540" y="1332"/>
      <point x="1587" y="1316" type="curve"/>
      <point x="1634" y="1502" type="line"/>
      <point x="1566" y="1539"/>
      <point x="1467" y="1566"/>
      <point x="1358" y="1566" type="curve" smooth="yes"/>
      <point x="1190" y="1568"/>
      <point x="983" y="1488"/>
      <point x="983" y="1142" type="curve" smooth="yes"/>
      <point x="983" y="1096" type="line"/>
      <point x="529" y="1096" type="line"/>
      <point x="529" y="1165" type="line" smooth="yes"/>
      <point x="529" y="1316"/>
      <point x="609" y="1344"/>
      <point x="684" y="1344" type="curve" smooth="yes"/>
      <point x="728" y="1345"/>
      <point x="784" y="1332"/>
      <point x="831" y="1316" type="curve"/>
      <point x="878" y="1502" type="line"/>
      <point x="810" y="1539"/>
      <point x="712" y="1566"/>
      <point x="602" y="1566" type="curve" smooth="yes"/>
      <point x="434" y="1568"/>
      <point x="227" y="1488"/>
      <point x="227" y="1142" type="curve" smooth="yes"/>
      <point x="227" y="1096" type="line"/>
      <point x="42" y="1096" type="line"/>
      <point x="42" y="927" type="line"/>
      <point x="227" y="927" type="line"/>
    </contour>
  </outline>
</glyph>
<glyph name="uniFB01" format="1">
  <advance width="1449"/>
  <unicode hex="FB01"/>
  <outline>
    <contour>
      <point x="205" y="0" type="line"/>
      <point x="511" y="0" type="line"/>
      <point x="511" y="1012" type="line"/>
      <point x="977" y="1012" type="line"/>
      <point x="977" y="0" type="line"/>
      <point x="1281" y="0" type="line"/>
      <point x="1281" y="1165" type="line"/>
      <point x="512" y="1165" type="line"/>
      <point x="512" y="1171"/>
      <point x="512" y="1218"/>
      <point x="512" y="1223" type="curve" smooth="yes"/>
      <point x="517" y="1416"/>
      <point x="609" y="1431"/>
      <point x="665" y="1431" type="curve" smooth="yes"/>
      <point x="712" y="1431"/>
      <point x="769" y="1425"/>
      <point x="817" y="1411" type="curve"/>
      <point x="823" y="1630" type="line"/>
      <point x="746" y="1647"/>
      <point x="675" y="1655"/>
      <point x="603" y="1656" type="curve" smooth="yes"/>
      <point x="393" y="1658"/>
      <point x="211" y="1546"/>
      <point x="205" y="1228" type="curve" smooth="yes"/>
      <point x="205" y="1222"/>
      <point x="205" y="1171"/>
      <point x="205" y="1165" type="curve"/>
      <point x="11" y="1165" type="line"/>
      <point x="11" y="1012" type="line"/>
      <point x="205" y="1012" type="line"/>
    </contour>
    <contour>
      <point x="1131" y="1341" type="curve" smooth="yes"/>
      <point x="1227" y="1341"/>
      <point x="1302" y="1416"/>
      <point x="1302" y="1512" type="curve" smooth="yes"/>
      <point x="1302" y="1608"/>
      <point x="1227" y="1685"/>
      <point x="1131" y="1685" type="curve" smooth="yes"/>
      <point x="1034" y="1685"/>
      <point x="960" y="1608"/>
      <point x="960" y="1512" type="curve" smooth="yes"/>
      <point x="960" y="1418"/>
      <point x="1032" y="1341"/>
    </contour>
  </outline>
</glyph>
<glyph name="uniFB02" format="1">
  <advance width="1504"/>
  <unicode hex="FB02"/>
  <outline>
    <contour>
      <point x="229" y="0" type="line"/>
      <point x="535" y="0" type="line"/>
      <point x="535" y="1012" type="line"/>
      <point x="834" y="1012" type="line"/>
      <point x="834" y="1165" type="line"/>
      <point x="536" y="1165" type="line"/>
      <point x="536" y="1169"/>
      <point x="536" y="1214"/>
      <point x="536" y="1218" type="curve" smooth="yes"/>
      <point x="539" y="1401"/>
      <point x="641" y="1452"/>
      <point x="784" y="1452" type="curve" smooth="yes"/>
      <point x="854" y="1452"/>
      <point x="934" y="1440"/>
      <point x="1015" y="1425" type="curve"/>
      <point x="1015" y="0" type="line"/>
      <point x="1319" y="0" type="line"/>
      <point x="1319" y="1594" type="line"/>
      <point x="1107" y="1633"/>
      <point x="908" y="1665"/>
      <point x="740" y="1665" type="curve" smooth="yes"/>
      <point x="438" y="1665"/>
      <point x="234" y="1560"/>
      <point x="229" y="1224" type="curve" smooth="yes"/>
      <point x="229" y="1219"/>
      <point x="229" y="1170"/>
      <point x="229" y="1165" type="curve"/>
      <point x="35" y="1165" type="line"/>
      <point x="35" y="1012" type="line"/>
      <point x="229" y="1012" type="line"/>
    </contour>
  </outline>
</glyph>
<glyph name="caron.alt" format="1">
  <advance width="600"/>
  <outline>
    <contour>
      <point x="30" y="1165" type="move" name="_caron.alt"/>
    </contour>
    <component base="comma" yOffset="1579"/>
  </outline>
</glyph>
